<svg xmlns="http://www.w3.org/2000/svg" viewBox="0 0 53 53" id="file">
  <path d="M8.8,50.5H38.3a1,1,0,0,0,1-1V43.6h4.9a1,1,0,0,0,1-1V10.53a1,1,0,0,0-.37-.78l-8.68-7L36,2.64l-.12-.07a1.1,1.1,0,0,0-.36-.07H14.7a1,1,0,0,0-1,1V9.4H8.8a1,1,0,0,0-1,1V49.5A1,1,0,0,0,8.8,50.5Zm21.82-38,5.45,4.41H30.62Zm5.9-6.9,5,4h-5ZM15.7,4.5H34.52v6.14a1,1,0,0,0,1,1H43.2v30H39.3V17.43a1,1,0,0,0-.37-.78l-8.68-7a.44.44,0,0,0-.15-.08L30,9.47a1.16,1.16,0,0,0-.37-.07H15.7ZM9.8,11.4H28.62v6.51a1,1,0,0,0,1,1H37.3V48.5H9.8Z"></path>
  <path d="M32.4 22.23H14.7a1 1 0 0 0 0 2H32.4a1 1 0 0 0 0-2zM32.4 27.07H14.7a1 1 0 1 0 0 2H32.4a1 1 0 0 0 0-2zM32.4 31.91H14.7a1 1 0 0 0 0 2H32.4a1 1 0 1 0 0-2zM32.4 36.76H14.7a1 1 0 1 0 0 2H32.4a1 1 0 0 0 0-2zM32.4 41.6H14.7a1 1 0 1 0 0 2H32.4a1 1 0 0 0 0-2z"></path>
</svg>
