<svg xmlns="http://www.w3.org/2000/svg" enable-background="new 0 0 512 512" viewBox="0 0 512 512" id="event">
  <path d="M472,64h-0.2c0.078-1.333,0.2-2.66,0.2-4c0-28.672-17.945-52-40-52s-40,23.328-40,52c0,1.35,0.078,2.675,0.156,4H375.8
		c0.078-1.333,0.2-2.66,0.2-4c0-28.672-17.945-52-40-52s-40,23.328-40,52c0,1.35,0.078,2.675,0.156,4H279.8
		c0.078-1.333,0.2-2.66,0.2-4c0-28.672-17.945-52-40-52s-40,23.328-40,52c0,1.35,0.078,2.675,0.156,4H183.8
		c0.078-1.333,0.2-2.66,0.2-4c0-28.672-17.945-52-40-52s-40,23.328-40,52c0,1.35,0.078,2.675,0.156,4H104c-22.055,0-40,17.945-40,40
		v188.455C26.109,311.565,0,350.747,0,396c0,63.961,52.039,116,116,116s116-52.039,116-116c0-1.35-0.157-2.661-0.203-4H472
		c22.055,0,40-17.945,40-40V104C512,81.945,494.055,64,472,64z M408,60c0-19.516,10.992-36,24-36s24,16.484,24,36
		c0,1.343-0.098,2.672-0.199,4h-47.522C408.174,62.669,408,61.365,408,60z M312,60c0-19.516,10.992-36,24-36s24,16.484,24,36
		c0,1.343-0.098,2.672-0.199,4h-47.522C312.174,62.669,312,61.365,312,60z M216,60c0-19.516,10.992-36,24-36s24,16.484,24,36
		c0,1.343-0.098,2.672-0.199,4h-47.522C216.174,62.669,216,61.365,216,60z M120,60c0-19.516,10.992-36,24-36s24,16.484,24,36
		c0,1.343-0.098,2.672-0.199,4h-47.522C120.174,62.669,120,61.365,120,60z M104,80h3.086c6.042,18.772,20.31,32,36.914,32
		c4.422,0,8-3.578,8-8s-3.578-8-8-8c-8.12,0-15.452-6.426-19.817-16h78.903c6.042,18.772,20.31,32,36.914,32c4.422,0,8-3.578,8-8
		s-3.578-8-8-8c-8.12,0-15.452-6.426-19.817-16h78.903c6.042,18.772,20.31,32,36.914,32c4.422,0,8-3.578,8-8s-3.578-8-8-8
		c-8.12,0-15.452-6.426-19.817-16h78.903c6.042,18.772,20.31,32,36.914,32c4.422,0,8-3.578,8-8s-3.578-8-8-8
		c-8.12,0-15.452-6.426-19.817-16H472c13.234,0,24,10.766,24,24v24H80v-24C80,90.766,90.766,80,104,80z M116,496
		c-55.141,0-100-44.859-100-100s44.859-100,100-100s100,44.859,100,100S171.141,496,116,496z M116,280
		c-12.572,0-24.654,2.074-36,5.791V144h416v144h-56c-22.055,0-40,17.945-40,40v48H230.151C220.631,321.554,173.129,280,116,280z
		 M483.438,304L416,365.812V328c0-13.234,10.766-24,24-24H483.438z M472,376h-43.432L496,314.188V352
		C496,365.234,485.234,376,472,376z"></path>
  <path d="M296 232h-48c-4.422 0-8 3.578-8 8v40c0 4.422 3.578 8 8 8h48c4.422 0 8-3.578 8-8v-40C304 235.578 300.422 232 296 232zM288 272h-32v-24h32V272zM296 160h-48c-4.422 0-8 3.578-8 8v40c0 4.422 3.578 8 8 8h48c4.422 0 8-3.578 8-8v-40C304 163.578 300.422 160 296 160zM288 200h-32v-24h32V200zM216 160h-48c-4.422 0-8 3.578-8 8v40c0 4.422 3.578 8 8 8h48c4.422 0 8-3.578 8-8v-40C224 163.578 220.422 160 216 160zM208 200h-32v-24h32V200zM376 232h-48c-4.422 0-8 3.578-8 8v40c0 4.422 3.578 8 8 8h48c4.422 0 8-3.578 8-8v-40C384 235.578 380.422 232 376 232zM368 272h-32v-24h32V272zM376 160h-48c-4.422 0-8 3.578-8 8v40c0 4.422 3.578 8 8 8h48c4.422 0 8-3.578 8-8v-40C384 163.578 380.422 160 376 160zM368 200h-32v-24h32V200zM408 216h48c4.422 0 8-3.578 8-8v-40c0-4.422-3.578-8-8-8h-48c-4.422 0-8 3.578-8 8v40C400 212.422 403.578 216 408 216zM416 176h32v24h-32V176zM376 304h-48c-4.422 0-8 3.578-8 8v40c0 4.422 3.578 8 8 8h48c4.422 0 8-3.578 8-8v-40C384 307.578 380.422 304 376 304zM368 344h-32v-24h32V344zM216 232h-48c-4.422 0-8 3.578-8 8v40c0 4.422 3.578 8 8 8h48c4.422 0 8-3.578 8-8v-40C224 235.578 220.422 232 216 232zM208 272h-32v-24h32V272zM296 304h-48c-4.422 0-8 3.578-8 8v40c0 4.422 3.578 8 8 8h48c4.422 0 8-3.578 8-8v-40C304 307.578 300.422 304 296 304zM288 344h-32v-24h32V344zM116 312c-46.32 0-84 37.68-84 84s37.68 84 84 84 84-37.68 84-84S162.32 312 116 312zM124 463.486v-13.104c0-4.422-3.578-8-8-8s-8 3.578-8 8v13.104C76.899 459.818 52.182 435.101 48.514 404h13.104c4.422 0 8-3.578 8-8s-3.578-8-8-8H48.514c3.668-31.101 28.385-55.818 59.486-59.486v13.104c0 4.422 3.578 8 8 8s8-3.578 8-8v-13.104c31.101 3.668 55.818 28.385 59.486 59.486h-13.104c-4.422 0-8 3.578-8 8s3.578 8 8 8h13.104C179.818 435.101 155.101 459.818 124 463.486z"></path>
  <path d="M124,392.688v-23.539c0-4.422-3.578-8-8-8s-8,3.578-8,8V396c0,2.125,0.844,4.156,2.344,5.656l26.469,26.469
		c1.562,1.562,3.609,2.344,5.656,2.344s4.094-0.781,5.656-2.344c3.125-3.125,3.125-8.188,0-11.312L124,392.688z"></path>
</svg>
