<svg width="24" height="24" viewBox="0 0 24 24" fill="none" xmlns="http://www.w3.org/2000/svg">
<g clip-path="url(#clip0_1416_764)">
<path d="M13.7325 1.22348L14.3115 2.85048C14.3978 3.09294 14.534 3.3146 14.7113 3.50114C14.8886 3.68768 15.1031 3.83495 15.3409 3.93343C15.5786 4.03191 15.8344 4.07942 16.0917 4.07288C16.349 4.06635 16.602 4.00591 16.8345 3.89548L18.3945 3.15448C19.9575 2.41148 21.5885 4.04248 20.8455 5.60548L20.1045 7.16548C19.9937 7.39789 19.9331 7.65098 19.9264 7.90835C19.9197 8.16572 19.9671 8.42163 20.0656 8.65949C20.1642 8.89735 20.3115 9.11186 20.4983 9.28912C20.685 9.46638 20.9068 9.60244 21.1495 9.68848L22.7765 10.2665C24.4065 10.8465 24.4065 13.1525 22.7765 13.7335L21.1495 14.3125C20.907 14.3988 20.6854 14.535 20.4988 14.7123C20.3123 14.8896 20.165 15.1041 20.0665 15.3418C19.9681 15.5796 19.9206 15.8354 19.9271 16.0927C19.9336 16.35 19.9941 16.603 20.1045 16.8355L20.8455 18.3955C21.5885 19.9585 19.9575 21.5895 18.3945 20.8465L16.8345 20.1055C16.6021 19.9949 16.3491 19.9343 16.0918 19.9276C15.8346 19.9209 15.5788 19.9683 15.3409 20.0667C15.1031 20.1651 14.8886 20.3123 14.7113 20.4988C14.534 20.6853 14.3978 20.907 14.3115 21.1495L13.7325 22.7775C13.1525 24.4075 10.8465 24.4075 10.2665 22.7775L9.6875 21.1495C9.6011 20.9071 9.46482 20.6855 9.28746 20.4991C9.11011 20.3127 8.89563 20.1655 8.65786 20.0671C8.4201 19.9688 8.16435 19.9213 7.90712 19.9279C7.64989 19.9345 7.3969 19.995 7.1645 20.1055L5.6045 20.8455C4.0415 21.5895 2.4105 19.9585 3.1535 18.3955L3.8945 16.8355C4.00527 16.6029 4.06598 16.3497 4.07269 16.0922C4.0794 15.8347 4.03197 15.5786 3.93347 15.3406C3.83496 15.1026 3.68757 14.8879 3.50085 14.7105C3.31413 14.533 3.09222 14.3967 2.8495 14.3105L1.2225 13.7325C-0.4075 13.1525 -0.4075 10.8455 1.2225 10.2655L2.8495 9.68748C3.09223 9.60149 3.3142 9.46551 3.50106 9.28833C3.68793 9.11116 3.83553 8.89673 3.93431 8.65892C4.03309 8.42112 4.08085 8.16522 4.07451 7.90779C4.06817 7.65036 4.00787 7.39713 3.8975 7.16448L3.1555 5.60448C2.4125 4.04048 4.0435 2.40948 5.6075 3.15248L7.1675 3.89448C7.39985 4.00476 7.65275 4.06511 7.90986 4.07163C8.16698 4.07814 8.42261 4.03068 8.66025 3.93231C8.89789 3.83394 9.11227 3.68683 9.28955 3.50049C9.46683 3.31416 9.60308 3.09272 9.6895 2.85048L10.2675 1.22348C10.8455 -0.406523 13.1515 -0.406523 13.7315 1.22348H13.7325Z" fill="black"/>
</g>
<defs>
<clipPath id="clip0_1416_764">
<rect width="24" height="24" fill="white"/>
</clipPath>
</defs>
</svg>
