<svg xmlns="http://www.w3.org/2000/svg" width="96" height="96" viewBox="0 0 96 96" id="balance">
  <path d="M 48 0 C 21.496252 -2e-006 4.7369516e-015 21.496252 0 48 C 0 74.503747 21.496252 96.00001 48 96 C 74.503745 96 96 74.503745 96 48 C 96 21.496254 74.503745 4.7369516e-015 48 0 z M 48 1 C 73.963305 1 95 22.036694 95 48 C 95 73.963305 73.963305 95 48 95 C 22.036692 95.00001 1 73.963307 1 48 C 1 22.036693 22.036692 0.999998 48 1 z M 48.037109 21 C 43.350109 21 39.537109 24.813 39.537109 29.5 C 39.537109 31.177 40.040078 32.76925 40.955078 34.15625 C 36.329078 36.05725 29.908281 38.57161 28.363281 38.724609 C 27.748281 38.792609 27.15775 38.309641 27.09375 37.681641 L 27.09375 37.679688 C 27.06675 37.405687 26.821875 37.205422 26.546875 37.232422 C 26.271875 37.259422 26.071609 37.503297 26.099609 37.779297 L 26.21875 38.984375 C 26.27275 39.527375 26.536922 40.009375 26.919922 40.359375 C 26.597922 40.646375 26.390625 41.060391 26.390625 41.525391 C 26.390625 41.803391 26.470655 42.059156 26.597656 42.285156 C 26.584656 42.311156 26.566594 42.332328 26.558594 42.361328 L 23.707031 52.361328 C 23.631031 52.627328 23.786731 52.903516 24.052734 52.978516 C 24.097734 52.991516 24.144454 52.998047 24.189453 52.998047 C 24.406453 52.998047 24.607922 52.853766 24.669922 52.634766 L 27.417969 42.990234 C 27.437969 42.998234 27.458516 43.003766 27.478516 43.009766 L 27.478516 52.498047 C 27.478516 52.774047 27.702516 52.998047 27.978516 52.998047 C 28.254516 52.998047 28.478516 52.774047 28.478516 52.498047 L 28.478516 42.996094 L 28.5 42.990234 L 31.285156 52.636719 C 31.350156 52.854719 31.549578 52.998047 31.767578 52.998047 C 31.813578 52.998047 31.859248 52.992546 31.90625 52.978516 C 32.17125 52.901516 32.324047 52.624375 32.248047 52.359375 L 29.361328 42.359375 C 29.353328 42.331375 29.335266 42.310156 29.322266 42.285156 C 29.449266 42.059156 29.527344 41.801437 29.527344 41.523438 C 29.527344 41.259437 29.455844 41.014875 29.339844 40.796875 C 32.907844 40.050875 43.480172 36.515422 43.951172 36.357422 C 44.546172 36.182422 45.159391 36.04736 45.775391 35.943359 C 45.959391 36.15636 46.164391 36.348906 46.400391 36.503906 L 46.400391 63.998047 L 45.501953 63.998047 C 45.225953 63.998047 45.001953 64.222048 45.001953 64.498047 L 45.001953 65.998047 L 44.501953 65.998047 C 44.225953 65.998047 44.001953 66.222048 44.001953 66.498047 L 44.001953 68.371094 L 40.611328 71.998047 L 39.5 71.998047 C 39.224 71.998047 39 72.222047 39 72.498047 L 39 74.498047 C 39 74.774047 39.224 74.998047 39.5 74.998047 L 56.5 74.998047 C 56.776 74.998047 57 74.774047 57 74.498047 L 57 72.498047 C 57 72.222047 56.776 71.998047 56.5 71.998047 L 55.462891 71.998047 L 52 68.292969 L 52 66.498047 C 52 66.222047 51.776 65.998047 51.5 65.998047 L 51 65.998047 L 51 64.498047 C 51 64.222047 50.776 63.998047 50.5 63.998047 L 49.599609 63.998047 L 49.599609 36.542969 C 50.022609 36.282969 50.371094 35.922187 50.621094 35.492188 C 51.134094 35.487187 51.652391 35.492111 52.150391 35.537109 C 52.623391 35.596109 62.231234 36.803187 66.490234 36.992188 C 66.429234 37.159188 66.390625 37.336438 66.390625 37.523438 C 66.390625 37.801437 66.470655 38.059156 66.597656 38.285156 C 66.584656 38.311156 66.566594 38.332328 66.558594 38.361328 L 61.238281 57.023438 C 60.53528 57.148441 60 57.760047 60 58.498047 C 60 58.993047 60.243281 59.427172 60.613281 59.701172 L 61.761719 62.679688 C 61.835719 62.872687 62.020562 62.998047 62.226562 62.998047 L 73.796875 62.998047 C 74.003875 62.998047 74.189672 62.872687 74.263672 62.679688 L 75.419922 59.679688 C 75.420922 59.677687 75.420828 59.677781 75.421875 59.675781 C 75.771828 59.400774 76 58.976047 76 58.498047 C 76 57.756047 75.458 57.143438 74.75 57.023438 L 69.359375 38.359375 C 69.351375 38.331375 69.333313 38.310156 69.320312 38.285156 C 69.447314 38.059156 69.527344 37.801437 69.527344 37.523438 C 69.527344 37.154438 69.394641 36.820734 69.181641 36.552734 C 69.312641 36.449733 69.435969 36.334219 69.542969 36.199219 C 69.895969 35.752219 70.059906 35.195906 70.003906 34.628906 L 69.882812 33.423828 C 69.855812 33.149828 69.609937 32.949563 69.335938 32.976562 C 69.060937 33.002563 68.860672 33.247437 68.888672 33.523438 L 68.888672 33.527344 C 68.918672 33.834344 68.829672 34.135906 68.638672 34.378906 C 68.449672 34.618906 68.181719 34.767875 67.886719 34.796875 C 66.456719 34.941875 60.547672 33.921766 55.763672 33.009766 C 56.260672 31.912766 56.537109 30.714953 56.537109 29.501953 C 56.537109 24.814953 52.724109 21.001953 48.037109 21.001953 L 48.037109 21 z M 48.037109 21.998047 C 52.173109 21.998047 55.537109 25.362047 55.537109 29.498047 C 55.537109 30.649047 55.260859 31.7875 54.755859 32.8125 C 54.402859 32.7445 54.060516 32.677328 53.728516 32.611328 C 54.250516 31.659328 54.537109 30.600047 54.537109 29.498047 C 54.537109 25.914047 51.621109 22.998047 48.037109 22.998047 C 44.453109 22.998047 41.537109 25.914047 41.537109 29.498047 C 41.537109 30.905047 42.014609 32.251141 42.849609 33.369141 C 42.544609 33.497141 42.225625 33.631531 41.890625 33.769531 C 41.012625 32.510531 40.537109 31.043047 40.537109 29.498047 C 40.537109 25.362047 43.901109 21.998047 48.037109 21.998047 z M 48.037109 23.998047 C 51.070109 23.998047 53.537109 26.466047 53.537109 29.498047 C 53.537109 30.538047 53.236453 31.531297 52.689453 32.404297 C 52.460453 32.358297 52.229578 32.312527 52.017578 32.269531 C 51.501578 32.223531 50.969453 32.217703 50.439453 32.220703 C 50.191453 31.885703 49.875719 31.607391 49.511719 31.400391 C 49.991719 30.973391 50.300781 30.358016 50.300781 29.666016 C 50.300781 28.530016 48.678516 26.530578 48.353516 26.142578 L 47.970703 25.679688 L 47.585938 26.140625 C 47.260937 26.530625 45.638672 28.529063 45.638672 29.664062 C 45.638672 30.380063 45.970469 31.013406 46.480469 31.441406 C 45.993469 31.739406 45.601609 32.169547 45.349609 32.685547 C 44.844609 32.772547 44.339078 32.886391 43.830078 33.025391 C 43.000078 32.037391 42.537109 30.794047 42.537109 29.498047 C 42.537109 26.466047 45.004109 23.998047 48.037109 23.998047 z M 47.970703 27.263672 C 48.612703 28.107672 49.300781 29.191063 49.300781 29.664062 C 49.300781 30.398063 48.704703 30.994141 47.970703 30.994141 C 47.236703 30.994141 46.638672 30.398063 46.638672 29.664062 C 46.638672 29.190062 47.328703 28.106672 47.970703 27.263672 z M 48.037109 31.994141 C 49.140109 31.994141 50.037109 32.891141 50.037109 33.994141 C 50.037109 35.097141 49.140109 35.994141 48.037109 35.994141 C 46.934109 35.994141 46.037109 35.097141 46.037109 33.994141 C 46.037109 32.891141 46.934109 31.994141 48.037109 31.994141 z M 50.919922 33.210938 C 51.251922 33.217937 51.574047 33.232822 51.873047 33.257812 C 52.430047 33.370812 65.538328 36.01711 67.986328 35.787109 C 68.274328 35.758109 68.547969 35.672156 68.792969 35.535156 C 68.781969 35.550156 68.771766 35.565078 68.759766 35.580078 C 68.590766 35.794078 68.354656 35.921703 68.097656 35.970703 C 68.051656 35.966703 68.007935 35.955078 67.960938 35.955078 C 67.817937 35.955078 67.681781 35.981578 67.550781 36.017578 C 64.327781 36.052578 52.403766 34.561922 52.259766 34.544922 C 51.835766 34.506922 51.409328 34.491328 50.986328 34.486328 C 51.013328 34.325328 51.037109 34.162141 51.037109 33.994141 C 51.037109 33.721141 50.987919 33.461938 50.919922 33.210938 z M 45.060547 33.759766 C 45.054547 33.838766 45.035156 33.914141 45.035156 33.994141 C 45.035156 34.358141 45.110466 34.704344 45.230469 35.027344 C 44.701469 35.130344 44.173391 35.248344 43.650391 35.402344 C 43.522391 35.445344 30.806422 39.698688 28.482422 39.929688 C 28.143422 39.967687 27.819031 39.838188 27.582031 39.617188 C 27.859031 39.711188 28.157891 39.74975 28.462891 39.71875 C 30.916891 39.47475 43.257469 34.282078 43.730469 34.080078 C 44.161469 33.952078 44.609547 33.850766 45.060547 33.759766 z M 47.400391 36.923828 C 47.606391 36.968828 47.818109 36.994141 48.037109 36.994141 C 48.230109 36.994141 48.417609 36.9725 48.599609 36.9375 L 48.599609 63.998047 L 47.400391 63.998047 L 47.400391 36.923828 z M 68.123047 36.988281 C 68.354047 37.060281 68.527344 37.268438 68.527344 37.523438 C 68.527344 37.836438 68.271984 38.091797 67.958984 38.091797 C 67.645984 38.091797 67.390625 37.835437 67.390625 37.523438 C 67.390625 37.296438 67.527703 37.104672 67.720703 37.013672 C 67.865703 37.009672 67.998469 37.004141 68.105469 36.994141 C 68.111469 36.993141 68.116047 36.991234 68.123047 36.990234 L 68.123047 36.988281 z M 67.417969 38.990234 C 67.437969 38.998234 67.460469 39.003766 67.480469 39.009766 L 67.480469 46.498047 C 67.480469 46.774047 67.704469 46.998047 67.980469 46.998047 C 68.256469 46.998047 68.480469 46.774047 68.480469 46.498047 L 68.480469 38.996094 L 68.501953 38.990234 L 73.701172 56.998047 L 68.480469 56.998047 L 68.480469 56.498047 C 68.480469 56.222047 68.256469 55.998047 67.980469 55.998047 C 67.704469 55.998047 67.480469 56.222047 67.480469 56.498047 L 67.480469 56.998047 L 62.285156 56.998047 L 67.417969 38.990234 z M 27.958984 40.955078 C 28.271984 40.955078 28.527344 41.210437 28.527344 41.523438 C 28.527344 41.836438 28.271984 42.091797 27.958984 42.091797 C 27.645984 42.091797 27.390625 41.835437 27.390625 41.523438 C 27.390625 41.210437 27.645984 40.955078 27.958984 40.955078 z M 66 47.998047 C 65.724 47.998047 65.5 48.222047 65.5 48.498047 C 65.5 48.774047 65.724 48.998047 66 48.998047 L 67 48.998047 C 67.657 48.998047 68.209109 49.424672 68.412109 50.013672 L 66 50.013672 C 65.724 50.013672 65.5 50.237672 65.5 50.513672 C 65.5 50.789672 65.724 51.013672 66 51.013672 L 68.402344 51.013672 C 68.191344 51.585672 67.645 51.998047 67 51.998047 L 66 51.998047 C 65.724 51.998047 65.5 52.222047 65.5 52.498047 C 65.5 52.501047 65.500906 52.502859 65.501953 52.505859 C 65.498953 52.63586 65.547483 52.767188 65.646484 52.867188 L 68.646484 55.867188 C 68.744484 55.965187 68.872 56.013672 69 56.013672 C 69.128 56.013672 69.255516 55.964192 69.353516 55.867188 C 69.548516 55.672187 69.548516 55.355156 69.353516 55.160156 L 67.173828 52.980469 C 68.295828 52.901469 69.219312 52.089672 69.445312 51.013672 L 70 51.013672 C 70.276 51.013672 70.5 50.789672 70.5 50.513672 C 70.5 50.237672 70.276 50.013672 70 50.013672 L 69.451172 50.013672 C 69.376172 49.635672 69.210328 49.292094 68.986328 48.996094 L 70 48.996094 C 70.276 48.996094 70.5 48.772094 70.5 48.496094 C 70.499953 48.220106 70.276 47.998047 70 47.998047 L 67 47.998047 L 66 47.998047 z M 26.5 53.982422 C 26.224 53.982422 26 54.206422 26 54.482422 L 26 56.482422 C 26 56.758422 26.224 56.982422 26.5 56.982422 L 29 56.982422 L 29 57.982422 L 26.5 57.982422 C 26.224 57.982422 26 58.206422 26 58.482422 C 26 58.758422 26.224 58.982422 26.5 58.982422 L 29.5 58.982422 C 29.776 58.982422 30 58.758422 30 58.482422 L 30 56.482422 C 30 56.206422 29.776 55.982422 29.5 55.982422 L 27 55.982422 L 27 54.982422 L 29.5 54.982422 C 29.776 54.982422 30 54.758422 30 54.482422 C 30 54.206422 29.776 53.982422 29.5 53.982422 L 26.5 53.982422 z M 31.5 53.982422 C 31.224 53.982422 31 54.206422 31 54.482422 C 31 54.758422 31.224 54.982422 31.5 54.982422 L 32.5 54.982422 L 32.5 58.482422 C 32.5 58.759422 32.724 58.982422 33 58.982422 C 33.276 58.982422 33.5 58.758422 33.5 58.482422 L 33.5 54.982422 L 34.5 54.982422 C 34.776 54.982422 35 54.758422 35 54.482422 C 35 54.206422 34.776 53.982422 34.5 53.982422 L 31.5 53.982422 z M 21.5 54.013672 C 21.224 54.013672 21 54.237672 21 54.513672 L 21 58.513672 C 21 58.789672 21.224 59.013672 21.5 59.013672 L 23 59.013672 L 24 59.013672 L 24.5 59.013672 C 24.776 59.013672 25 58.789672 25 58.513672 L 25 56.513672 C 25 56.237672 24.776 56.013672 24.5 56.013672 L 23.5 56.013672 C 23.224 56.013672 23 56.237672 23 56.513672 C 23 56.789672 23.224 57.013672 23.5 57.013672 L 24 57.013672 L 24 58.013672 L 23 58.013672 L 22 58.013672 L 22 55.013672 L 24.5 55.013672 C 24.776 55.013672 25 54.789672 25 54.513672 C 25 54.237672 24.776 54.013672 24.5 54.013672 L 21.5 54.013672 z M 61.5 57.998047 L 61.623047 57.998047 L 74.367188 57.998047 L 74.5 57.998047 C 74.776 57.998047 75 58.223047 75 58.498047 C 75 58.773047 74.776 58.998047 74.5 58.998047 L 61.5 58.998047 C 61.224 58.998047 61 58.773047 61 58.498047 C 61 58.223047 61.224 57.998047 61.5 57.998047 z M 27.980469 59.998047 C 27.704469 59.998047 27.480469 60.222047 27.480469 60.498047 L 27.480469 60.998047 L 22.285156 60.998047 L 22.390625 60.634766 C 22.466625 60.368766 22.311875 60.092578 22.046875 60.017578 C 21.785875 59.940578 21.503734 60.095328 21.427734 60.361328 L 21.238281 61.025391 C 20.535281 61.149391 20 61.760047 20 62.498047 C 20 62.993047 20.243281 63.427172 20.613281 63.701172 L 21.761719 66.679688 C 21.835719 66.872687 22.021516 66.998047 22.228516 66.998047 L 33.798828 66.998047 C 34.005828 66.998047 34.189672 66.872687 34.263672 66.679688 L 35.421875 63.679688 C 35.422875 63.677687 35.420875 63.677781 35.421875 63.675781 C 35.770875 63.400774 36 62.976047 36 62.498047 C 36 61.756047 35.458 61.143438 34.75 61.023438 L 34.558594 60.359375 C 34.481594 60.094375 34.205453 59.940578 33.939453 60.017578 C 33.673453 60.094578 33.521656 60.371719 33.597656 60.636719 L 33.701172 60.998047 L 28.480469 60.998047 L 28.480469 60.498047 C 28.480469 60.222047 28.256469 59.998047 27.980469 59.998047 z M 61.800781 59.998047 L 74.226562 59.998047 L 73.453125 61.998047 L 62.570312 61.998047 L 61.800781 59.998047 z M 21.5 61.998047 L 21.623047 61.998047 L 34.367188 61.998047 L 34.5 61.998047 C 34.776 61.998047 35 62.223047 35 62.498047 C 35 62.773047 34.776 62.998047 34.5 62.998047 L 21.5 62.998047 C 21.224 62.998047 21 62.773047 21 62.498047 C 21 62.223047 21.224 61.998047 21.5 61.998047 z M 21.800781 63.998047 L 34.226562 63.998047 L 33.453125 65.998047 L 22.570312 65.998047 L 21.800781 63.998047 z M 46 64.998047 L 46.400391 64.998047 L 49.599609 64.998047 L 50 64.998047 L 50 65.998047 L 46 65.998047 L 46 64.998047 z M 45 66.998047 L 45.5 66.998047 L 50.5 66.998047 L 51 66.998047 L 51 67.998047 L 45 67.998047 L 45 66.998047 z M 44.783203 68.998047 L 51.289062 68.998047 L 54.09375 71.998047 L 41.978516 71.998047 L 44.783203 68.998047 z M 40 72.998047 L 40.828125 72.998047 L 55.244141 72.998047 L 56 72.998047 L 56 73.998047 L 40 73.998047 L 40 72.998047 z "></path>
</svg>
