<svg xmlns="http://www.w3.org/2000/svg" viewBox="0 0 48 48" id="Calendar">
  <path fill="#000000" d="M24 0C10.767 0 0 10.767 0 24s10.767 24 24 24 24-10.767 24-24S37.233 0 24 0zm0 47C11.318 47 1 36.682 1 24S11.318 1 24 1s23 10.318 23 23-10.318 23-23 23z" class="color0c0c0c svgShape"></path>
  <path fill="#000000" d="M19 25c.827 0 1.5-.673 1.5-1.5S19.827 22 19 22s-1.5.673-1.5 1.5.673 1.5 1.5 1.5zm0-2a.5.5 0 1 1 0 1 .5.5 0 0 1 0-1zM24 25c.827 0 1.5-.673 1.5-1.5S24.827 22 24 22s-1.5.673-1.5 1.5.673 1.5 1.5 1.5zm0-2a.5.5 0 1 1 0 1 .5.5 0 0 1 0-1zM14 30c.827 0 1.5-.673 1.5-1.5S14.827 27 14 27s-1.5.673-1.5 1.5.673 1.5 1.5 1.5zm0-2a.5.5 0 1 1 0 1 .5.5 0 0 1 0-1zM19 30c.827 0 1.5-.673 1.5-1.5S19.827 27 19 27s-1.5.673-1.5 1.5.673 1.5 1.5 1.5zm0-2a.5.5 0 1 1 0 1 .5.5 0 0 1 0-1zM14 35c.827 0 1.5-.673 1.5-1.5S14.827 32 14 32s-1.5.673-1.5 1.5.673 1.5 1.5 1.5zm0-2a.5.5 0 1 1 0 1 .5.5 0 0 1 0-1zM24 32c-.827 0-1.5.673-1.5 1.5S23.173 35 24 35s1.5-.673 1.5-1.5S24.827 32 24 32zm0 2a.5.5 0 1 1 0-1 .5.5 0 0 1 0 1zM34 30c.827 0 1.5-.673 1.5-1.5S34.827 27 34 27s-1.5.673-1.5 1.5.673 1.5 1.5 1.5zm0-2a.5.5 0 1 1 0 1 .5.5 0 0 1 0-1zM34 25c.827 0 1.5-.673 1.5-1.5S34.827 22 34 22s-1.5.673-1.5 1.5.673 1.5 1.5 1.5zm0-2a.5.5 0 1 1 0 1 .5.5 0 0 1 0-1z" class="color0c0c0c svgShape"></path>
  <path fill="#000000" d="M36 13h-2.5v-1.5c0-.827-.673-1.5-1.5-1.5s-1.5.673-1.5 1.5V13h-13v-1.5c0-.827-.673-1.5-1.5-1.5s-1.5.673-1.5 1.5V13H12a2.503 2.503 0 0 0-2.5 2.5v20c0 1.378 1.122 2.5 2.5 2.5h24c1.378 0 2.5-1.122 2.5-2.5v-20c0-1.378-1.122-2.5-2.5-2.5zm-4.5-1.5a.5.5 0 0 1 1 0v4a.5.5 0 0 1-1 0v-4zm-16 0a.5.5 0 0 1 1 0v4a.5.5 0 0 1-1 0v-4zm-5 4c0-.827.673-1.5 1.5-1.5h2.5v1.5c0 .827.673 1.5 1.5 1.5s1.5-.673 1.5-1.5V14h13v1.5c0 .827.673 1.5 1.5 1.5s1.5-.673 1.5-1.5V14H36c.827 0 1.5.673 1.5 1.5V19h-27v-3.5zm27 20c0 .827-.673 1.5-1.5 1.5H12c-.827 0-1.5-.673-1.5-1.5V20h27v15.5z" class="color0c0c0c svgShape"></path>
  <path fill="#000000" d="M28.293 24.414a.498.498 0 0 0 .708 0L30.414 23a.5.5 0 0 0-.707-.707l-1.061 1.061-.353-.354a.5.5 0 0 0-.707.707l.707.707zM28.293 29.561a.498.498 0 0 0 .708 0l1.414-1.414a.5.5 0 0 0-.707-.707l-1.062 1.06-.354-.354a.5.5 0 0 0-.707.707l.708.708zM23.293 29.561a.498.498 0 0 0 .708 0l1.414-1.414a.5.5 0 0 0-.707-.707l-1.062 1.06-.354-.354a.5.5 0 0 0-.707.707l.708.708zM18.293 34.561a.498.498 0 0 0 .708 0l1.414-1.414a.5.5 0 0 0-.707-.707l-1.062 1.06-.354-.354a.5.5 0 0 0-.707.707l.708.708z" class="color0c0c0c svgShape"></path>
</svg>
