<svg xmlns="http://www.w3.org/2000/svg" viewBox="0 0 48 48" id="chart">
  <path fill="#0c0c0c" d="M24 0C10.767 0 0 10.767 0 24s10.767 24 24 24 24-10.767 24-24S37.233 0 24 0zm0 47C11.318 47 1 36.682 1 24S11.318 1 24 1s23 10.318 23 23-10.318 23-23 23z"></path>
  <path fill="#0c0c0c" d="M37.5 11a.5.5 0 0 0 0-1h-27a.5.5 0 0 0 0 1h.5v15h-.5a.5.5 0 0 0 0 1h3.373l-.833 10h-.54a.5.5 0 0 0 0 1h2a.5.5 0 0 0 0-1h-.457l.25-3h19.414l.25 3H33.5a.5.5 0 0 0 0 1h2a.5.5 0 0 0 0-1h-.54l-.833-10H37.5a.5.5 0 0 0 0-1H37V11h.5zm-3.877 22H14.377l.5-6h18.247l.499 6zM36 26h-1.957l-.045-.542a.499.499 0 1 0-.996.083l.038.459H14.96l.038-.458a.5.5 0 0 0-.996-.083l-.045.541H12V11h24v15z"></path>
  <path fill="#0c0c0c" d="M17.5 23a.496.496 0 0 0 .316-.113l5.197-4.252L24.7 19.9a.5.5 0 0 0 .636-.03L30 15.63v.87a.5.5 0 0 0 1 0v-2c0-.025-.011-.046-.014-.07-.005-.037-.008-.074-.022-.109-.013-.035-.035-.063-.056-.094-.014-.021-.021-.044-.038-.063l-.01-.007c-.027-.028-.06-.047-.093-.068-.022-.014-.042-.034-.065-.044-.026-.012-.057-.014-.085-.021-.035-.008-.068-.02-.104-.021-.005 0-.008-.003-.013-.003h-2a.5.5 0 0 0 0 1h.707l-4.237 3.852L23.3 17.6a.497.497 0 0 0-.616.013l-5.5 4.5A.5.5 0 0 0 17.5 23z"></path>
</svg>
