<svg width="30" height="30" viewBox="0 0 30 30" fill="none" xmlns="http://www.w3.org/2000/svg">
<g clip-path="url(#clip0_805_97)">
<path d="M29.5312 2.27567C29.5312 1.7905 29.3424 1.33417 28.9991 0.991419C28.3126 0.304944 27.1171 0.304944 26.4306 0.991419L15 12.422L3.56941 0.991419C2.88293 0.304944 1.68737 0.304944 1.00089 0.991419C0.657694 1.33417 0.46875 1.79051 0.46875 2.27567C0.46875 2.76079 0.657694 3.21712 1.0009 3.55993L12.4315 14.9905L1.0009 26.4211C0.657694 26.7639 0.46875 27.2202 0.46875 27.7054C0.46875 28.1905 0.657694 28.6468 1.0009 28.9896C1.68738 29.6761 2.88294 29.6761 3.56942 28.9896L15 17.559L26.4306 28.9896C26.7739 29.3328 27.2297 29.5218 27.7148 29.5218C28.2 29.5218 28.6559 29.3328 28.9991 28.9896C29.3424 28.6468 29.5312 28.1905 29.5312 27.7054C29.5312 27.2202 29.3424 26.7639 28.9991 26.4211L17.5685 14.9905L28.9991 3.55993C29.3424 3.21713 29.5312 2.76079 29.5312 2.27567Z" fill="black" fill-opacity="0.49"/>
</g>
<defs>
<clipPath id="clip0_805_97">
<rect width="30" height="30" fill="white"/>
</clipPath>
</defs>
</svg>
