<svg xmlns="http://www.w3.org/2000/svg" viewBox="0 0 512 512" id="collaborative"><path fill="#4fe88e" fill-rule="evenodd" d="m256,48.69c114.494,0,207.31,92.816,207.31,207.31s-92.816,207.31-207.31,207.31S48.69,370.494,48.69,256,141.506,48.69,256,48.69h0Zm0,29.134c-98.404,0-178.176,79.772-178.176,178.176s79.772,178.176,178.176,178.176,178.176-79.772,178.176-178.176-79.772-178.176-178.176-178.176Z"></path><path fill="#fdd7ad" fill-rule="evenodd" d="m355.983,301.789l13.613,7.86c9.865,5.697,22.599,2.284,28.295-7.582,5.697-9.867,2.284-22.6-7.582-28.296l-71.88-41.499-72.439-48.895-18.339-10.588c-14.204-8.2-29.35-10.194-45.19-5.95l-43.696,11.708-3.304-.877-100.589,71.387,44.003,26.623c18.65,25.434,13.335,20.479,37.829,36.168l116.195,65.242,21.477-8.736,17.203,9.933c8.609,4.97,19.72,1.993,24.691-6.616,4.971-8.61,1.993-19.721-6.616-24.691l18.559,10.715c8.609,4.97,19.72,1.993,24.691-6.616,4.963-8.597,1.981-19.727-6.616-24.691l11.619,6.708c8.609,4.971,19.72,1.994,24.691-6.616,4.971-8.609,1.993-19.72-6.616-24.691Z"></path><polygon fill="#009ef9" fill-rule="evenodd" points="78.877 275.681 135.463 177.671 80.158 145.74 10 267.257 65.305 299.188 78.877 275.681"></polygon><path fill="#ffc186" fill-rule="evenodd" d="m179.446,221.796l9.31,16.125c5.106,8.843,15.195,13.139,25.022,10.365l71.408-20.16c11.611-3.278,22.793-1.883,33.244,4.147l71.88,41.499c9.865,5.696,13.278,18.429,7.582,28.296l41.407-31.011-62.761-93.386-67.018-10.831c-15.84-4.244-30.987-2.252-45.188,5.95l-84.885,49.007Z"></path><rect width="63.86" height="140.316" x="407.338" y="152.306" fill="#fb545c" transform="rotate(-30 439.267 222.463)"></rect><path fill="#ffc186" fill-rule="evenodd" d="M166.56 318.927c8.056-8.056 8.056-21.238 0-29.294-8.056-8.056-21.238-8.056-29.293 0l-16.283 16.283c-8.056 8.056-8.056 21.238 0 29.294 8.056 8.056 21.238 8.056 29.294 0l16.283-16.283zM228.95 358.24l-11.72 11.72c-5.798 5.798-5.798 15.286 0 21.084 5.798 5.798 15.285 5.798 21.084 0l11.72-11.72c5.807-5.807 5.789-15.294 0-21.084-5.798-5.798-15.286-5.798-21.084 0z"></path><path fill="#ffc186" fill-rule="evenodd" d="m222.989,364.202c6.477-6.477,6.477-17.075,0-23.552-6.477-6.477-17.075-6.477-23.552,0l-13.092,13.092c-6.477,6.477-6.477,17.075,0,23.552,6.477,6.477,17.075,6.477,23.552,0l13.091-13.092Z"></path><path fill="#ffc186" fill-rule="evenodd" d="m186.345,353.741l9.525-9.525c7.508-7.508,7.508-19.792,0-27.3-7.507-7.508-19.792-7.508-27.299,0l-15.175,15.175c-7.507,7.508-7.507,19.792,0,27.3,7.508,7.507,19.792,7.507,27.3,0l5.649-5.649Z"></path><path fill="#009ef9" fill-rule="evenodd" d="m256,93.257c16.523,0,30-13.476,30-30s-13.476-30-30-30-30,13.477-30,30,13.477,30,30,30Z"></path><path fill="#fb545c" fill-rule="evenodd" d="m256,478.743c16.523,0,30-13.476,30-30s-13.476-30-30-30-30,13.477-30,30,13.477,30,30,30Z"></path><rect width="27.143" height="63.861" x="30.867" y="239.539" fill="#0e82f5" transform="rotate(-60 44.438 271.469)"></rect><rect width="63.861" height="27.143" x="435.632" y="257.898" fill="#d93b43" transform="rotate(-30 467.562 271.469)"></rect><path fill="#242222" fill-rule="evenodd" d="m448.891,290.994l-57.247-99.157-6.912-11.97,44.913-25.927,64.156,111.122-44.91,25.931h0Zm-157.299,163.166c.267-1.767.408-3.573.408-5.414,0-4.102-.699-8.04-1.969-11.719,37.084-6.965,71.67-25.5,98.119-52.739,24.388-25.116,41.154-56.938,48.217-90.984l5.13,8.886c1.112,1.925,3.129,3,5.204,3,1.018,0,2.049-.26,2.991-.806l2.035-1.172c-18.567,76.82-82.16,136.952-160.136,150.949h0Zm-35.592,18.583c-13.234,0-24-10.767-24-23.997s10.766-24.002,24-24.002,24,10.767,24,24.002-10.766,23.997-24,23.997h0ZM60.271,303.21l2.034,1.172c.945.546,1.975.806,2.994.806,2.074,0,4.091-1.075,5.201-3l5.132-8.886c7.062,34.046,23.831,65.868,48.217,90.984,26.449,27.24,61.037,45.774,98.119,52.739-1.27,3.678-1.968,7.617-1.968,11.719,0,1.841.141,3.648.407,5.414-77.973-13.997-141.567-74.128-160.136-150.949h0Zm22.083-149.27l44.911,25.927-6.909,11.97-57.247,99.157-44.913-25.931,64.158-111.122h0ZM220.407,57.841c-.266,1.766-.407,3.577-.407,5.414,0,4.106.7,8.049,1.97,11.723-48.078,8.983-90.576,36.769-118.264,77.428l-14.88-8.591c30.602-45.563,77.886-76.415,131.581-85.975h0Zm35.592-18.583c13.234,0,24,10.763,24,23.997s-10.766,24.002-24,24.002-24-10.767-24-24.002,10.766-23.997,24-23.997h0Zm119.385,132.15l22.481-12.979c-26.668-38.734-67.758-64.837-114.039-72.357-6.608,8.045-16.628,13.186-27.826,13.186s-21.217-5.141-27.824-13.186c-46.284,7.52-87.373,33.623-114.041,72.357l23.639,13.649.986.26,42.151-11.296c17.4-4.661,34.138-2.458,49.742,6.551l15.339,8.855,15.338-8.855c15.509-8.956,32.142-11.186,49.441-6.63l64.614,10.446h0Zm49.879,102.663l-32.944-57.061-19.553-33.87-64.204-10.375c-.201-.035-.401-.079-.596-.128-14.22-3.811-27.891-2.013-40.636,5.348l-79.688,46.007,6.309,10.93c3.781,6.542,11.091,9.591,18.197,7.591l71.407-20.164c13.188-3.718,25.895-2.15,37.77,4.674.034.018.071.031.105.053l71.88,41.501c6.159,3.555,10.572,9.318,12.422,16.226.301,1.123.521,2.256.676,3.388l18.856-14.12h0Zm-203.791,100.13c-1.671,1.674-2.59,3.912-2.59,6.3s.919,4.63,2.59,6.3c1.671,1.67,3.91,2.59,6.301,2.59s4.627-.921,6.299-2.59l11.719-11.719c1.671-1.674,2.592-3.908,2.592-6.3s-.921-4.63-2.592-6.3c-1.736-1.736-4.016-2.608-6.298-2.608s-4.564.872-6.301,2.608l-11.72,11.719h0Zm-30.885-16.217c-4.155,4.154-4.155,10.912,0,15.067,4.153,4.15,10.912,4.15,15.066,0l13.093-13.093c1.998-2,3.099-4.674,3.099-7.534s-1.101-5.534-3.101-7.534c-1.999-2-4.674-3.101-7.533-3.101s-5.534,1.101-7.534,3.101l-13.091,13.094h0Zm-32.949-21.649c-2.499,2.498-3.874,5.837-3.874,9.406s1.375,6.908,3.874,9.406c2.497,2.498,5.839,3.872,9.406,3.872s6.91-1.374,9.407-3.872l15.175-15.173c5.187-5.185,5.187-13.627,0-18.816-2.592-2.591-5.999-3.89-9.407-3.89s-6.813,1.3-9.407,3.89l-15.175,15.177h0Zm-32.414-26.178c-5.736,5.74-5.736,15.072,0,20.807,5.739,5.74,15.073,5.74,20.809,0l16.284-16.283c5.736-5.736,5.736-15.067,0-20.807-2.764-2.762-6.458-4.282-10.404-4.282s-7.641,1.52-10.405,4.282l-16.283,16.283h0Zm49.026-85.363c-.797-1.374-1.012-3.014-.601-4.551.413-1.537,1.418-2.85,2.797-3.643l57.544-33.223-9.338-5.392c-12.748-7.357-26.422-9.159-40.638-5.348l-43.695,11.706c-.619.167-1.261.229-1.895.194l-52.399,90.759c1.225,1.683,2.332,3.212,3.346,4.613q10.062,13.891,23.702,22.53c.603.379,1.238.78,1.892,1.194.552-.674,1.144-1.326,1.774-1.956l16.284-16.287c10.416-10.415,27.363-10.415,37.778,0,5.526,5.529,8.121,12.891,7.782,20.147,7.63-1.101,15.671,1.278,21.529,7.137,4.818,4.82,7.276,11.115,7.388,17.442,1.219-.198,2.454-.322,3.712-.322,6.065,0,11.752,2.348,16.019,6.617,3.388,3.383,5.543,7.675,6.297,12.336,7.118-2.106,15.142-.357,20.749,5.251,2.953,2.952,4.912,6.644,5.705,10.666l14.599,8.428c2.776,1.604,6.027,2.022,9.157,1.185,3.129-.837,5.734-2.828,7.338-5.604,1.602-2.776,2.023-6.031,1.184-9.159-.838-3.128-2.829-5.736-5.605-7.335t-.002-.005l-43.402-25.055c-2.869-1.661-3.853-5.326-2.196-8.199,1.657-2.873,5.326-3.855,8.195-2.194l61.964,35.773c2.774,1.604,6.027,2.022,9.158,1.185,3.13-.837,5.736-2.828,7.338-5.604,3.328-5.767,1.347-13.16-4.414-16.49l-.006-.004s-.004-.005-.007-.009l-57.271-33.064c-2.871-1.656-3.853-5.326-2.196-8.194,1.655-2.868,5.326-3.855,8.195-2.198l57.28,33.073,11.618,6.705c5.769,3.331,13.167,1.348,16.495-4.419,3.325-5.758,1.351-13.146-4.4-16.481l-65.7-37.937c-2.87-1.656-3.853-5.322-2.196-8.194,1.657-2.868,5.326-3.85,8.197-2.194l65.676,37.914s.002.005.003.005c.005,0,.009.005.013.009l13.602,7.851c7.025,4.058,16.043,1.639,20.099-5.384.002-.005.004-.009.005-.013,1.95-3.379,2.461-7.34,1.441-11.146-1.022-3.811-3.447-6.987-6.831-8.939l-71.832-41.474c-.016-.009-.034-.018-.05-.026-8.993-5.19-18.619-6.392-28.612-3.569l-71.408,20.16c-12.48,3.52-25.275-1.758-31.848-13.142l-9.31-16.124h0Zm81.749,187.947c11.203,0,21.226,5.146,27.833,13.195,71.391-11.582,127.432-66.414,141.134-136.653l-22.586,16.918c-5.063,7.842-13.654,12.217-22.474,12.217-2.986,0-5.992-.511-8.901-1.546.108,4.282-.919,8.639-3.211,12.609-4.453,7.714-12.564,12.032-20.89,12.032-1.876,0-3.762-.229-5.623-.679.234,4.48-.774,9.076-3.18,13.243-3.207,5.556-8.4,9.529-14.625,11.199-2.086.56-4.203.837-6.302.837-4.166,0-8.271-1.093-11.961-3.22l-.533-.308c.022,4.207-1.062,8.357-3.215,12.089-3.204,5.551-8.398,9.525-14.624,11.195-2.086.559-4.201.837-6.302.837-4.164,0-8.269-1.088-11.958-3.22l-10.162-5.868c-1.017,2.185-2.394,4.203-4.143,5.952l-11.719,11.719c-3.938,3.938-9.188,6.106-14.785,6.106s-10.849-2.168-14.785-6.106c-2.6-2.599-4.409-5.776-5.35-9.243-3.012,1.392-6.261,2.115-9.517,2.115-5.801,0-11.603-2.207-16.02-6.622-3.411-3.41-5.488-7.648-6.266-12.076-2.772,1.022-5.737,1.56-8.791,1.56-6.773,0-13.127-2.626-17.892-7.388-4.574-4.573-7.168-10.617-7.368-17.085-2.022.476-4.089.718-6.154.718-6.843,0-13.681-2.604-18.891-7.811-6.767-6.771-9.131-16.292-7.106-24.989-1.055-.674-2.051-1.304-2.981-1.894-9.331-5.908-13.158-8.393-17.266-12.944,16.953,65.234,70.934,115.303,138.78,126.308,6.608-8.049,16.629-13.195,27.832-13.195h0Zm167.175-268.926l-14.881,8.591c-27.688-40.659-70.187-68.445-118.264-77.428,1.27-3.674,1.97-7.617,1.97-11.723,0-1.837-.139-3.648-.408-5.414,53.695,9.56,100.979,40.412,131.583,85.975h0Zm84.02,120.44l-70.156-121.515c-.329-.568-.738-1.057-1.201-1.471-33.534-52.475-87.562-87.411-148.861-96.324-6.278-10.578-17.81-17.689-30.977-17.689s-24.698,7.111-30.976,17.689c-61.296,8.913-115.328,43.849-148.861,96.324-.464.414-.872.903-1.201,1.471L4.804,264.256c-.795,1.379-1.01,3.018-.599,4.556.411,1.538,1.418,2.846,2.795,3.643l39.282,22.68c8.119,43.844,29.438,83.402,61.79,114.55,32.377,31.169,72.761,50.968,116.959,57.382,6.278,10.573,17.808,17.675,30.968,17.675s24.69-7.102,30.97-17.675c44.198-6.414,84.581-26.213,116.96-57.382,32.35-31.148,53.671-70.706,61.786-114.55l39.28-22.68c2.873-1.657,3.855-5.326,2.199-8.199Z"></path></svg>