<svg width="30" height="30" viewBox="0 0 30 30" fill="none" xmlns="http://www.w3.org/2000/svg">
<g clip-path="url(#clip0_556_82)">
<path d="M15 2.34375C12.4968 2.34375 10.0499 3.08603 7.96857 4.47671C5.88726 5.8674 4.26508 7.84404 3.30716 10.1567C2.34923 12.4693 2.0986 15.014 2.58694 17.4691C3.07529 19.9242 4.28068 22.1793 6.05069 23.9493C7.82069 25.7193 10.0758 26.9247 12.5309 27.4131C14.986 27.9014 17.5307 27.6508 19.8433 26.6929C22.156 25.7349 24.1326 24.1127 25.5233 22.0314C26.914 19.9501 27.6563 17.5032 27.6563 15C27.6525 11.6445 26.3178 8.42756 23.9451 6.05488C21.5724 3.68219 18.3555 2.34755 15 2.34375ZM15 25.3125C12.9604 25.3125 10.9666 24.7077 9.27069 23.5745C7.57481 22.4414 6.25303 20.8308 5.4725 18.9464C4.69197 17.0621 4.48775 14.9886 4.88566 12.9881C5.28357 10.9877 6.26574 9.15019 7.70797 7.70796C9.1502 6.26573 10.9877 5.28356 12.9881 4.88565C14.9886 4.48774 17.0621 4.69196 18.9464 5.47249C20.8308 6.25302 22.4414 7.5748 23.5745 9.27068C24.7077 10.9666 25.3125 12.9604 25.3125 15C25.3094 17.7341 24.2219 20.3553 22.2886 22.2886C20.3553 24.2219 17.7341 25.3094 15 25.3125ZM15 6.5625C13.3312 6.5625 11.6999 7.05735 10.3124 7.98448C8.92484 8.9116 7.84339 10.2294 7.20477 11.7711C6.56616 13.3129 6.39907 15.0094 6.72463 16.6461C7.05019 18.2828 7.85379 19.7862 9.03379 20.9662C10.2138 22.1462 11.7172 22.9498 13.3539 23.2754C14.9906 23.6009 16.6871 23.4338 18.2289 22.7952C19.7706 22.1566 21.0884 21.0752 22.0155 19.6876C22.9427 18.3001 23.4375 16.6688 23.4375 15C23.435 12.763 22.5452 10.6184 20.9634 9.03657C19.3816 7.45478 17.237 6.56502 15 6.5625ZM15.0003 18.7494C15.5829 18.7516 16.1579 18.6171 16.679 18.3566C17.2001 18.096 17.6528 17.7168 18.0006 17.2495C18.1504 17.0517 18.3724 16.9213 18.618 16.8869C18.8637 16.8525 19.113 16.9168 19.3113 17.0658C19.5096 17.2149 19.6408 17.4364 19.6761 17.6819C19.7114 17.9275 19.6479 18.177 19.4996 18.3758C18.791 19.3199 17.8034 20.0172 16.6766 20.3689C15.5498 20.7206 14.3409 20.7089 13.2211 20.3354C12.1013 19.962 11.1274 19.2457 10.4372 18.288C9.74709 17.3303 9.37573 16.1798 9.37573 14.9994C9.37573 13.819 9.74709 12.6685 10.4372 11.7108C11.1274 10.7531 12.1013 10.0368 13.2211 9.66337C14.3409 9.2899 15.5498 9.27819 16.6766 9.62988C17.8034 9.98157 18.791 10.6788 19.4996 11.623C19.6479 11.8218 19.7113 12.0713 19.676 12.3168C19.6407 12.5624 19.5096 12.7839 19.3113 12.9329C19.113 13.0819 18.8637 13.1463 18.618 13.1119C18.3724 13.0775 18.1504 12.9471 18.0006 12.7493C17.6171 12.2379 17.1092 11.8331 16.5252 11.5732C15.9412 11.3133 15.3005 11.207 14.6638 11.2643C14.0272 11.3217 13.4158 11.5409 12.8876 11.901C12.3595 12.2612 11.9322 12.7504 11.6463 13.3221C11.3604 13.8938 11.2254 14.5292 11.2541 15.1677C11.2829 15.8063 11.4743 16.427 11.8104 16.9708C12.1464 17.5145 12.6159 17.9634 13.1742 18.2747C13.7325 18.586 14.3611 18.7494 15.0003 18.7494Z" fill="black"/>
</g>
<defs>
<clipPath id="clip0_556_82">
<rect width="30" height="30" fill="white"/>
</clipPath>
</defs>
</svg>
