<svg xmlns="http://www.w3.org/2000/svg" viewBox="0 0 512 512" id="crisis-management"><path fill="#fe646f" fill-rule="evenodd" d="M347.061 438.753H495.28c4.821 0 8.765 3.944 8.765 8.765v47.719c0 4.821-3.944 8.765-8.765 8.765H347.061c-4.821 0-8.765-3.944-8.765-8.765v-47.719c0-4.822 3.944-8.765 8.765-8.765z" clip-rule="evenodd"></path><path fill="#fd4755" fill-rule="evenodd" d="M494.045 438.753h1.235c4.821 0 8.765 3.944 8.765 8.765v47.719c0 4.821-3.944 8.765-8.765 8.765H347.061c-4.821 0-8.765-3.944-8.765-8.765v-1.235H485.28c4.821 0 8.765-3.944 8.765-8.765v-46.484z" clip-rule="evenodd"></path><path fill="#f2d1a5" fill-rule="evenodd" d="M347.061 331.065H495.28c4.821 0 8.765 3.944 8.765 8.765v47.72c0 4.821-3.944 8.765-8.765 8.765H347.061c-4.821 0-8.765-3.944-8.765-8.765v-47.72c0-4.821 3.944-8.765 8.765-8.765z" clip-rule="evenodd"></path><path fill="#ecba78" fill-rule="evenodd" d="M494.045 331.065h1.235c4.821 0 8.765 3.944 8.765 8.765v47.72c0 4.821-3.944 8.765-8.765 8.765H347.061c-4.821 0-8.765-3.944-8.765-8.765v-1.235H485.28c4.821 0 8.765-3.944 8.765-8.765v-46.485z" clip-rule="evenodd"></path><path fill="#6cf5c2" fill-rule="evenodd" d="M347.061 223.378H495.28c4.821 0 8.765 3.944 8.765 8.765v47.719c0 4.821-3.944 8.765-8.765 8.765H347.061c-4.821 0-8.765-3.944-8.765-8.765v-47.719c0-4.821 3.944-8.765 8.765-8.765z" clip-rule="evenodd"></path><path fill="#00e499" fill-rule="evenodd" d="M494.045 223.378h1.235c4.821 0 8.765 3.944 8.765 8.765v47.719c0 4.821-3.944 8.765-8.765 8.765H347.061c-4.821 0-8.765-3.944-8.765-8.765v-1.235H485.28c4.821 0 8.765-3.944 8.765-8.765v-46.484z" clip-rule="evenodd"></path><g fill-rule="evenodd" clip-rule="evenodd"><path fill="#ffe177" d="M347.061 115.69H495.28c4.821 0 8.765 3.944 8.765 8.765v47.72c0 4.821-3.944 8.765-8.765 8.765H347.061c-4.821 0-8.765-3.944-8.765-8.765v-47.72c0-4.821 3.944-8.765 8.765-8.765z"></path><path fill="#ffd064" d="M494.045 115.69h1.235c4.821 0 8.765 3.944 8.765 8.765v47.72c0 4.821-3.944 8.765-8.765 8.765H347.061c-4.821 0-8.765-3.944-8.765-8.765v-1.235H485.28c4.821 0 8.765-3.944 8.765-8.765V115.69z"></path></g><g fill-rule="evenodd" clip-rule="evenodd"><path fill="#8ac9fe" d="M347.061 8.002H495.28c4.821 0 8.765 3.944 8.765 8.765v47.719c0 4.821-3.944 8.765-8.765 8.765H347.061c-4.821 0-8.765-3.944-8.765-8.765V16.767c0-4.821 3.944-8.765 8.765-8.765z"></path><path fill="#60b7ff" d="M494.045 8.002h1.235c4.821 0 8.765 3.944 8.765 8.765v47.719c0 4.821-3.944 8.765-8.765 8.765H347.061c-4.821 0-8.765-3.944-8.765-8.765v-1.235H485.28c4.821 0 8.765-3.944 8.765-8.765V8.002z"></path></g><g fill-rule="evenodd" clip-rule="evenodd"><path fill="#fe646f" d="m164.366 142.414 84.412 146.205c6.94 12.021 6.94 26.527 0 38.547-6.94 12.02-19.503 19.274-33.383 19.274H46.571c-13.88 0-26.443-7.253-33.383-19.274-6.94-12.02-6.94-26.527 0-38.547L97.6 142.414c6.94-12.02 19.503-19.274 33.383-19.274 13.88.001 26.443 7.254 33.383 19.274z"></path><path fill="#fd4755" d="m164.366 142.414 84.412 146.205c6.94 12.021 6.94 26.527 0 38.547-6.94 12.02-19.503 19.274-33.383 19.274h-10.029c13.88 0 26.443-7.253 33.383-19.274 6.94-12.02 6.94-26.527 0-38.547l-84.412-146.205c-6.093-10.554-16.521-17.432-28.368-18.953a39.45 39.45 0 0 1 5.014-.32c13.88 0 26.443 7.253 33.383 19.273z"></path><path fill="#ffe177" d="m146.964 152.461 84.412 146.205c3.35 5.804 3.35 12.65 0 18.453-3.351 5.804-9.279 9.226-15.981 9.226H46.571c-6.701 0-12.63-3.423-15.981-9.226-3.351-5.804-3.351-12.65 0-18.453l84.412-146.205c3.351-5.804 9.279-9.226 15.981-9.226s12.63 3.423 15.981 9.226z"></path><path fill="#ffd064" d="M56.6 326.346H46.571c-6.701 0-12.63-3.423-15.981-9.226-3.351-5.804-3.351-12.65 0-18.453l84.412-146.206c3.351-5.804 9.279-9.226 15.98-9.226 1.734 0 3.415.23 5.014.67-4.582 1.261-8.482 4.254-10.966 8.556L40.619 298.667c-3.351 5.803-3.351 12.649 0 18.453 3.351 5.803 9.28 9.226 15.981 9.226z"></path><path fill="#fe646f" d="M130.983 270.181c-5.658.001-10.305-4.481-10.509-10.136l-2.658-73.605c-.107-2.961.883-5.547 2.94-7.679 2.057-2.132 4.606-3.215 7.568-3.215h5.316c2.963 0 5.512 1.083 7.568 3.215 2.057 2.132 3.047 4.719 2.94 7.679l-2.658 73.605c-.203 5.655-4.848 10.136-10.507 10.136z"></path><path fill="#fd4755" d="M130.983 270.181c-1.115 0-2.19-.174-3.2-.497 4.117-1.315 7.145-5.098 7.309-9.639l2.658-73.605c.107-2.961-.884-5.547-2.94-7.679-1.93-2.001-4.295-3.078-7.027-3.203.179-.008.359-.012.541-.012h5.316c2.963 0 5.512 1.083 7.568 3.215 2.057 2.132 3.047 4.719 2.94 7.679l-2.658 73.605c-.203 5.655-4.848 10.136-10.507 10.136z"></path><path fill="#fe646f" d="M130.983 285.797c7.123 0 12.897 5.775 12.897 12.898 0 7.123-5.775 12.897-12.897 12.897-7.123 0-12.898-5.775-12.898-12.897.001-7.123 5.775-12.898 12.898-12.898z"></path><path fill="#fd4755" d="M130.983 285.797c7.123 0 12.897 5.774 12.897 12.898 0 7.123-5.775 12.897-12.897 12.897-1.056 0-2.081-.128-3.064-.367 5.644-1.375 9.834-6.463 9.834-12.53 0-6.068-4.19-11.155-9.834-12.531a12.949 12.949 0 0 1 3.064-.367z"></path></g><path fill-rule="evenodd" d="M133.529 186.761h-5.142c-.66 0-1.038.151-1.463.628-.472.491-.613.863-.613 1.533l2.548 70.597c.047 1.132.991 2.01 2.123 2.01a2.1 2.1 0 0 0 2.076-2.01l2.548-70.597c0-.67-.141-1.043-.613-1.533-.473-.477-.804-.628-1.464-.628zm-5.142-15.997h5.142c5.001 0 9.483 1.906 12.974 5.524 3.491 3.614 5.237 8.181 5.095 13.21L149.05 260.1c-.377 9.78-8.303 17.432-18.069 17.432a18.051 18.051 0 0 1-18.116-17.432l-2.548-70.602c-.189-5.029 1.604-9.596 5.095-13.21 3.444-3.619 7.974-5.524 12.975-5.524zm7.501 134.758c0-2.712-2.217-4.921-4.906-4.921-2.736 0-4.953 2.208-4.953 4.921 0 2.708 2.217 4.921 4.953 4.921 2.688 0 4.906-2.213 4.906-4.921zm15.993 0c0 11.54-9.388 20.919-20.9 20.919-11.559 0-20.947-9.379-20.947-20.919 0-11.539 9.388-20.923 20.947-20.923 11.512 0 20.9 9.384 20.9 20.923zM346.254 64.481c0 .401.377.769.802.769h148.186c.425 0 .755-.368.755-.769v-47.72c0-.401-.33-.76-.755-.76H347.056c-.425 0-.802.359-.802.76v47.72zM130.981 131.2c10.992 0 20.9 5.699 26.42 15.262l84.354 146.129c5.52 9.558 5.52 20.971 0 30.529-5.52 9.563-15.38 15.262-26.419 15.262H46.58c-11.039 0-20.899-5.699-26.419-15.262-5.52-9.558-5.52-20.971 0-30.529l84.354-146.129c5.519-9.563 15.427-15.262 26.466-15.262zm215.273 40.969c0 .401.377.774.802.774h148.186c.425 0 .755-.373.755-.774v-47.716a.768.768 0 0 0-.755-.764H347.056c-.425 0-.802.363-.802.764v47.716zm0 107.693c0 .396.377.769.802.769h148.186c.425 0 .755-.373.755-.769v-47.72a.764.764 0 0 0-.755-.759H347.056c-.425 0-.802.359-.802.759v47.72zm0 107.689c0 .401.377.759.802.759h148.186a.764.764 0 0 0 .755-.759v-47.72c0-.401-.33-.769-.755-.769H347.056c-.425 0-.802.368-.802.769v47.72zm0 107.688c0 .401.377.764.802.764h148.186a.768.768 0 0 0 .755-.764v-47.72c0-.396-.33-.769-.755-.769H347.056c-.425 0-.802.373-.802.769v47.72zM330.261 64.481V48.629H138.954v67.261c13.493 2.302 25.24 10.36 32.317 22.57l27.646 47.952 22.362-41.861a7.966 7.966 0 0 1 7.03-4.242H330.26v-15.856c0-9.242 7.548-16.762 16.795-16.762h148.186c9.247 0 16.795 7.52 16.795 16.762v47.716c0 9.252-7.548 16.772-16.795 16.772H347.056c-9.247 0-16.795-7.52-16.795-16.772v-15.857h-97.139l-24.768 46.419 26.137 45.267h95.771v-15.856c0-9.242 7.548-16.762 16.795-16.762h148.186c9.247 0 16.795 7.52 16.795 16.762v47.72c0 9.237-7.548 16.767-16.795 16.767H347.056c-9.247 0-16.795-7.53-16.795-16.767v-15.861h-86.524l11.889 20.588c8.398 14.573 8.398 31.963 0 46.532-6.133 10.629-15.852 18.107-27.175 21.391l3.208 3.18h98.602V339.83c0-9.252 7.548-16.767 16.795-16.767h148.186c9.247 0 16.795 7.516 16.795 16.767v47.72c0 9.242-7.548 16.758-16.795 16.758H347.056c-9.247 0-16.795-7.516-16.795-16.758v-15.861H228.309c-2.076 0-4.152-.849-5.614-2.349l-15.002-14.96h-68.738v109h191.306v-15.861c0-9.247 7.548-16.767 16.795-16.767h148.186c9.247 0 16.795 7.52 16.795 16.767v47.72c0 9.242-7.548 16.762-16.795 16.762H347.056c-9.247 0-16.795-7.52-16.795-16.762v-15.856h-199.28c-4.435 0-8.02-3.59-8.02-8.001V354.38H46.58c-16.795 0-31.892-8.7-40.29-23.259-8.398-14.569-8.398-31.958 0-46.532L90.644 138.46c7.077-12.21 18.777-20.268 32.317-22.57V40.632c0-4.421 3.586-8.001 8.02-8.001h199.28v-15.87c0-9.242 7.548-16.758 16.795-16.758h148.186c9.247 0 16.795 7.516 16.795 16.758v47.72c0 9.252-7.548 16.772-16.795 16.772H347.056c-9.247 0-16.795-7.52-16.795-16.772zm48.121 414.901c-4.387 0-7.973-3.59-7.973-8.001 0-4.421 3.586-8.001 7.973-8.001h85.486c4.434 0 8.02 3.581 8.02 8.001 0 4.411-3.586 8.001-8.02 8.001h-85.486zm0-107.693c-4.387 0-7.973-3.581-7.973-7.997 0-4.42 3.586-8.001 7.973-8.001h85.486c4.434 0 8.02 3.581 8.02 8.001 0 4.416-3.586 7.997-8.02 7.997h-85.486zm0-107.688c-4.387 0-7.973-3.581-7.973-8.001 0-4.421 3.586-8.002 7.973-8.002h85.486c4.434 0 8.02 3.581 8.02 8.002 0 4.42-3.586 8.001-8.02 8.001h-85.486zm0-107.688c-4.387 0-7.973-3.581-7.973-8.001 0-4.411 3.586-8.001 7.973-8.001h85.486c4.434 0 8.02 3.59 8.02 8.001 0 4.421-3.586 8.001-8.02 8.001h-85.486zm-7.973-115.681c0-4.421 3.586-8.001 7.973-8.001h85.486c4.434 0 8.02 3.581 8.02 8.001 0 4.411-3.586 7.997-8.02 7.997h-85.486c-4.387 0-7.973-3.585-7.973-7.997z" clip-rule="evenodd"></path></svg>