<svg width="20" height="10" viewBox="0 0 20 10" fill="none" xmlns="http://www.w3.org/2000/svg">
<path fill-rule="evenodd" clip-rule="evenodd" d="M0.292484 0.333194C-0.097496 0.701369 -0.097496 1.29681 0.292484 1.66408L8.55607 9.44849C8.73822 9.62274 8.95746 9.76149 9.20044 9.8563C9.44342 9.95111 9.70508 10 9.9695 10C10.2339 10 10.4956 9.95111 10.7386 9.8563C10.9815 9.76149 11.2008 9.62274 11.3829 9.44849L19.7075 1.60772C19.8935 1.42977 19.9981 1.19412 20 0.948616C20.0018 0.703118 19.9008 0.46618 19.7175 0.285922C19.627 0.196625 19.5172 0.125176 19.3951 0.0759987C19.273 0.0268217 19.141 0.000963866 19.0074 2.64361e-05C18.8738 -0.000910993 18.7415 0.023092 18.6185 0.0705489C18.4956 0.118006 18.3846 0.187906 18.2926 0.275922L10.676 7.45216C10.5849 7.53935 10.4752 7.60879 10.3537 7.65624C10.2322 7.70369 10.1013 7.72815 9.969 7.72815C9.83673 7.72815 9.70584 7.70369 9.5843 7.65624C9.46276 7.60879 9.35312 7.53935 9.26203 7.45216L1.70541 0.333194C1.61442 0.246023 1.50486 0.176604 1.3834 0.129166C1.26194 0.0817286 1.13114 0.0572647 0.99895 0.0572647C0.86676 0.0572647 0.735953 0.0817286 0.614497 0.129166C0.493042 0.176604 0.38348 0.246023 0.292484 0.333194Z" fill="white"/>
</svg>
