<svg xmlns="http://www.w3.org/2000/svg" viewBox="0 0 96 96" id="Expertsadvice">
  <path fill="none" stroke="#000000" stroke-linecap="round" stroke-linejoin="round" stroke-miterlimit="10" d="M49.5 38.5h3v5h-3zm3-6h3v11h-3zm6 2h3v9h-3zm3-9h3v18h-3zm6-3h3v21h-3zm3 4h3v17h-3zm5 17h-30m23 3h-16m16 10h-15m15-2h-15m15 8h-15m15-2h-15m15 6h-15m15 2h-15m-7-39.9v-6.1m0 22V34m-18 27.5v12" class="colorStroke000000 svgStroke"></path>
  <circle cx="29" cy="32" r="5.5" fill="none" stroke="#000000" stroke-linecap="round" stroke-linejoin="round" stroke-miterlimit="10" class="colorStroke000000 svgStroke"></circle>
  <path fill="none" stroke="#000000" stroke-linecap="round" stroke-linejoin="round" stroke-miterlimit="10" d="M47.5 53.5h3v3h-3zm0 6h3v3h-3zm0 6h3v3h-3zm.7-36.5c-.7-.5-1.7-.5-2.3.1L34.6 40.5H24.5c-2.2 0-4 1.8-4 4v12c0 1.1.9 2 2 2 .6 0 1 .4 1.1 1l.8 12.1c.1 1.1.9 1.9 2 1.9h4.3c1.1 0 1.9-.8 2-1.9l.8-12.1c0-.6.5-1 1.1-1 1.1 0 2-.9 2-2v-9.3l12-15.9c.5-.7.3-1.8-.4-2.3z" class="colorStroke000000 svgStroke"></path>
  <path fill="none" stroke="#000000" stroke-linecap="round" stroke-linejoin="round" stroke-miterlimit="10" d="m29 47.5-2.5-7h5z" class="colorStroke000000 svgStroke"></path>
  <path d="M48 96C21.5 96 0 74.5 0 48S21.5 0 48 0s48 21.5 48 48-21.5 48-48 48zm0-95C22.1 1 1 22.1 1 48s21.1 47 47 47 47-21.1 47-47S73.9 1 48 1z" fill="#000000" class="color000000 svgShape"></path>
</svg>
