<?xml version="1.0" encoding="UTF-8"?>
<svg id="Layer_1" data-name="Layer 1" xmlns="http://www.w3.org/2000/svg" viewBox="0 0 500.67 400">
  <defs>
    <style>
      .cls-1 {
        fill: #fff;
      }

      .cls-2 {
        fill: none;
      }

      .cls-3 {
        fill: #facb00;
      }
    </style>
  </defs>
  <rect class="cls-2" x="0" y="-27.4" width="500.67" height="400"/>
  <g>
    <circle class="cls-3" cx="250.33" cy="200" r="192.72"/>
    <g>
      <path class="cls-1" d="M362.32,253.25c.45-.28,.77-.76,1.14-1.16,.24-.27,.68-.59,.69-.82l-2.16,2.16c.11-.06,.23-.11,.33-.18Z"/>
      <g>
        <path class="cls-1" d="M335.6,212.09c.21,.09,.52-.08,.79-.13,.09-.15,.19-.29,.28-.44-.4-.25-.9-.43-1.2-.78-.41-.49-.85-.97-1.25-1.47l-2.54,2.54c1.31-.34,2.6-.29,3.92,.28Z"/>
        <path class="cls-1" d="M332.62,118.83c-.37-1.83-.34-3.74-.56-5.61L191.81,253.47s.08,.04,.11,.05c1.16,.56,2.4,1.01,3.43,1.75,.23,.16,.45,.27,.66,.36L332.66,118.97s-.03-.09-.04-.14Z"/>
        <path class="cls-1" d="M365.95,219.52c-.75,.02-1.48,.37-2.22,.57,0,.18-.02,.35-.03,.53,.41,.23,.87,.4,1.23,.7,.07,.06,.14,.14,.21,.24l2.05-2.05c-.41,0-.82,0-1.23,.01Z"/>
        <path class="cls-1" d="M336.2,126.12c-.3-.38-.67-.9-.63-1.32,.09-.89-.23-1.53-.68-2.14L205.5,252.05c1.11-.35,2.19-.76,3.17-1.6,1.16-.99,2.87-1.33,4.33-1.98,1.19-.53,2.37-1.07,3.65-1.21l120.34-120.34c-.28-.26-.55-.52-.78-.81Z"/>
        <path class="cls-1" d="M335.52,152.86c.12-1.24,.49-2.47,.48-3.71-.01-1.01-.02-2.02-.02-3.03l-95.87,95.87c.15-.09,.3-.16,.45-.28,.05-.04,.16,0,.25,0,1.14,.05,2.3,.26,3.42,.11,.86-.12,1.65-.1,2.39,.04l88.91-88.91s0-.05,0-.08Z"/>
        <path class="cls-1" d="M319.63,179.61c-.08-1.25-.28-2.84,.36-3.7,.85-1.16,1.84-2.15,2.11-3.62l-71.65,71.65c1.08,.92,2.27,1.67,2.93,3.04,.04,.08,.1,.15,.19,.21l66.36-66.36c-.14-.4-.26-.8-.29-1.21Z"/>
        <path class="cls-1" d="M336.91,134.97c.19-.92,.39-1.87,.7-2.75l-111.41,111.41c.13-.03,.26-.07,.4-.1,2.24-.58,4.69-.36,6.94-.87l102.67-102.67c.14-1.68,.36-3.35,.71-5.01Z"/>
        <path class="cls-1" d="M367.72,249.59c1.45,.35,3.02-.08,4.34,1.12,.13,.12,.28,.21,.42,.32l29.78-29.78c-.69-.02-1.39-.04-2.06,.05-2.29,.31-.71-1.58-1.32-2.31-.12-.15-.21-.3-.27-.45l-31.01,31.01s.09,.02,.12,.03Z"/>
        <path class="cls-1" d="M324.22,111.03c-.38-.37-.77-.73-1.16-1.09L181.21,251.78c2.16,1.47,4.2,1.83,6.36,0L330.71,108.64l.49,.49c-.06-.23-.11-.46-.17-.7-1.86,.51-3.32,1.29-4.52,2.51-.78,.79-1.42,.95-2.3,.08Z"/>
        <path class="cls-1" d="M405.39,250.19c.17-.06,.3-.31,.42-.48,1.02-1.46,1.33-1.46,2.53-.18,.33,.35,.89,.66,1.35,.69,.16,0,.32,0,.49-.03l11.13-11.13c-.08-.37-.01-.8,.28-1.34,.12-.23-.23-.83-.51-1.13-.28-.3-.85-.34-1.08-.66-.27-.37-.56-.73-.85-1.06l-16.04,16.04c.77-.23,1.53-.46,2.29-.72Z"/>
        <path class="cls-1" d="M412.81,228.91l-26.76,26.76c.26-.04,.52-.07,.76-.03,1.11,.2,2.19,.6,3.27,.94,.61,.19,1.09,.19,1.41,0l.25-.25c.15-.22,.23-.52,.23-.93-.02-2.33,1.92-2.94,2.89-3.98,.48,.17,.9,.33,1.3,.49l19.25-19.25c-.1-.05-.2-.09-.3-.1-.95-.07-1.35-.43-1.35-1.34,0-.11-.11-.22-.17-.31-.39-.1-.75-.2-1.26-.33,.17-.6,.27-1.14,.47-1.64,0,0,0-.02,0-.03Z"/>
        <path class="cls-1" d="M375.97,253.58c.35,1.68,.7,1.79,2.42,1.34,.66-.17,1.47,.08,2.18,.3l29.2-29.2c-.13-.2-.42-.4-.64-.43-1.1-.19-2.22-.27-3.33-.43-.47-.07-.83-.22-1.1-.42l-28.75,28.75s.01,.06,.02,.09Z"/>
        <path class="cls-1" d="M356.52,275.2c-.07-.74-.14-1.63,.18-2.24,.09-.16,.18-.32,.27-.48l-51.98,51.98c.17,.3,.34,.62,.56,.98,.97,.52,2.05,1.09,2.65,2.17l48.11-48.11c.28-1.4,.36-2.82,.21-4.29Z"/>
        <path class="cls-1" d="M360.68,260.9c.59-.88,.53-1.7,.09-2.67-.21-.47-.31-.99-.37-1.47l-61.55,61.55c.03,.05,.08,.1,.11,.16,.39,.68,.33,1.46,1.4,1.45,.24,0,.5,.3,.72,.5,.35,.33,.69,.66,1.04,.98l58.41-58.41c-.33-.81-.3-1.42,.16-2.1Z"/>
        <path class="cls-1" d="M399.66,210.81c-.8-1.06-1.63-2.09-2.45-3.13l-104.37,104.37c.42,.04,.88-.01,1.31,.05,.21,.03,.38,.32,.57,.49-.25,.09-.51,.28-.75,.26-.45-.04-.9-.19-1.35-.3-.08,.17-.16,.34-.25,.5,1.17,.76,2.4,1.46,3.51,2.3l103.93-103.93c-.01-.24-.03-.47-.15-.62Z"/>
        <path class="cls-1" d="M389.18,205.05c-.58-.2-1.2-.89-1.62,.3-.1,.29-.56,.56-.97,.67l-.97,.97c.04,.1,.09,.2,.14,.32,.37,.76,.5,1.74-.39,2.02-.99,.3-1.93,.3-1.83,1.7,.01,.16-.43,.43-.71,.51-1.99,.63-2.95,2.33-3.73,3.99-.38,.8-.88,1.31-1.5,1.31-1.24,0-1.73,.54-1.75,1.79-.59,0-1.2-.08-1.76-.11l-86.17,86.17c.6-.23,1.21-.45,1.8-.68,.76,1.3,.71,1.36-.72,1.56-.38,.05-.71,.47-1.06,.72,.26,.33,.49,.69,.79,.98,.11,.11,.37,.07,.69,.11-.37,.32-.63,.54-.88,.76,.09,.16,.13,.3,.17,.3,.63,0,1.07,.15,1.4,.41l104.28-104.28c-1.39-1.7-4.2-1.53-5.22,.48Z"/>
        <path class="cls-1" d="M424.12,242.81c-.16,.01-.32-.06-.48-.16l-5.1,5.1c.41,.02,.83-.05,1.29-.15,.73-.15,1.95-.25,2.22,.13,.53,.77,1.21,.92,1.92,.94l4.23-4.23c-.21-.12-.44-.23-.73-.3-1.17-.27-1.94-1.46-3.35-1.33Z"/>
        <path class="cls-1" d="M354.38,293.23c-.27-.52-.14-1.38,.07-1.99,.49-1.4,1.14-2.74,1.61-3.85-.12-.5-.25-.95-.36-1.37l-41.54,41.54c.14-.09,.28-.17,.42-.26,.72-.51,1.36-1.13,1.9-1.58,1.2,.94,2.25,1.78,3.3,2.59l34.74-34.74c-.04-.11-.08-.22-.14-.33Z"/>
        <path class="cls-1" d="M335.49,324.86l7.2-7.2c0-.13,.02-.26,.02-.38,0-1.54-.06-3.09-.09-4.63,0-.42,.1-.88-.01-1.26l-13.8,13.8c.15-.03,.29-.07,.44-.1,.68,.52,.97,1.34,.31,2.55-.51,.93,.16,1.77,.97,2.1,.02,0,.06,0,.08,0l4.7-4.7c.06-.06,.12-.12,.18-.18Z"/>
        <path class="cls-1" d="M292.05,270.05s0,.02,0,.03l42.9-42.9c-.07-.25-.13-.49-.21-.72-.45-1.34-1.25-2.35-2.15-3.27l-41.36,41.36c.15,.25,.3,.51,.46,.75,.93,1.4,2.34,2.71,.44,4.39-.08,.07-.07,.24-.08,.37Z"/>
        <path class="cls-1" d="M281.43,256.15l51.09-51.09c-.04-.25-.08-.5-.14-.74-.36-1.68-.86-3.37,.41-4.87-.05-.35-.01-.7,.02-1.04l-58.07,58.07c.41,.03,.88-.08,1.46-.32,.78-.32,1.66-.38,2.74-.61-.05-.45-.15-1.27-.27-2.24,1.2,.52,2.12,.91,2.84,1.22-.04,.64-.07,1.13-.1,1.62Z"/>
        <path class="cls-1" d="M331.17,193.75c-.1-1.31-.32-2.51-1.87-3.06-.22-.08-.44-.23-.64-.41l-67.95,67.95s.03,.02,.04,.03c1,.55,1.68,.45,2.04-.71,1.53,1.09,1.95,.98,3.37-.79,.42,.19,.91,.61,1.2,.5,.47-.18,.91-.43,1.35-.69l62.48-62.48c0-.11-.02-.23-.03-.35Z"/>
        <path class="cls-1" d="M326.19,217.4s-.04-.02-.06-.03l-41.53,41.53c.09,.21,.18,.42,.31,.59,.73,.93,2.24,1.25,3.34,1.8,.66-.42,1.1-1.4,1.76-1.44l39.28-39.28c-1.31-.78-2.6-1.56-3.1-3.17Z"/>
        <path class="cls-1" d="M344.25,229.39l.04,.48c-.79,.46-1.58,.94-2.39,1.38-.27,.15-.6,.2-.9,.31-.83,.3-1.65,.77-2.5,.85-.82,.08-1.68-.12-2.6-.26l-44.18,44.18s0,.03,0,.04c-.21,.68-.29,1.43-.62,2.05-.76,1.43-1.63,2.79-2.6,4.43,.81,.25,1.59,.48,2.35,.71l53.8-53.8c-.13-.13-.26-.26-.39-.38Z"/>
        <path class="cls-1" d="M324.92,187.76c-1.23-.75-1.85-2.1-2.67-3.35l-65.31,65.31c.18,.15,.36,.3,.54,.45l-.5,.17c-.25,.67-.77,1.36-.71,2,.12,1.27,.56,2.31,1.21,3.21l67.78-67.78c-.11,0-.23,0-.34,0Z"/>
        <path class="cls-1" d="M358.67,227.43c-1,.19-1.96,.56-2.96,.73-.83,.14-1.71,0-2.55,.15-.68,.12-1.28,.38-1.85,.71l-60.75,60.75c.51,.21,1.02,.41,1.52,.63,.39,.17,.77,.36,1.15,.54-1.4,.3-2.77,.81-3.97,.13l-1.33,1.33c.09,1.02,.18,2.05,.26,3.07,.02,.25,0,.57-.15,.74-.72,.85-1.49,1.67-2.29,2.54-.4-.25-1.03-.65-1.67-1.05-.12,.08-.23,.17-.35,.25,.27,.53,.51,1.07,.83,1.57,.33,.5,.94,.91,1.06,1.44,0,.02,.01,.05,.02,.07l73.56-73.56c-.19-.05-.37-.08-.54-.05Z"/>
      </g>
      <path class="cls-1" d="M429.72,247.09s.08,.05,.13,.08c-.01-.06-.02-.11-.04-.17l-.09,.09Z"/>
      <g>
        <path d="M317.76,104.75c-.92-.31-1.89-.5-2.86-.69L166.75,252.22c.17-.03,.33-.03,.48,0,1.38,.29,2.45,.08,3.42-.94,.54-.57,1.05-.57,1.79-.02,.3,.22,.88,.3,1.38,.24L319.72,105.6c-.63-.33-1.29-.62-1.96-.85Z"/>
        <path d="M309.22,102.98c-1.71-.28-3.1,.39-4.58,1.29-1.79,1.09-3.61,2.15-5.43,3.2l-149.4,149.4c.19,.09,.4,.16,.56,.29,1.54,1.17,2.85,1.24,4.49,.23,.43-.26,.91-.44,1.4-.6L309.93,103.11c-.24-.04-.47-.09-.71-.13Z"/>
        <path d="M277.5,120.44c-2.29,1.47-4.5,3.08-6.64,4.77-3.02,2.37-5.94,4.86-8.89,7.32-.22,.18-.43,.37-.64,.55l-120.16,120.16c.68,.28,1.35,.59,1.9,1.03,.68,.55,1.4,.95,2.14,1.28L284.96,115.81c-2.5,1.52-4.99,3.05-7.45,4.63Z"/>
        <path d="M86.47,185.16c.13-.06,.22-.13,.26-.22,.02-.05,.05-.08,.08-.12l-.34,.34Z"/>
        <path d="M87.78,183.84c.92-.47,2.08-.38,3-.82,.37-.18,1.14,.42,1.71,.71,.35,.18,.64,.49,1,.66,.02,.01,.05,.02,.07,.03l86.12-86.12c-1.31-.81-2.62-1.62-3.92-2.44l-87.97,87.97Z"/>
        <path d="M80.76,194.13c-.8-.27-1.62-.54-2.44-.82l-1.32,1.32c.05,.16,.12,.32,.23,.39,.64,.45,3.09-.2,3.53-.9Z"/>
        <path d="M80.47,195.57c-.47,.14-.9,.4-1.35,.6,.21,.42,.41,.84,.64,1.3,.69-.45,1.19-.77,1.68-1.09,.03,.03,.05,.06,.08,.08l1.32-1.32c-.8,.02-1.59,.19-2.38,.43Z"/>
        <path d="M101.7,194.48l-.95,.95c.71-.26,.95-.44,.95-.95Z"/>
        <path d="M183.34,100.57l-84.9,84.9c.36-.15,.74-.26,1.12-.3,.85-.09,2.15,1.77,1.59,2.12-1.14,.72-2.59,1.66-3.75,1.48-.61-.1-1.21-.26-1.81-.44l-3.87,3.87c.12,0,.25,0,.37-.01,2-.06,4.05,.37,5.99-.53,.14-.07,.35-.02,.52,.01,0,0,0,0,0,0l88.67-88.67c-1.31-.81-2.62-1.61-3.94-2.42Z"/>
        <path d="M82.93,193.31c.49-.27,.93-.35,1.25-.2,.18,.08,.33,.15,.47,.22l6.62-6.62c-.11-.04-.21-.08-.32-.12-.29-.1-.88-.05-.97,.13-.58,1.12-1.56,1.07-2.58,1.05-1.06-.02-2.08,.02-2.58,1.28-.1,.25-.7,.41-1.08,.43-.53,.02-1.07,.02-1.6,.02l-3.46,3.46c.9,.22,1.85,.35,2.62,.79,.96,.56,1.75,.87,2.34,.6l.22-.22c-.31-.27-.62-.54-.93-.81Z"/>
        <path d="M118.72,85.6c-.94,0-1.87,0-2.81,0-1.3,0-1.75,.45-1.61,1.67,.09,.82,.21,1.63,.3,2.45l4.12-4.12Z"/>
        <path d="M85.3,200.04c.34-.03,.83,0,.99-.21,1.32-1.78,3.2-1.1,4.96-1.28,.03,.13,.06,.26,.08,.38l5.61-5.61c-1.57-.03-3.14-.2-4.71-.24-.49-.01-1,0-1.49,.08l-6.81,6.81s-.04,.06-.06,.09c.47,0,.95,.01,1.42-.02Z"/>
        <path d="M78.89,182.51c.09,.05,.18,.09,.26,.14-.17,.58-.34,1.16-.59,2.04,.74,.08,1.47,.16,2.2,.24l91.33-91.33c-1.31-.81-2.61-1.62-3.92-2.43l-91.18,91.18c.21,.43,.42,.86,.63,1.29,.59-.53,.93-.83,1.26-1.13Z"/>
        <path d="M80.59,123.73c-1.5,.02-3.01,.03-4.51,.05-.57,0-1.14,.14-1.76,.23,.78,1.28,1.51,2.49,2.27,3.73l4-4Z"/>
        <path d="M190.94,105.25l-88.65,88.65s.07,.1,.08,.15c.05,.54,.03,1.31-.31,1.63-.74,.71-1.01,1.01-.12,1.98,1.16,1.26-.03,3.42-1.77,3.55-.22,.02-.44,.03-.65,0-1.42-.19-2.73,.1-3.96,.81,.55-1.4,1.5-2.05,3.04-1.58,.08,.02,.17,0,.26,0,.89-.03,1.97,.16,2.36-.9,.41-1.13-.4-1.71-1.3-2.2-.19-.1-.39-.35-.49-.57l-5.33,5.33c.33-.05,.77-.05,1.39-.02-.21,.17-.42,.35-.64,.5-.36,.26-.87,.42-1.07,.76-.46,.76-.77,1.62-1.09,2.31,.41,.9,.75,1.72,1.16,2.52,.06,.11,.14,.21,.23,.31l100.8-100.8c-1.31-.81-2.62-1.61-3.94-2.42Z"/>
        <path d="M91.24,206.55c.53-1.02,1.01-1.79,1.35-2.62,.09-.22,.17-.41,.25-.58l-2.38,2.38c.3,.23,.58,.48,.79,.82Z"/>
        <path d="M87.72,200.23c.24,.18,.62,.55,.7,.5,.52-.38,.91-.34,1.26-.14l1-1c-.81-.06-1.59-.13-2.36-.12-.2,0-.4,.5-.6,.76Z"/>
        <path d="M103.46,123.49c-1.49,.02-2.99,.03-4.48,.05l-18.15,18.15c.35,.61,.63,1.22,.63,1.83,0,.69-.02,1.16,.42,1.66,.2,.22,.46,.48,.48,.74,.02,.19,.02,.37,.03,.56l23.01-23.01c-.65,0-1.3,.02-1.95,.03Z"/>
        <path d="M216.39,120.9c-.88-.54-1.76-1.08-2.64-1.62l-105.79,105.79c.14-.03,.3-.07,.48-.13,.41-.13,.86-.15,1.3-.23q-3.06,2-2.51,3.35c1.49-.48,1.86-.19,1.87,1.42,0,.22,0,.43,0,.65,0,.05,.01,.08,.02,.13l108.6-108.6c-.44-.25-.89-.5-1.32-.77Z"/>
        <path d="M206.14,114.6l-102.84,102.84c.47,.88,1.24,1.46,2.01,2.11,.39,.33,.74,.72,1.09,1.14l103.67-103.67c-1.31-.81-2.62-1.61-3.94-2.42Z"/>
        <path d="M160.58,86.49l-82.45,82.45c-.06,.12-.11,.23-.19,.34-1.2,1.77-2.03,3.75-3.7,5.24-.71,.64-1.23,1.24-2.26,1.1-.22-.03-.39-.02-.54,0l-.62,.62c0,.25,.06,.56,.18,.92,.47-.17,.87-.43,1.27-.42,.52,.02,1.47,.25,1.48,.4,0,1.01,.62,1.29,1.11,1.43l89.67-89.67c-1.31-.81-2.63-1.6-3.95-2.41Z"/>
        <path d="M198.54,109.92l-101.85,101.85c.36,.31,.7,.63,.94,1.02,.64,1.03,1.17,1.17,1.68,.82,.43,.27,.82,.5,1.18,.72l101.98-101.98c-1.31-.81-2.62-1.61-3.94-2.42Z"/>
        <path d="M236.88,136.99c.26-.19,.42-.71,.39-1.05-.1-.84-.31-1.68-.54-2.81l-110.07,110.07c.2,.54,.62,.94,1.71,.81,.69-.08,1.54,.32,2.15,.74,.19,.13,.37,.26,.55,.39l105.73-105.73c-.7-.66-1.07-1.57,.07-2.42Z"/>
        <path d="M230.69,131.61c-.31-.07-.57-.53-.78-.86-.4-.6-.76-1.24-1.13-1.86-.33,.67-.74,.97-1.17,1.07l-107.67,107.67c1.05,.43,2.35,.56,2.36,2.21,0,.14,.28,.32,.47,.42,.2,.1,.4,.2,.59,.3l108.67-108.67c-.45-.09-.89-.18-1.34-.28Z"/>
        <path d="M221.01,126.43c-.41-.12-.99-.88-.91-1.2,0-.01,0-.02,0-.03l-107.2,107.19c.11,.68,.21,1.31,.3,1.92,.15,.91,.63,1.39,1.6,1.31,.42-.04,.83-.04,1.23,0l107.83-107.83c-.79-.75-1.8-1.04-2.86-1.35Z"/>
        <path d="M106.28,110.32l1.62-1.62c-.83,.42-1.34,.96-1.62,1.62Z"/>
        <path d="M156.9,84.25c-1.32-.8-2.63-1.61-3.95-2.41l-70.44,70.44c-.24,2.52-1.04,4.9-2.56,7.1-.41,.59-.71,1.33-.8,2.03-.03,.21-.04,.42-.04,.63l77.79-77.79Z"/>
        <path d="M141.38,85.62c-.83,0-1.48,0-2.12,0-.79,0-1.57,0-2.36,0l-30.85,30.85c-.03,.38-.08,.76-.17,1.13-.32,1.41-.05,2.53,.48,3.72,.12,.27,.27,.53,.39,.8l42.53-42.53c-1.05-.64-2.1-1.28-3.15-1.92-.27-.16-.54-.32-.81-.48l-4.22,4.22c.09,1.39,.18,2.78,.27,4.2Z"/>
        <path d="M140.67,74.85c.02,.34,.04,.67,.07,1.01l.86-.86c-.18-.11-.36-.21-.54-.32-.13,.06-.25,.12-.38,.17Z"/>
        <path d="M114.74,101.85l16.23-16.23c-2.12,0-4.23,0-6.35,0l-9.89,9.89c0,2.12,.01,4.23,0,6.35Z"/>
        <path d="M249.42,137.69c-2.11,.42-4.21,.88-6.32,1.34l-108.69,108.69s.07,.06,.1,.09c1.07,.98,1.98,2.13,2.96,3.2l113.64-113.64c-.57,.11-1.13,.21-1.7,.32Z"/>
        <path d="M93,123.6c-2.14,.02-4.28,.05-6.42,.07l-6.66,6.66c.07,.15,.14,.3,.2,.45,.28,.67,.3,1.44,.61,2.09,.4,.83-1.05,1.93,.49,2.51,0,0,0,.01-.01,.02l11.79-11.79Z"/>
      </g>
      <path class="cls-1" d="M250.33,33.88c-37.25,0-71.72,12.22-99.58,32.93,.24,.08,.47,.2,.67,.31l3.97,2.4c.28,.16,.55,.35,.83,.59,26.53-19.1,59.02-30.34,94.11-30.34,89.09,0,161.59,72.46,161.59,161.55,0,3.69-.12,7.39-.39,11,.04,0,.04,.04,.04,.04,2.12,.43,4.09,1.45,5.7,2.83,.35-4.56,.55-9.2,.55-13.87,0-92.31-75.13-167.44-167.48-167.44Z"/>
      <path d="M403.08,260.93c-.43,0-.86-.12-1.3-.16-.12,.16-.2,.31-.28,.43-.43,.63-.9,1.18-1.41,1.69-.2,.2-.39,.39-.63,.63-12.5,29.87-33.76,55.21-60.52,72.82,0,0,0,.04-.04,.04-1.34,.9-2.67,1.73-4.05,2.59-24.6,15.17-53.56,23.93-84.53,23.93-82.09,0-150.03-61.54-160.21-140.88-.63-.51-1.22-1.18-1.77-1.93-.83-.83-1.49-1.77-2-2.83-.04,0-.04-.04-.08-.04-1.02-.47-1.96-1.1-2.79-1.81,7.19,85.78,79.26,153.37,166.85,153.37,71.6,0,132.86-45.19,156.75-108.54l-.55,.16c-1.14,.35-2.28,.51-3.46,.51Z"/>
    </g>
  </g>
</svg>