<svg width="80" height="57" viewBox="0 0 80 57" fill="none" xmlns="http://www.w3.org/2000/svg">
<g clip-path="url(#clip0_719_736)">
<path d="M33.1323 56.1187C17.8967 55.8382 12.693 55.5859 9.49446 54.9269C7.33045 54.489 5.44993 53.5168 4.07108 52.1068C3.0054 51.0397 2.15791 49.4115 1.50039 47.1525C0.936386 45.2705 0.716719 43.7046 0.403547 39.8797C-0.0758597 31.2475 -0.190145 24.1899 0.403547 16.3042C0.893342 11.9495 1.13082 6.77992 4.38425 3.76397C5.92043 2.35247 7.70744 1.44412 9.71412 1.06861C12.8488 0.473431 26.2039 0.00292969 40.0295 0.00292969C53.824 0.00292969 67.2087 0.473431 70.3464 1.06861C72.8533 1.53911 75.2043 2.94912 76.5846 4.76731C79.5531 9.43669 79.605 15.243 79.9063 19.7847C80.031 21.9488 80.031 34.2367 79.9063 36.4007C79.4373 43.5784 79.0603 46.118 77.9946 48.751C77.3356 50.4133 76.7731 51.2905 75.7995 52.2627C74.2724 53.7587 72.3257 54.7538 70.2188 55.1154C57.0343 56.1068 45.8388 56.322 33.1323 56.1187ZM53.3223 27.2771C45.9872 23.3573 38.9638 19.7224 31.7846 15.9599V38.4697C39.3394 34.3629 47.3037 30.6003 53.3535 27.246L53.3223 27.2771Z" fill="black"/>
</g>
<defs>
<clipPath id="clip0_719_736">
<rect width="80" height="56.192" fill="white"/>
</clipPath>
</defs>
</svg>
