<svg width="60" height="60" viewBox="0 0 60 60" fill="none" xmlns="http://www.w3.org/2000/svg">
<path d="M31.875 28.3311C31.875 27.8338 31.6775 27.3569 31.3258 27.0052C30.9742 26.6536 30.4973 26.4561 30 26.4561C29.2583 26.4561 28.5333 26.2361 27.9166 25.8241C27.2999 25.412 26.8193 24.8263 26.5355 24.1411C26.2516 23.4559 26.1774 22.7019 26.3221 21.9745C26.4668 21.247 26.8239 20.5789 27.3484 20.0544C27.8728 19.53 28.541 19.1728 29.2684 19.0281C29.9958 18.8834 30.7498 18.9577 31.4351 19.2415C32.1203 19.5253 32.706 20.006 33.118 20.6227C33.5301 21.2394 33.75 21.9644 33.75 22.7061C33.75 23.2033 33.9475 23.6803 34.2992 24.0319C34.6508 24.3835 35.1277 24.5811 35.625 24.5811C36.1223 24.5811 36.5992 24.3835 36.9508 24.0319C37.3025 23.6803 37.5 23.2033 37.5 22.7061C37.5 21.2227 37.0601 19.7726 36.236 18.5393C35.4119 17.3059 34.2406 16.3446 32.8701 15.777C31.4997 15.2093 29.9917 15.0608 28.5368 15.3502C27.082 15.6396 25.7456 16.3539 24.6967 17.4028C23.6478 18.4517 22.9335 19.788 22.6441 21.2429C22.3547 22.6977 22.5032 24.2057 23.0709 25.5762C23.6386 26.9466 24.5999 28.118 25.8332 28.9421C27.0666 29.7662 28.5166 30.2061 30 30.2061C30.4973 30.2061 30.9742 30.0085 31.3258 29.6569C31.6775 29.3053 31.875 28.8283 31.875 28.3311Z" fill="white"/>
<path d="M40.9125 38.6058L43.4062 36.1121C46.0567 33.4608 47.8615 30.0831 48.5925 26.4061C49.3234 22.7291 48.9476 18.9179 47.5127 15.4545C46.0778 11.9911 43.6481 9.03086 40.5309 6.94819C37.4137 4.86552 33.7489 3.75391 30 3.75391C26.2511 3.75391 22.5863 4.86552 19.4691 6.94819C16.3519 9.03086 13.9222 11.9911 12.4873 15.4545C11.0524 18.9179 10.6766 22.7291 11.4075 26.4061C12.1385 30.0831 13.9433 33.4608 16.5938 36.1121L19.0875 38.6058C11.85 40.1621 7.5 43.1246 7.5 46.8746C7.5 53.0246 18.75 56.2496 30 56.2496C41.25 56.2496 52.5 53.0246 52.5 46.8746C52.5 43.1246 48.15 40.1621 40.9125 38.6058ZM30 52.4996C18.75 52.4996 11.25 49.1058 11.25 46.8746C11.25 45.4683 14.8125 42.9746 22.3312 41.8496L23.925 43.4433C24.2837 43.7505 24.7451 43.911 25.217 43.8928C25.6889 43.8746 26.1365 43.679 26.4704 43.345C26.8044 43.0111 27 42.5635 27.0182 42.0916C27.0364 41.6197 26.8759 41.1583 26.5688 40.7996L19.2375 33.4683C17.1111 31.3416 15.663 28.6321 15.0764 25.6825C14.4898 22.7328 14.7911 19.6754 15.9421 16.897C17.093 14.1185 19.0421 11.7437 21.5427 10.0729C24.0433 8.40211 26.9832 7.51033 29.9906 7.51033C32.9981 7.51033 35.938 8.40211 38.4386 10.0729C40.9392 11.7437 42.8882 14.1185 44.0392 16.897C45.1902 19.6754 45.4914 22.7328 44.9048 25.6825C44.3183 28.6321 42.8702 31.3416 40.7437 33.4683L28.6688 45.5433C28.4725 45.7114 28.3131 45.9183 28.2005 46.1509C28.088 46.3835 28.0247 46.6369 28.0148 46.8951C28.0048 47.1533 28.0483 47.4108 28.1426 47.6515C28.2368 47.8921 28.3798 48.1106 28.5625 48.2933C28.7453 48.476 28.9638 48.619 29.2044 48.7133C29.445 48.8076 29.7025 48.8511 29.9607 48.8411C30.2189 48.8311 30.4723 48.7679 30.7049 48.6553C30.9376 48.5428 31.1444 48.3834 31.3125 48.1871L37.6688 41.8308C45.1688 42.9558 48.75 45.4496 48.75 46.8558C48.75 49.1058 41.25 52.4996 30 52.4996Z" fill="white"/>
</svg>
