<svg width="60" height="60" viewBox="0 0 60 60" fill="none" xmlns="http://www.w3.org/2000/svg">
<g clip-path="url(#clip0_555_67)">
<mask id="mask0_555_67" style="mask-type:luminance" maskUnits="userSpaceOnUse" x="0" y="0" width="60" height="61">
<path d="M0 0.000976562H60V60.001H0V0.000976562Z" fill="white"/>
</mask>
<g mask="url(#mask0_555_67)">
<path d="M55.5587 0.00125H4.43C1.98 0.00125 0 1.935 0 4.32625V55.6663C0 58.0563 1.98 60 4.43 60H55.5587C58.0087 60 60 58.055 60 55.6763V4.32625C60 1.935 58.0075 0 55.5587 0M17.8 51.1312H8.895V22.49H17.8013L17.8 51.1312ZM13.3475 18.5875C12.6695 18.5886 11.998 18.4561 11.3712 18.1976C10.7445 17.939 10.1749 17.5594 9.69494 17.0805C9.21501 16.6016 8.83419 16.0328 8.57424 15.4067C8.31429 14.7805 8.18033 14.1092 8.18 13.4312C8.18033 12.7533 8.31429 12.082 8.57424 11.4558C8.83419 10.8297 9.21501 10.2609 9.69494 9.78198C10.1749 9.3031 10.7445 8.92351 11.3712 8.66493C11.998 8.40635 12.6695 8.27385 13.3475 8.275C14.715 8.275 16.0265 8.81825 16.9935 9.78523C17.9605 10.7522 18.5037 12.0637 18.5037 13.4312C18.5021 14.7983 17.9583 16.1088 16.9917 17.0754C16.0251 18.0421 14.7145 18.5858 13.3475 18.5875ZM51.1287 51.1312H42.235V37.2088C42.235 33.8925 42.1763 29.615 37.605 29.615C32.9762 29.615 32.2738 33.2363 32.2738 36.9738V51.13H23.39V22.4912H31.9225V26.405H32.0387C33.2225 24.155 36.1287 21.7762 40.4525 21.7762C49.465 21.7762 51.1287 27.7062 51.1287 35.4175V51.1312Z" fill="black"/>
</g>
</g>
<defs>
<clipPath id="clip0_555_67">
<rect width="60" height="60" fill="white"/>
</clipPath>
</defs>
</svg>
