<svg width="64" height="64" viewBox="0 0 64 64" fill="none" xmlns="http://www.w3.org/2000/svg">
<path d="M48.6472 53.3346C48.3231 53.335 48.0076 53.2304 47.7479 53.0364C47.4882 52.8425 47.2984 52.5697 47.2067 52.2588C47.1151 51.9479 47.1266 51.6158 47.2395 51.312C47.3524 51.0082 47.5607 50.7491 47.8332 50.5736C49.2465 49.6425 50.4484 48.4249 51.3611 46.9996C52.2241 45.6886 52.5201 44.6276 52.2431 43.8436C51.6801 42.2496 48.6492 41.0986 46.0722 40.2736C44.9343 39.9052 43.7167 39.859 42.5542 40.1402C41.3918 40.4214 40.3298 41.0189 39.4862 41.8666L38.5102 42.8436C38.3354 43.0188 38.12 43.1479 37.8832 43.2196C37.2132 43.4196 33.5362 44.0836 26.7282 37.2746C26.5886 37.1354 26.4779 36.97 26.4023 36.7879C26.3267 36.6059 26.2876 36.4107 26.2875 36.2135C26.2873 36.0164 26.3259 35.8212 26.4012 35.639C26.4765 35.4568 26.5869 35.2912 26.7262 35.1516C26.8654 35.0121 27.0308 34.9014 27.2129 34.8258C27.3949 34.7501 27.5901 34.7111 27.7872 34.7109C27.9844 34.7108 28.1796 34.7494 28.3618 34.8247C28.544 34.8999 28.7096 35.0104 28.8492 35.1496C33.3152 39.6166 35.9292 40.2446 36.7892 40.3176L37.3652 39.7416C38.5983 38.5044 40.1495 37.632 41.8473 37.2208C43.5451 36.8096 45.3235 36.8757 46.9862 37.4116C50.3512 38.4896 54.0271 39.8856 55.0711 42.8396C55.6781 44.5546 55.2712 46.5076 53.8712 48.6396C52.7292 50.4187 51.2265 51.9381 49.4601 53.0996C49.2173 53.2544 48.9351 53.3359 48.6472 53.3346ZM41.4402 55.3466C34.5742 55.3466 26.6912 51.3766 19.6572 44.3416C19.5139 44.2033 19.3996 44.0377 19.321 43.8547C19.2424 43.6717 19.201 43.4749 19.1993 43.2757C19.1975 43.0766 19.2355 42.879 19.3109 42.6947C19.3863 42.5104 19.4977 42.3429 19.6386 42.202C19.7794 42.0612 19.9469 41.9498 20.1312 41.8744C20.3156 41.799 20.5131 41.761 20.7123 41.7627C20.9114 41.7645 21.1083 41.8059 21.2913 41.8845C21.4743 41.9631 21.6398 42.0774 21.7782 42.2206C28.4162 48.8596 36.0481 52.6326 42.1681 52.3286C42.3655 52.3159 42.5633 52.3429 42.7501 52.408C42.9368 52.473 43.1086 52.5748 43.2553 52.7074C43.402 52.8399 43.5207 53.0005 43.6043 53.1797C43.688 53.3589 43.7348 53.553 43.7422 53.7506C43.7623 54.1479 43.6238 54.5369 43.3571 54.8321C43.0904 55.1273 42.7174 55.3045 42.3202 55.3246C42.0292 55.3386 41.7352 55.3466 41.4402 55.3466Z" fill="white"/>
<path d="M20.7191 44.7823C20.5221 44.7825 20.3271 44.7437 20.1452 44.6682C19.9633 44.5926 19.7981 44.4819 19.6591 44.3423C12.0911 36.7753 8.00911 27.9893 8.74011 20.8403C8.9478 18.6672 9.6526 16.571 10.8 14.7139C11.9474 12.8567 13.5066 11.2885 15.3571 10.1303C17.4941 8.73031 19.4471 8.32331 21.1571 8.93031C24.1111 9.97431 25.5081 13.6503 26.5851 17.0153C27.1219 18.6779 27.1883 20.4565 26.7771 22.1545C26.3659 23.8524 25.4931 25.4036 24.2551 26.6363L23.6641 27.2283C23.7361 28.0013 24.3191 30.6283 28.8471 35.1523C29.1203 35.4352 29.2715 35.8141 29.2681 36.2074C29.2647 36.6007 29.1069 36.9769 28.8288 37.255C28.5507 37.5332 28.1745 37.6909 27.7812 37.6943C27.3879 37.6977 27.009 37.5465 26.7261 37.2733C19.9181 30.4663 20.5801 26.7873 20.7811 26.1193C20.8522 25.8822 20.9814 25.6667 21.1571 25.4923L22.1341 24.5153C22.9811 23.6714 23.5783 22.6097 23.8594 21.4475C24.1405 20.2853 24.0948 19.0681 23.7271 17.9303C22.9021 15.3523 21.7511 12.3213 20.1581 11.7583C19.3731 11.4813 18.3111 11.7773 17.0011 12.6393C15.5201 13.5495 14.2717 14.7925 13.3551 16.2696C12.4386 17.7467 11.8791 19.4172 11.7211 21.1483C11.0801 27.4083 14.8391 35.2873 21.7761 42.2233C21.986 42.4331 22.129 42.7004 22.1869 42.9915C22.2449 43.2826 22.2152 43.5843 22.1016 43.8584C21.988 44.1326 21.7956 44.3669 21.5488 44.5317C21.302 44.6965 21.0119 44.7844 20.7151 44.7843L20.7191 44.7823Z" fill="white"/>
</svg>
