<svg width="64" height="64" viewBox="0 0 64 64" fill="none" xmlns="http://www.w3.org/2000/svg">
<path d="M53.4181 52.8197H10.5781C8.45639 52.8197 6.42156 51.9768 4.92127 50.4765C3.42098 48.9762 2.57813 46.9414 2.57812 44.8197V19.1797C2.57813 17.058 3.42098 15.0231 4.92127 13.5228C6.42156 12.0225 8.45639 11.1797 10.5781 11.1797H53.4181C55.5399 11.1797 57.5747 12.0225 59.075 13.5228C60.5753 15.0231 61.4181 17.058 61.4181 19.1797V44.8197C61.4181 46.9414 60.5753 48.9762 59.075 50.4765C57.5747 51.9768 55.5399 52.8197 53.4181 52.8197ZM10.5781 13.1797C8.98683 13.1797 7.4607 13.8118 6.33548 14.937C5.21027 16.0623 4.57812 17.5884 4.57812 19.1797V44.8197C4.57812 46.411 5.21027 47.9371 6.33548 49.0623C7.4607 50.1875 8.98683 50.8197 10.5781 50.8197H53.4181C55.0094 50.8197 56.5355 50.1875 57.6608 49.0623C58.786 47.9371 59.4181 46.411 59.4181 44.8197V19.1797C59.4181 17.5884 58.786 16.0623 57.6608 14.937C56.5355 13.8118 55.0094 13.1797 53.4181 13.1797H10.5781Z" fill="white" stroke="white" stroke-width="2"/>
<path d="M32.0001 37.5797C30.2646 37.5898 28.5728 37.0352 27.1801 35.9997L3.82008 18.3097C3.69418 18.2414 3.58441 18.1468 3.49822 18.0324C3.41202 17.9181 3.3514 17.7865 3.32047 17.6466C3.28954 17.5068 3.28901 17.3619 3.31893 17.2218C3.34884 17.0817 3.40849 16.9497 3.49386 16.8347C3.57922 16.7197 3.68829 16.6244 3.81369 16.5551C3.9391 16.4859 4.07791 16.4445 4.22073 16.4336C4.36354 16.4227 4.50704 16.4426 4.6415 16.4919C4.77596 16.5413 4.89825 16.619 5.00008 16.7197L28.3801 34.3697C29.4222 35.1581 30.6933 35.5847 32.0001 35.5847C33.3069 35.5847 34.5779 35.1581 35.6201 34.3697L59.0001 16.7197C59.1038 16.6332 59.224 16.5687 59.3534 16.53C59.4827 16.4912 59.6186 16.4791 59.7528 16.4943C59.887 16.5095 60.0167 16.5517 60.1341 16.6184C60.2515 16.6851 60.3542 16.7749 60.436 16.8823C60.5178 16.9898 60.5769 17.1127 60.6099 17.2437C60.6429 17.3746 60.649 17.5109 60.6279 17.6443C60.6068 17.7776 60.5589 17.9054 60.4871 18.0197C60.4153 18.1341 60.3211 18.2327 60.2101 18.3097L36.8201 35.9997C35.4273 37.0352 33.7356 37.5898 32.0001 37.5797Z" fill="white" stroke="white" stroke-width="2"/>
<path d="M4.17107 48.6396C3.9703 48.6371 3.77494 48.5742 3.61041 48.4592C3.44588 48.3441 3.31981 48.1821 3.2486 47.9944C3.17739 47.8066 3.16434 47.6018 3.21115 47.4066C3.25797 47.2113 3.36248 47.0347 3.51107 46.8996L21.9011 30.4896C22.1013 30.3133 22.3634 30.2237 22.6297 30.2406C22.896 30.2574 23.1447 30.3794 23.3211 30.5796C23.4974 30.7799 23.587 31.042 23.5702 31.3083C23.5533 31.5746 23.4313 31.8233 23.2311 31.9996L4.84107 48.3896C4.65619 48.5527 4.41759 48.6417 4.17107 48.6396ZM59.8311 48.6396C59.5846 48.6417 59.346 48.5527 59.1611 48.3896L40.7711 31.9996C40.6652 31.9147 40.5777 31.8091 40.514 31.6892C40.4503 31.5694 40.4116 31.4378 40.4004 31.3025C40.3891 31.1673 40.4056 31.0311 40.4486 30.9024C40.4917 30.7737 40.5605 30.6551 40.6509 30.5538C40.7413 30.4525 40.8514 30.3707 40.9744 30.3134C41.0974 30.256 41.2308 30.2243 41.3665 30.2202C41.5022 30.2161 41.6373 30.2396 41.7636 30.2894C41.8899 30.3391 42.0047 30.4141 42.1011 30.5096L60.4911 46.8996C60.6883 47.0762 60.8075 47.3238 60.8225 47.5881C60.8375 47.8524 60.7471 48.1119 60.5711 48.3096C60.4776 48.4132 60.3634 48.4961 60.236 48.553C60.1085 48.6098 59.9706 48.6393 59.8311 48.6396Z" stroke="white" stroke-width="2"/>
</svg>
