<svg width="18" height="18" viewBox="0 0 18 18" fill="none" xmlns="http://www.w3.org/2000/svg">
<path d="M8.9997 4.4177C7.30211 4.4177 5.60515 4.22218 3.95784 3.83611C3.79087 3.79701 3.68721 3.63066 3.72632 3.46308C3.76542 3.29673 3.92804 3.19308 4.09997 3.23156C7.69563 4.07445 11.5172 3.96832 15.0725 2.92245C15.2401 2.87528 15.4102 2.96776 15.458 3.13225C15.5064 3.29735 15.4127 3.46928 15.2482 3.5177C13.2179 4.1148 11.1156 4.4177 8.9997 4.4177ZM15.16 15.0936C15.1309 15.0936 15.1017 15.0892 15.0719 15.0805C11.1249 13.9192 6.87446 13.9192 2.92749 15.0805C2.76052 15.1271 2.58984 15.0352 2.54204 14.8707C2.49363 14.7056 2.58735 14.5337 2.75184 14.4853C6.81425 13.2898 11.1858 13.2898 15.2482 14.4853C15.4127 14.5337 15.5064 14.7056 15.458 14.8707C15.4182 15.0067 15.2941 15.0936 15.16 15.0936Z" fill="white"/>
<path d="M8.62135 17.7478C8.56052 17.7478 8.50031 17.7304 8.44631 17.6938C5.54955 15.7169 3.82031 12.4664 3.82031 8.99857C3.82031 6.1887 4.92576 3.54395 6.93431 1.55153C7.05659 1.42926 7.25335 1.43174 7.37314 1.55277C7.49417 1.67443 7.49293 1.87119 7.3719 1.9916C5.4819 3.8667 4.441 6.35505 4.441 8.99857C4.441 12.2609 6.06907 15.3203 8.797 17.1811C8.93852 17.2773 8.97452 17.471 8.87831 17.6125C8.81749 17.7006 8.72004 17.7478 8.62135 17.7478ZM9.40652 17.7478C9.30783 17.7478 9.21038 17.7006 9.15017 17.6125C9.05397 17.4704 9.08997 17.2773 9.23149 17.1811C11.9594 15.3203 13.5875 12.2609 13.5875 8.99857C13.5875 5.73622 11.9594 2.67684 9.23149 0.816015C9.08997 0.719808 9.05397 0.526153 9.15017 0.384635C9.247 0.243118 9.44066 0.208359 9.58155 0.303325C12.4783 2.28022 14.2076 5.53077 14.2076 8.99857C14.2076 12.4664 12.4783 15.7169 9.58155 17.6938C9.52817 17.7298 9.46735 17.7478 9.40652 17.7478Z" fill="white"/>
<path d="M8.9998 17.6573C8.82849 17.6573 8.68945 17.5182 8.68945 17.3469V0.654095C8.68945 0.482784 8.82849 0.34375 8.9998 0.34375C9.17111 0.34375 9.31014 0.482784 9.31014 0.654095V17.3469C9.31014 17.5189 9.17111 17.6573 8.9998 17.6573Z" fill="white"/>
<path d="M17.6579 9.31014H1.58574C1.41443 9.31014 1.27539 9.17111 1.27539 8.9998C1.27539 8.82849 1.41443 8.68945 1.58574 8.68945H17.6585C17.8298 8.68945 17.9688 8.82849 17.9688 8.9998C17.9688 9.17111 17.8298 9.31014 17.6579 9.31014Z" fill="white"/>
<path d="M9 18C4.03759 18 0 13.9624 0 9C0 6.81455 0.793241 4.70545 2.23448 3.0631C2.34745 2.934 2.54297 2.92159 2.67269 3.03455C2.80117 3.14752 2.81359 3.34366 2.70124 3.47276C1.35993 5.00152 0.62069 6.96476 0.62069 9C0.62069 13.6204 4.37959 17.3793 9 17.3793C13.6204 17.3793 17.3793 13.6204 17.3793 9C17.3793 4.37959 13.6204 0.62069 9 0.62069C7.08952 0.62069 5.29076 1.24634 3.79924 2.43C3.66517 2.53676 3.47028 2.51503 3.36352 2.37972C3.25676 2.24566 3.2791 2.05076 3.41379 1.944C5.01579 0.672207 6.94738 0 9 0C13.9624 0 18 4.03759 18 9C18 13.9624 13.9624 18 9 18Z" fill="white"/>
</svg>
