<svg xmlns="http://www.w3.org/2000/svg" version="1" viewBox="0 0 32 32" id="Army">
  <path d="M16 0C7.163 0 0 7.155 0 16c0 8.815 7.163 16 16 16s16-7.185 16-16c0-8.845-7.163-16-16-16zm0 1c8.297 0 15 6.694 15 15 0 8.274-6.703 15-15 15S1 24.274 1 16C1 7.694 7.703 1 16 1zm5.375 7a.672.672 0 0 0-.656.656c0 .3.193.55.468.625v4.25h-1.062c.025-.075.063-.118.063-.219V11.22c0-.3-.263-.563-.563-.563h-3.156c-.3 0-.563.262-.563.563v2.094c0 .075.006.143.031.218h-2.062c-.626 0-1.125.53-1.125 1.156H6.219c-.075.026-.125.119-.125.22v1.437c0 .1.08.187.156.187h6.531c.05.176.156.35.281.5h-.624A2.446 2.446 0 0 0 10 19.47a2.446 2.446 0 0 0 2.438 2.437h11.218a2.43 2.43 0 0 0 2.438-2.437 2.446 2.446 0 0 0-2.438-2.438h-.625c.2-.2.313-.487.313-.812v-1.532c0-.626-.53-1.156-1.157-1.156h-.625V9.312c.276-.075.5-.324.5-.624A.693.693 0 0 0 21.375 8zM12.5 18.031h.156c.776 0 1.438.636 1.438 1.438 0 .776-.662 1.406-1.438 1.406-.776 0-1.406-.63-1.406-1.406 0-.727.524-1.363 1.25-1.438zm3.594 0h.156c.776 0 1.406.636 1.406 1.438a1.407 1.407 0 0 1-2.812 0 1.403 1.403 0 0 1 1.25-1.438zm3.562 0h.157c.775 0 1.406.636 1.406 1.438a1.407 1.407 0 0 1-2.813 0c0-.727.55-1.363 1.25-1.438zm3.594 0h.156c.776 0 1.407.636 1.407 1.438a1.407 1.407 0 0 1-2.813 0c-.025-.727.55-1.363 1.25-1.438zm-10.625.407c-.576 0-1.031.486-1.031 1.062 0 .576.455 1 1.031 1 .576 0 1.031-.449 1.031-1 0-.601-.455-1.063-1.031-1.063zm3.594 0c-.576 0-1.063.486-1.063 1.062 0 .576.487 1 1.063 1 .575 0 1.031-.449 1.031-1a1.02 1.02 0 0 0-1.031-1.063zm3.593 0c-.575 0-1.03.486-1.03 1.062 0 .576.455 1 1.03 1 .576 0 1.032-.449 1.032-1 0-.601-.456-1.063-1.032-1.063zm3.594 0c-.575 0-1.062.486-1.062 1.062 0 .576.487 1 1.062 1 .576 0 1.032-.449 1.032-1 0-.601-.456-1.063-1.032-1.063z" color="#000" font-family="Sans" font-weight="400" overflow="visible" style="text-indent:0;text-align:start;line-height:normal;text-transform:none;block-progression:tb;marker:none;-inkscape-font-specification:Sans" fill="#facb01" class="color000000 svgShape"></path>
</svg>
