<svg width="90" height="90" viewBox="0 0 90 90" fill="none" xmlns="http://www.w3.org/2000/svg">
<path d="M44.9988 90.0004C44.6238 90.0004 44.2301 89.9441 43.8738 89.8129C-1.10744 74.2129 3.39256 17.1566 3.43006 16.5754C3.59881 14.7379 5.09881 13.3691 6.99256 13.4254C28.8926 14.1566 42.4301 1.12539 42.5613 0.994141C43.9113 -0.318359 46.0676 -0.318359 47.3988 0.994141C47.6238 1.21914 61.2551 14.1566 82.9676 13.4254C83.0051 13.4254 83.0426 13.4254 83.0801 13.4254C84.8613 13.4254 86.3613 14.7941 86.5301 16.5754C86.5863 17.1566 91.0863 74.1941 46.1051 89.8129C45.7676 89.9441 45.3738 90.0004 44.9988 90.0004ZM10.1988 20.3629C10.0488 31.7629 12.0176 70.5566 44.9988 82.8566C77.9801 70.5566 79.9488 31.7629 79.7988 20.3629C62.2113 19.9691 49.9488 11.9254 44.9988 8.02539C40.0488 11.9254 27.7863 19.9691 10.1988 20.3629Z" fill="url(#paint0_linear_1191_436)"/>
<path d="M45 73.0125C44.625 73.0125 44.2313 72.9562 43.875 72.825C16.2563 63.2438 18.9938 28.425 19.0125 28.0688C19.1813 26.2313 20.6813 24.8438 22.575 24.9187C34.8 25.35 42.5063 18.0375 42.5813 17.9625C43.9313 16.6687 46.0688 16.6687 47.4 17.9625C47.5125 18.075 55.2563 25.35 67.4063 24.9187C69.3375 24.8438 70.8188 26.25 70.9688 28.0688C71.0063 28.425 73.7438 63.2438 46.125 72.825C45.7688 72.9562 45.375 73.0125 45 73.0125ZM25.8188 31.8C25.8375 39.4875 27.675 59.0625 45 65.8688C62.1375 59.1188 64.0688 39.4687 64.1625 31.8C55.0125 31.2375 48.3563 27.3562 45 24.9187C41.6438 27.3562 34.9875 31.2375 25.8188 31.8Z" fill="url(#paint1_linear_1191_436)"/>
<defs>
<linearGradient id="paint0_linear_1191_436" x1="44.9841" y1="0.00976563" x2="44.9841" y2="90.0004" gradientUnits="userSpaceOnUse">
<stop stop-color="#FACB01"/>
<stop offset="1" stop-color="#929200"/>
</linearGradient>
<linearGradient id="paint1_linear_1191_436" x1="44.9946" y1="16.9922" x2="44.9946" y2="73.0125" gradientUnits="userSpaceOnUse">
<stop stop-color="#FACB01"/>
<stop offset="1" stop-color="#929200"/>
</linearGradient>
</defs>
</svg>
