<svg width="96" height="96" viewBox="0 0 96 96" fill="none" xmlns="http://www.w3.org/2000/svg">
<path fill-rule="evenodd" clip-rule="evenodd" d="M64.646 51.8722C58.7007 57.8175 49.0615 57.8175 43.1162 51.8722C42.1399 50.8959 40.5569 50.8959 39.5806 51.8722C38.6043 52.8485 38.6043 54.4314 39.5806 55.4077C47.4786 63.3056 60.2837 63.3056 68.1816 55.4077L82.7778 40.8115C90.6757 32.9136 90.6757 20.1085 82.7778 12.2106C74.8799 4.31263 62.0748 4.31262 54.1769 12.2105L47.3872 19.0002C46.4109 19.9765 46.4109 21.5594 47.3872 22.5357C48.3635 23.512 49.9464 23.512 50.9228 22.5357L57.7124 15.7461C63.6577 9.80078 73.2969 9.80078 79.2423 15.7461C85.1876 21.6914 85.1876 31.3307 79.2423 37.276L64.646 51.8722ZM12.5797 82.896C20.4776 90.7939 33.2827 90.7939 41.1806 82.896L48.478 75.5986C49.4543 74.6223 49.4543 73.0394 48.478 72.0631C47.5017 71.0868 45.9187 71.0868 44.9424 72.0631L37.6451 79.3605C31.6998 85.3058 22.0605 85.3058 16.1152 79.3605C10.1699 73.4152 10.1699 63.7759 16.1152 57.8306L23.921 50.0248L30.7099 43.2358C36.6553 37.2905 46.2945 37.2905 52.2398 43.2358C53.2161 44.2122 54.799 44.2122 55.7753 43.2358C56.7517 42.2595 56.7517 40.6766 55.7753 39.7003C47.8774 31.8024 35.0723 31.8024 27.1744 39.7003L20.3855 46.4892L12.5797 54.2951C4.68176 62.193 4.68176 74.9981 12.5797 82.896ZM26.2839 27.4228C25.3076 28.3992 23.7247 28.3992 22.7483 27.4228L17.0915 21.766C16.1152 20.7897 16.1152 19.2068 17.0915 18.2305C18.0678 17.2541 19.6507 17.2541 20.627 18.2305L26.2839 23.8873C27.2602 24.8636 27.2602 26.4465 26.2839 27.4228ZM70.4526 68.0553C69.4763 67.079 67.8934 67.079 66.917 68.0553C65.9407 69.0316 65.9407 70.6145 66.917 71.5908L72.5739 77.2477C73.5502 78.224 75.1331 78.224 76.1094 77.2477C77.0857 76.2714 77.0857 74.6884 76.1094 73.7121L70.4526 68.0553ZM23.7234 32.9935C23.3661 34.3272 21.9952 35.1186 20.6615 34.7613L12.9341 32.6907C11.6005 32.3334 10.809 30.9625 11.1664 29.6289C11.5237 28.2952 12.8946 27.5038 14.2282 27.8611L21.9556 29.9317C23.2893 30.289 24.0808 31.6599 23.7234 32.9935ZM72.5394 60.7168C71.2057 60.3595 69.8349 61.1509 69.4775 62.4846C69.1202 63.8183 69.9116 65.1891 71.2453 65.5464L78.9727 67.617C80.3064 67.9744 81.6772 67.1829 82.0345 65.8492C82.3919 64.5156 81.6005 63.1447 80.2668 62.7874L72.5394 60.7168ZM31.8553 24.8629C30.5216 25.2202 29.1508 24.4288 28.7934 23.0951L26.7229 15.3677C26.3655 14.034 27.157 12.6632 28.4906 12.3058C29.8243 11.9485 31.1952 12.7399 31.5525 14.0736L33.6231 21.801C33.9804 23.1347 33.189 24.5055 31.8553 24.8629ZM64.4075 72.383C64.0501 71.0494 62.6793 70.2579 61.3456 70.6153C60.012 70.9726 59.2205 72.3435 59.5779 73.6771L61.6484 81.4045C62.0058 82.7382 63.3766 83.5296 64.7103 83.1723C66.0439 82.8149 66.8354 81.4441 66.478 80.1104L64.4075 72.383Z" fill="url(#paint0_linear_1173_433)"/>
<defs>
<linearGradient id="paint0_linear_1173_433" x1="47.6782" y1="6.287" x2="47.6782" y2="88.819" gradientUnits="userSpaceOnUse">
<stop stop-color="#FACB01"/>
<stop offset="1" stop-color="#929200"/>
</linearGradient>
</defs>
</svg>
