<svg width="90" height="90" viewBox="0 0 90 90" fill="none" xmlns="http://www.w3.org/2000/svg">
<path d="M6.64121 61.6029H83.5302C86.3318 61.6029 88.6088 59.3205 88.6088 56.5159V10.2198C88.6088 7.41523 86.3318 5.13281 83.5302 5.13281H4.024C2.66429 5.13281 1.55859 6.2381 1.55859 7.5977V56.5157C1.55859 59.3209 3.83775 61.6029 6.64121 61.6029ZM4.31641 7.89062H83.5302C84.8081 7.89062 85.851 8.93449 85.851 10.2198V56.5159C85.851 57.8012 84.8081 58.8452 83.5302 58.8452H6.64121C5.36052 58.8452 4.31641 57.8005 4.31641 56.5159V7.89062Z" fill="url(#paint0_linear_1190_431)" stroke="url(#paint1_linear_1190_431)"/>
<path d="M20.3697 33.714L20.3697 33.7139C19.9366 33.0875 20.0936 32.2285 20.7201 31.7955L20.3697 33.714ZM20.3697 33.714C20.6375 34.1012 21.0684 34.3089 21.5048 34.3087L20.3697 33.714ZM30.2201 25.2296L20.7201 31.7955L39.9191 31.3252L39.9193 31.3251L52.2499 21.9631L60.9407 26.6293L60.9409 26.6294C61.4219 26.8874 62.0096 26.8376 62.4401 26.5025L62.4401 26.5024L72.5249 18.6505L72.2177 18.256L72.5249 18.6505C72.9895 18.2887 73.1733 17.6717 72.9818 17.1146C72.7905 16.5576 72.2668 16.1836 71.6777 16.1836H71.6239C71.1955 16.1836 70.8126 16.3795 70.5604 16.6849L61.4542 23.7749L52.7739 19.1143L52.7738 19.1142C52.2984 18.8592 51.7178 18.9046 51.2879 19.2309L51.2878 19.2309L38.9211 28.6203L31.5994 25.1203C31.5993 25.1202 31.5991 25.1201 31.599 25.1201C31.1529 24.9063 30.6267 24.9485 30.2202 25.2296C30.2201 25.2296 30.2201 25.2296 30.2201 25.2296ZM31.1307 27.9525L38.4905 31.4708L22.2887 34.0636L31.1307 27.9525ZM21.5051 34.3087C21.7752 34.3087 22.0492 34.2294 22.2881 34.064L21.5051 34.3087ZM25.4651 48.7452C25.4651 49.5069 26.0826 50.1241 26.844 50.1241C27.6055 50.1241 28.2229 49.5067 28.2229 48.7452V35.6695C28.2229 34.9078 27.6054 34.2906 26.844 34.2906C26.0826 34.2906 25.4651 34.9078 25.4651 35.6695V48.7452ZM30.9039 48.7452C30.9039 49.5069 31.5214 50.1241 32.2828 50.1241C33.0443 50.1241 33.6617 49.5067 33.6617 48.7452V43.3213C33.6617 42.5596 33.0442 41.9424 32.2828 41.9424C31.5214 41.9424 30.9039 42.5596 30.9039 43.3213V48.7452ZM36.3554 48.7452C36.3554 49.5069 36.9729 50.1241 37.7343 50.1241C38.4959 50.1241 39.1132 49.5066 39.1132 48.745V44.6446C39.1132 43.8829 38.4957 43.2657 37.7343 43.2657C36.9729 43.2657 36.3554 43.8829 36.3554 44.6446V48.7452ZM41.7943 48.7452C41.7943 49.5069 42.4118 50.1241 43.1732 50.1241C43.9347 50.1241 44.5521 49.5067 44.5521 48.7452V38.7459C44.5521 37.9842 43.9346 37.367 43.1732 37.367C42.4118 37.367 41.7943 37.9842 41.7943 38.7459V48.7452ZM47.2437 48.7452C47.2437 49.5069 47.8609 50.1241 48.6226 50.1241C49.3841 50.1241 50.0015 49.5067 50.0015 48.7452V36.7186C50.0015 35.957 49.3842 35.3397 48.6226 35.3397C47.8609 35.3397 47.2437 35.957 47.2437 36.7186V48.7452ZM52.6889 48.7452C52.6889 49.5069 53.3063 50.1241 54.0678 50.1241C54.8295 50.1241 55.4467 49.5066 55.4467 48.7452V41.2938C55.4467 40.5322 54.8294 39.9149 54.0678 39.9149C53.3063 39.9149 52.6889 40.5321 52.6889 41.2938V48.7452ZM58.134 48.7452C58.134 49.5069 58.7513 50.1241 59.5129 50.1241C60.2744 50.1241 60.8918 49.5067 60.8918 48.7452V39.9785C60.8918 39.2168 60.2746 38.5996 59.5129 38.5996C58.7513 38.5996 58.134 39.2168 58.134 39.9785V48.7452ZM63.579 48.7452C63.579 49.5069 64.1963 50.1241 64.9579 50.1241C65.7196 50.1241 66.3368 49.5066 66.3368 48.7452V40.9472C66.3368 40.1855 65.7196 39.5683 64.9579 39.5683C64.1963 39.5683 63.579 40.1856 63.579 40.9472V48.7452ZM69.0242 48.7452C69.0242 49.5069 69.6415 50.1241 70.4031 50.1241C71.1646 50.1241 71.782 49.5067 71.782 48.7452V37.3398C71.782 36.5782 71.1648 35.9609 70.4031 35.9609C69.6415 35.9609 69.0242 36.5782 69.0242 37.3398V48.7452Z" fill="url(#paint2_linear_1190_431)" stroke="url(#paint3_linear_1190_431)"/>
<path d="M16.5392 53.3935V53.3935C16.5392 54.1551 17.1562 54.7723 17.918 54.7726H17.918H17.918H17.9181H17.9181C18.6794 54.7726 19.2967 54.1554 19.297 53.3941V53.394L19.2971 52.6996H74.336C75.0976 52.6996 75.7149 52.0824 75.7149 51.3207C75.7149 50.5591 75.0976 49.9418 74.336 49.9418H19.2976L19.3051 13.4632C19.3051 13.4632 19.3051 13.4632 19.3051 13.4632C19.3053 12.7011 18.6874 12.0843 17.9264 12.084H17.9262C17.1649 12.084 16.5473 12.7011 16.5473 13.4626C16.5473 13.4626 16.5473 13.4627 16.5473 13.4627L16.5398 49.9418H15.8398C15.0784 49.9418 14.4609 50.559 14.4609 51.3207C14.4609 52.0824 15.0784 52.6996 15.8398 52.6996H16.5393L16.5392 53.3935ZM43.709 76.6708C43.709 77.4325 44.3265 78.0497 45.0879 78.0497C45.8496 78.0497 46.4668 77.4325 46.4668 76.6708V60.2256C46.4668 59.464 45.8496 58.8467 45.0879 58.8467C44.3265 58.8467 43.709 59.4639 43.709 60.2256V76.6708Z" fill="url(#paint4_linear_1190_431)" stroke="url(#paint5_linear_1190_431)"/>
<path d="M39.9727 79.9202C39.9727 82.7408 42.2672 85.0343 45.0883 85.0343C47.9094 85.0343 50.2042 82.7408 50.2042 79.9202C50.2042 77.101 47.9092 74.8086 45.0883 74.8086C42.2674 74.8086 39.9727 77.1008 39.9727 79.9202ZM42.7305 79.9202C42.7305 78.6234 43.7879 77.5664 45.0883 77.5664C46.3888 77.5664 47.4463 78.6235 47.4463 79.9202C47.4463 81.2188 46.3884 82.2765 45.0883 82.2765C43.7883 82.2765 42.7305 81.2188 42.7305 79.9202Z" fill="url(#paint6_linear_1190_431)" stroke="url(#paint7_linear_1190_431)"/>
<defs>
<linearGradient id="paint0_linear_1190_431" x1="45.0837" y1="5.63281" x2="45.0837" y2="61.1029" gradientUnits="userSpaceOnUse">
<stop stop-color="#FACB01"/>
<stop offset="1" stop-color="#929200"/>
</linearGradient>
<linearGradient id="paint1_linear_1190_431" x1="45.0837" y1="5.63281" x2="45.0837" y2="61.1029" gradientUnits="userSpaceOnUse">
<stop stop-color="#FACB01"/>
<stop offset="1" stop-color="#929200"/>
</linearGradient>
<linearGradient id="paint2_linear_1190_431" x1="46.5909" y1="16.6836" x2="46.5909" y2="49.6241" gradientUnits="userSpaceOnUse">
<stop stop-color="#FACB01"/>
<stop offset="1" stop-color="#929200"/>
</linearGradient>
<linearGradient id="paint3_linear_1190_431" x1="46.5909" y1="16.6836" x2="46.5909" y2="49.6241" gradientUnits="userSpaceOnUse">
<stop stop-color="#FACB01"/>
<stop offset="1" stop-color="#929200"/>
</linearGradient>
<linearGradient id="paint4_linear_1190_431" x1="45.0879" y1="12.584" x2="45.0879" y2="77.5497" gradientUnits="userSpaceOnUse">
<stop stop-color="#FACB01"/>
<stop offset="1" stop-color="#929200"/>
</linearGradient>
<linearGradient id="paint5_linear_1190_431" x1="45.0879" y1="12.584" x2="45.0879" y2="77.5497" gradientUnits="userSpaceOnUse">
<stop stop-color="#FACB01"/>
<stop offset="1" stop-color="#929200"/>
</linearGradient>
<linearGradient id="paint6_linear_1190_431" x1="45.0884" y1="75.3086" x2="45.0884" y2="84.5343" gradientUnits="userSpaceOnUse">
<stop stop-color="#FACB01"/>
<stop offset="1" stop-color="#929200"/>
</linearGradient>
<linearGradient id="paint7_linear_1190_431" x1="45.0884" y1="75.3086" x2="45.0884" y2="84.5343" gradientUnits="userSpaceOnUse">
<stop stop-color="#FACB01"/>
<stop offset="1" stop-color="#929200"/>
</linearGradient>
</defs>
</svg>
