<svg width="90" height="90" viewBox="0 0 90 90" fill="none" xmlns="http://www.w3.org/2000/svg">
<g clip-path="url(#clip0_1173_450)">
<path d="M70.9181 49.8941C73.0275 45.4925 74.279 41.0206 74.6869 36.6191C76.5712 15.441 58.9509 10.041 54.7322 9.05658C54.0712 6.93314 51.8775 1.68783 45.8447 0.0565776C45.6429 0.000290725 45.4306 -0.00739058 45.2253 0.0341629C45.02 0.0757164 44.8274 0.165322 44.6634 0.29564C44.3259 0.548765 44.129 0.956578 44.129 1.37845V8.48002C42.4837 8.49408 40.0228 8.95814 38.6165 11.3628C38.0259 12.3753 37.1259 13.2472 36.0291 13.88C32.7666 15.7785 28.3087 18.8722 25.665 22.7956C25.1306 23.5972 24.3994 24.2441 23.5697 24.666L18.1697 27.4081C18.0853 27.4503 18.015 27.4925 17.9447 27.5488C17.7197 27.7175 15.7791 29.2925 15.7509 31.3878C15.7369 31.9503 15.8775 32.7097 16.4259 33.4831C15.6806 35.0581 14.4994 38.2644 15.6806 40.9363C16.44 42.666 18.015 43.791 20.3353 44.2831C27.3244 45.7597 28.9416 41.8222 29.2791 40.5706C29.3916 40.1488 29.5744 39.8113 29.8275 39.5441C31.5009 37.8003 33.54 37.7581 35.8462 39.4175C37.6322 40.6972 39.3337 41.3019 40.8525 41.4706C34.665 47.5597 24.2587 59.9347 27.7744 71.5222C26.6212 72.2534 25.8478 73.5191 25.8478 74.9816V77.5972H24.3572C22.1072 77.5972 20.265 79.4253 20.265 81.6894V88.6363C20.265 89.3956 20.8697 90.0003 21.6291 90.0003H73.1681C73.9275 90.0003 74.5322 89.3956 74.5322 88.6363V81.6894C74.5322 79.4394 72.704 77.5972 70.44 77.5972H68.9494V74.9816C68.9494 73.2519 67.8806 71.7894 66.3619 71.1847C65.8415 69.905 64.59 66.2488 65.5041 62.8316C66.0947 60.5675 68.0212 55.9691 70.9181 49.8941ZM71.8041 81.6894V87.2722H22.9931V81.6894C22.9931 80.9441 23.5978 80.3253 24.3572 80.3253H70.44C71.1853 80.3253 71.8041 80.9441 71.8041 81.6894ZM28.5759 77.6113V74.9956C28.5759 74.2363 29.1806 73.6316 29.94 73.6316H64.8572C65.6025 73.6316 66.2212 74.2363 66.2212 74.9956V77.6113H28.5759ZM62.8603 62.1425C61.9744 65.4894 62.6915 68.8503 63.3525 70.8894H30.4462C26.2837 57.6988 43.9744 42.1597 46.4775 40.0363C46.604 39.9378 46.7306 39.8394 46.8431 39.7269C47.1033 39.4855 47.2591 39.1521 47.2775 38.7976C47.2959 38.4432 47.1754 38.0955 46.9416 37.8284C46.7102 37.5621 46.3847 37.3958 46.0334 37.3643C45.682 37.3328 45.3321 37.4387 45.0572 37.6597C45.015 37.6878 44.9447 37.7441 44.8462 37.8284C44.1853 38.3206 41.3869 40.0363 37.4353 37.1956C32.5556 33.6941 29.1103 36.3519 27.8587 37.6456C27.2822 38.2503 26.8744 38.9956 26.6353 39.8675C26.1572 41.6675 24.1181 42.2863 20.8978 41.6113C19.4634 41.3019 18.5775 40.7253 18.1837 39.8253C17.3541 37.955 18.69 34.9316 19.2666 33.9331C19.6041 33.3566 19.4775 32.6253 18.9572 32.2034C18.4791 31.8097 18.4791 31.5285 18.4791 31.43C18.4791 30.8394 19.1541 30.0941 19.5337 29.7566L24.7931 27.0706C26.0447 26.4378 27.1275 25.4675 27.915 24.2863C30.39 20.6019 34.9041 17.6488 37.3791 16.2003C38.8837 15.3285 40.1212 14.1191 40.9509 12.6988C42.1462 10.6878 45.0853 11.2503 45.1978 11.2644C45.6056 11.3488 46.0134 11.2503 46.3369 10.9831C46.6603 10.73 46.8431 10.3363 46.8431 9.92845V3.31908C51.2025 5.47064 52.2431 10.2519 52.2994 10.4769C52.4119 11.0394 52.8619 11.4753 53.4244 11.5597C54.2541 11.6863 73.8712 14.9769 71.9587 36.38C71.5931 40.4581 70.4119 44.6066 68.4572 48.7269C66.3619 53.1285 63.6759 59.0347 62.8603 62.1425Z" fill="url(#paint0_linear_1173_450)" stroke="url(#paint1_linear_1173_450)"/>
<path d="M47.8136 15.3566C34.9605 18.2816 36.0011 25.5659 36.0573 25.8753C36.1698 26.5503 36.7464 27.0144 37.4073 27.0144C37.4776 27.0144 37.548 27.0144 37.6323 27.0003C38.3776 26.8738 38.8839 26.1706 38.7573 25.4394C38.7573 25.4253 38.7151 24.9472 38.9261 24.2441C39.6151 25.0878 40.6558 25.6503 41.823 25.6503C43.8901 25.6503 45.5776 23.9628 45.5776 21.8956C45.5776 20.8691 45.1558 19.9409 44.4948 19.2519C45.5917 18.8019 46.8714 18.38 48.4464 18.0144C49.1776 17.8456 49.6417 17.1144 49.473 16.3831C49.2761 15.6519 48.5589 15.2019 47.8136 15.3566ZM41.823 20.8691C42.3855 20.8691 42.8495 21.3331 42.8495 21.8956C42.8495 22.4581 42.3855 22.9222 41.823 22.9222C41.2605 22.9222 40.7964 22.4581 40.7964 21.8956C40.7964 21.6425 40.8948 21.4175 41.0495 21.2347C41.148 21.1503 41.2464 21.08 41.3448 20.9956C41.4932 20.9194 41.6563 20.8762 41.823 20.8691Z" fill="url(#paint2_linear_1173_450)"/>
</g>
<defs>
<linearGradient id="paint0_linear_1173_450" x1="45.0035" y1="0.0078125" x2="45.0035" y2="90.0003" gradientUnits="userSpaceOnUse">
<stop stop-color="#FACB01"/>
<stop offset="1" stop-color="#929200"/>
</linearGradient>
<linearGradient id="paint1_linear_1173_450" x1="45.0035" y1="0.0078125" x2="45.0035" y2="90.0003" gradientUnits="userSpaceOnUse">
<stop stop-color="#FACB01"/>
<stop offset="1" stop-color="#929200"/>
</linearGradient>
<linearGradient id="paint2_linear_1173_450" x1="42.7616" y1="15.3262" x2="42.7616" y2="27.0144" gradientUnits="userSpaceOnUse">
<stop stop-color="#FACB01"/>
<stop offset="1" stop-color="#929200"/>
</linearGradient>
<clipPath id="clip0_1173_450">
<rect width="90" height="90" fill="white"/>
</clipPath>
</defs>
</svg>
