<svg xmlns="http://www.w3.org/2000/svg" viewBox="0 0 26 26" id="Business">
  <path d="M13 0C5.826 0 0 5.826 0 13s5.826 13 13 13 13-5.826 13-13S20.174 0 13 0zm0 1c6.633 0 12 5.367 12 12s-5.367 12-12 12S1 19.633 1 13 6.367 1 13 1zm-.5 4.004v1.992H7.111l-1.709 8H5v.5a2.502 2.502 0 0 0 5 0v-.5h-.328l-1.658-7H12.5v12h-2v1h5v-1h-2v-12h4.49l-1.365 7H16v.5a2.502 2.502 0 0 0 5 0v-.5h-.549l-1.539-8H13.5V5.004h-1zm-5.023 5.064 1.168 4.928H6.424l1.053-4.928zm11.068.305.889 4.623h-1.791l.902-4.623zM6.289 15.996H8.71c-.124.293-.174.636-.46.8a1.498 1.498 0 0 1-1.5 0c-.286-.164-.336-.507-.46-.8zm11 0H19.71c-.124.293-.174.636-.46.8a1.498 1.498 0 0 1-1.5 0c-.286-.164-.336-.507-.46-.8z" color="#000" font-family="sans-serif" font-weight="400" overflow="visible" style="line-height:normal;text-indent:0;text-align:start;text-decoration-line:none;text-decoration-style:solid;text-decoration-color:#000;text-transform:none;block-progression:tb;isolation:auto;mix-blend-mode:normal" fill="#facb01" class="color000000 svgShape"></path>
</svg>
