<svg xmlns="http://www.w3.org/2000/svg" viewBox="0 0 48 48" id="Shield">
  <g color="#000" font-family="sans-serif" font-weight="400" fill="#facb01" class="color000000 svgShape">
    <path d="m32.001 1019.542-3.404 1.087c-.679 1.694-2.247 2.888-4.096 2.887-.862 0-1.662-.35-2.383-.812l-2.117.675v13.618c-.016 3.802 2.923 6.417 5.98 8.117 2.967 1.65 5.847 2.34 6.02 2.38.173-.04 3.045-.73 6.008-2.38 3.053-1.7 5.992-4.316 5.992-8.12v-13.615l-2.113-.675c-.722.463-1.523.807-2.385.808H39.5c-1.846 0-3.412-1.191-4.09-2.883l-3.41-1.091zm.002 8.7 1.762 3.405 3.783.627-2.693 2.728.572 3.79-3.426-1.717-3.428 1.716.574-3.79-2.691-2.729 3.783-.625 1.764-3.404z" overflow="visible" style="line-height:normal;text-indent:0;text-align:start;text-decoration-line:none;text-decoration-style:solid;text-decoration-color:#000;text-transform:none;block-progression:tb;isolation:auto;mix-blend-mode:normal" transform="translate(-8 -1008.495)" fill="#facb01" class="color000000 svgShape"></path>
    <path fill-rule="evenodd" d="M32 1008.495c-13.248 0-24 10.75-24 24 0 13.249 10.752 24 24 24 13.25 0 24-10.751 24-24 0-13.25-10.75-24-24-24zm0 1c12.71 0 23 10.291 23 23 0 12.708-10.29 23-23 23-12.708 0-23-10.292-23-23 0-12.709 10.292-23 23-23z" overflow="visible" style="line-height:normal;text-indent:0;text-align:start;text-decoration-line:none;text-decoration-style:solid;text-decoration-color:#000;text-transform:none;block-progression:tb;isolation:auto;mix-blend-mode:normal" transform="translate(-8 -1008.495)" fill="#facb01" class="color000000 svgShape"></path>
  </g>
</svg>
