<svg width="100" height="92" viewBox="0 0 100 92" fill="none" xmlns="http://www.w3.org/2000/svg">
<g clip-path="url(#clip0_1196_454)">
<path d="M78.4668 6.61139C78.3923 6.42549 78.2795 6.2573 78.1359 6.11771C77.9922 5.97812 77.8209 5.87023 77.6329 5.80102C77.4449 5.73181 77.2445 5.70283 77.0446 5.71593C76.8448 5.72904 76.6499 5.78394 76.4726 5.87711L42.4554 23.8257C42.1463 23.9885 41.9078 24.2591 41.7851 24.5862C41.6624 24.9133 41.664 25.274 41.7897 25.6L42.4897 27.4314L22.8526 38.2C22.5435 38.369 22.3078 38.6463 22.1907 38.9785C22.0737 39.3107 22.0835 39.6745 22.2183 40L22.8697 41.5685L2.01541 51.5343C1.68522 51.6921 1.42822 51.9707 1.29744 52.3126C1.16666 52.6544 1.17207 53.0334 1.31255 53.3714L5.59255 63.6857C5.73258 64.0239 5.99709 64.2954 6.33149 64.4443C6.6659 64.5931 7.04468 64.608 7.3897 64.4857L29.1754 56.7685L29.8268 58.3371C29.9613 58.6619 30.2108 58.9257 30.5276 59.078C30.8445 59.2304 31.2063 59.2606 31.544 59.1628L52.3326 53.1714L52.9554 54.7971C53.0833 55.1354 53.3354 55.4121 53.6603 55.5709C53.9853 55.7296 54.3585 55.7584 54.704 55.6514L91.8468 44.2228C92.0358 44.1654 92.2108 44.0693 92.3606 43.9406C92.5104 43.8118 92.6317 43.6533 92.7169 43.4752C92.8021 43.297 92.8493 43.103 92.8554 42.9056C92.8615 42.7082 92.8265 42.5117 92.7526 42.3285L78.4668 6.61139ZM7.71255 61.34L4.47255 53.5285L23.9668 44.2114L28.0783 54.1257L7.71255 61.34ZM31.9726 56.0657L31.2926 54.4257L26.0268 41.7257L25.3468 40.0885L43.4497 30.16L50.2326 47.6857L51.304 50.4885L31.9726 56.0657ZM55.1411 52.5285L54.5611 51.0114C54.5526 50.98 54.5583 50.9428 54.544 50.9114L52.7783 46.3485L44.9097 25.76L76.404 9.14568L89.524 41.9457L55.1411 52.5285ZM82.7526 0.897105C82.612 0.545125 82.3374 0.2634 81.9891 0.113907C81.6408 -0.0355862 81.2474 -0.0406022 80.8954 0.0999626C80.5434 0.240527 80.2617 0.515158 80.1122 0.86344C79.9627 1.21172 79.9577 1.60513 80.0983 1.95711L97.2411 44.8143C97.3828 45.166 97.658 45.4474 98.0066 45.5968C98.3552 45.7461 98.7487 45.7514 99.1011 45.6114C99.4527 45.4703 99.734 45.1956 99.8834 44.8475C100.033 44.4994 100.038 44.1063 99.8983 43.7542L82.7526 0.897105ZM51.4268 60H42.8554C39.5983 60 37.1411 62.4571 37.1411 65.7142V69.4714L20.344 89.0685C20.2128 89.2094 20.1114 89.3752 20.0459 89.5562C19.9804 89.7372 19.9521 89.9295 19.9628 90.1217C19.9735 90.3139 20.0229 90.5019 20.1081 90.6745C20.1933 90.8471 20.3124 91.0007 20.4584 91.1261C20.6045 91.2515 20.7743 91.3461 20.9578 91.4042C21.1413 91.4624 21.3346 91.4828 21.5262 91.4644C21.7177 91.4459 21.9036 91.3889 22.0726 91.2969C22.2416 91.2048 22.3903 91.0795 22.5097 90.9285L39.2268 71.4285H45.7126V90C45.7126 90.3788 45.8631 90.7422 46.131 91.0101C46.3989 91.278 46.7622 91.4285 47.1411 91.4285C47.52 91.4285 47.8834 91.278 48.1513 91.0101C48.4192 90.7422 48.5697 90.3788 48.5697 90V71.4285H55.0554L71.7697 90.9285C71.8912 91.0719 72.0399 91.1897 72.2073 91.2752C72.3746 91.3606 72.5573 91.412 72.7446 91.4264C72.932 91.4408 73.1203 91.4178 73.2987 91.3588C73.4772 91.2998 73.6421 91.206 73.784 91.0828C74.0715 90.8362 74.2493 90.4854 74.2783 90.1076C74.3072 89.7299 74.1849 89.3561 73.9383 89.0685L57.1411 69.4714V65.9285C57.1411 62.6057 54.6326 60 51.4268 60ZM54.284 68.5714H39.9983V65.7142C39.9983 64.0314 41.1726 62.8571 42.8554 62.8571H51.4268C53.0554 62.8571 54.284 64.1771 54.284 65.9285V68.5714Z" fill="url(#paint0_linear_1196_454)"/>
</g>
<defs>
<linearGradient id="paint0_linear_1196_454" x1="50.6013" y1="-0.00195313" x2="50.6013" y2="91.4709" gradientUnits="userSpaceOnUse">
<stop stop-color="#FACB01"/>
<stop offset="1" stop-color="#929200"/>
</linearGradient>
<clipPath id="clip0_1196_454">
<rect width="100" height="91.4286" fill="white"/>
</clipPath>
</defs>
</svg>
