<svg xmlns="http://www.w3.org/2000/svg" width="32" height="32" id="smart"><path fill="#ff5a67" stroke="#373449" stroke-linecap="round" stroke-linejoin="round" d="M19.504 28.01v2.023c0 .814-.655 1.469-1.468 1.469h-4.069a1.466 1.466 0 0 1-1.468-1.469V28.01"></path><path fill="#00d1b6" fill-opacity=".831" stroke="#373449" d="M24.873 12.275c0 5.264-5.374 7.249-5.374 14.266h-7c0-7.017-5.437-9.002-5.437-14.266 0-4.844 3.987-8.772 8.905-8.772 4.919 0 8.906 3.928 8.906 8.772z"></path><path fill="none" stroke="#373449" stroke-linecap="round" stroke-linejoin="round" d="M9.532 16.502h4.911M9.709 18.52h4.734M12.499 26.541h7.006v1.998h-7.006z"></path><path fill="#373449" d="M15.999 13.01h3.016v2.016h-3.016zM15.99 15.994H19v2.016h-3.01zM16.012 19.007h3.01v2.016h-3.01zM15.99 22.01h2.999v2.005H15.99z"></path><path fill="none" stroke="#373449" stroke-linecap="round" stroke-linejoin="round" d="M14.499 14.541h-5v3.78"></path><path fill="none" stroke="#373449" d="M14.499 22.541h-3"></path><path fill="#373449" d="M15.99 25.015h2.999v2.005H15.99z"></path><path fill="none" stroke="#373449" stroke-linecap="round" stroke-linejoin="round" d="M11.09 20.513h3.353"></path><path fill="none" stroke="#373449" d="M14.499 24.51H12.17"></path><path fill="none" stroke="#373449" stroke-linecap="round" stroke-linejoin="round" d="M9.49 18.041v-8.52H7.613M22.5 18.134V10.51h2.14"></path><path fill="none" stroke="#373449" d="M20.46 13.515h2.044"></path><path fill="#373449" stroke="#373449" d="M15.967 2.015V-.002m11.031 13.026h2.017m-24.012 0H2.986m22.605-5.25 1.747-1.009m-5.59-2.835 1.008-1.746M6.41 7.774 4.663 6.764m5.59-2.835L9.245 2.184"></path><path fill="none" stroke="#373449" stroke-linecap="round" stroke-linejoin="round" d="M14.499 26.541v-15h6v10.024"></path></svg>