<svg width="90" height="90" viewBox="0 0 90 90" fill="none" xmlns="http://www.w3.org/2000/svg">
<path d="M22.5 25.3125C17.8481 25.3125 14.0625 21.5269 14.0625 16.875C14.0625 12.2231 17.8481 8.4375 22.5 8.4375C27.1519 8.4375 30.9375 12.2231 30.9375 16.875C30.9375 21.5269 27.1519 25.3125 22.5 25.3125ZM22.5 11.25C19.3978 11.25 16.875 13.7728 16.875 16.875C16.875 19.9772 19.3978 22.5 22.5 22.5C25.6022 22.5 28.125 19.9772 28.125 16.875C28.125 13.7728 25.6022 11.25 22.5 11.25ZM15.4688 87.1875C15.0958 87.1875 14.7381 87.0393 14.4744 86.7756C14.2107 86.5119 14.0625 86.1542 14.0625 85.7812V71.7188C14.0625 71.3458 14.2107 70.9881 14.4744 70.7244C14.7381 70.4607 15.0958 70.3125 15.4688 70.3125C15.8417 70.3125 16.1994 70.4607 16.4631 70.7244C16.7268 70.9881 16.875 71.3458 16.875 71.7188V85.7812C16.875 86.1542 16.7268 86.5119 16.4631 86.7756C16.1994 87.0393 15.8417 87.1875 15.4688 87.1875ZM9.84375 59.0625C9.47079 59.0625 9.1131 58.9143 8.84938 58.6506C8.58566 58.3869 8.4375 58.0292 8.4375 57.6562V37.9688C8.4375 33.4181 12.1247 28.125 16.875 28.125H29.5312C29.9042 28.125 30.2619 28.2732 30.5256 28.5369C30.7893 28.8006 30.9375 29.1583 30.9375 29.5312C30.9375 29.9042 30.7893 30.2619 30.5256 30.5256C30.2619 30.7893 29.9042 30.9375 29.5312 30.9375H16.875C13.8459 30.9375 11.25 34.8047 11.25 37.9688V57.6562C11.25 58.0292 11.1018 58.3869 10.8381 58.6506C10.5744 58.9143 10.2167 59.0625 9.84375 59.0625Z" fill="#FACB01"/>
<path d="M14.0625 67.5H5.625C4.07531 67.5 2.8125 66.24 2.8125 64.6875V59.0625C2.8125 57.51 4.07531 56.25 5.625 56.25H14.0625C15.6122 56.25 16.875 57.51 16.875 59.0625V64.6875C16.875 66.24 15.6122 67.5 14.0625 67.5ZM5.625 59.0625V64.6875H14.0625V59.0625H5.625ZM73.125 25.3125C68.4731 25.3125 64.6875 21.5269 64.6875 16.875C64.6875 12.2231 68.4731 8.4375 73.125 8.4375C77.7769 8.4375 81.5625 12.2231 81.5625 16.875C81.5625 21.5269 77.7769 25.3125 73.125 25.3125ZM73.125 11.25C70.0228 11.25 67.5 13.7728 67.5 16.875C67.5 19.9772 70.0228 22.5 73.125 22.5C76.2272 22.5 78.75 19.9772 78.75 16.875C78.75 13.7728 76.2272 11.25 73.125 11.25ZM82.9688 87.1875C82.5958 87.1875 82.2381 87.0393 81.9744 86.7756C81.7107 86.5119 81.5625 86.1542 81.5625 85.7812V57.6562C81.5625 57.2833 81.7107 56.9256 81.9744 56.6619C82.2381 56.3982 82.5958 56.25 82.9688 56.25C83.3417 56.25 83.6994 56.1018 83.9631 55.8381C84.2268 55.5744 84.375 55.2167 84.375 54.8438V37.9688C84.375 34.8047 81.7791 30.9375 78.75 30.9375H66.0938C65.7208 30.9375 65.3631 30.7893 65.0994 30.5256C64.8357 30.2619 64.6875 29.9042 64.6875 29.5312C64.6875 29.1583 64.8357 28.8006 65.0994 28.5369C65.3631 28.2732 65.7208 28.125 66.0938 28.125H78.75C83.5003 28.125 87.1875 33.4181 87.1875 37.9688V54.8438C87.1875 56.6775 86.0119 58.2412 84.375 58.8206V85.7812C84.375 86.1542 84.2268 86.5119 83.9631 86.7756C83.6994 87.0393 83.3417 87.1875 82.9688 87.1875ZM67.5 67.5H63.2812C62.9083 67.5 62.5506 67.3518 62.2869 67.0881C62.0232 66.8244 61.875 66.4667 61.875 66.0938C61.875 65.7208 62.0232 65.3631 62.2869 65.0994C62.5506 64.8357 62.9083 64.6875 63.2812 64.6875H67.5V59.0625H63.2812C62.9083 59.0625 62.5506 58.9143 62.2869 58.6506C62.0232 58.3869 61.875 58.0292 61.875 57.6562C61.875 57.2833 62.0232 56.9256 62.2869 56.6619C62.5506 56.3982 62.9083 56.25 63.2812 56.25H67.5C69.0497 56.25 70.3125 57.51 70.3125 59.0625V64.6875C70.3125 66.24 69.0497 67.5 67.5 67.5Z" fill="#FACB01"/>
<path d="M47.8125 19.6875C43.1606 19.6875 39.375 15.9019 39.375 11.25C39.375 6.59812 43.1606 2.8125 47.8125 2.8125C52.4644 2.8125 56.25 6.59812 56.25 11.25C56.25 15.9019 52.4644 19.6875 47.8125 19.6875ZM47.8125 5.625C44.7103 5.625 42.1875 8.14781 42.1875 11.25C42.1875 14.3522 44.7103 16.875 47.8125 16.875C50.9147 16.875 53.4375 14.3522 53.4375 11.25C53.4375 8.14781 50.9147 5.625 47.8125 5.625ZM74.5312 87.1875C74.1583 87.1875 73.8006 87.0393 73.5369 86.7756C73.2732 86.5119 73.125 86.1542 73.125 85.7812V66.0938C73.125 65.7208 73.2732 65.3631 73.5369 65.0994C73.8006 64.8357 74.1583 64.6875 74.5312 64.6875C74.9042 64.6875 75.2619 64.8357 75.5256 65.0994C75.7893 65.3631 75.9375 65.7208 75.9375 66.0938V85.7812C75.9375 86.1542 75.7893 86.5119 75.5256 86.7756C75.2619 87.0393 74.9042 87.1875 74.5312 87.1875ZM23.9062 87.1875C23.5333 87.1875 23.1756 87.0393 22.9119 86.7756C22.6482 86.5119 22.5 86.1542 22.5 85.7812V66.0938C22.5 65.7208 22.6482 65.3631 22.9119 65.0994C23.1756 64.8357 23.5333 64.6875 23.9062 64.6875C24.2792 64.6875 24.6369 64.8357 24.9006 65.0994C25.1643 65.3631 25.3125 65.7208 25.3125 66.0938V85.7812C25.3125 86.1542 25.1643 86.5119 24.9006 86.7756C24.6369 87.0393 24.2792 87.1875 23.9062 87.1875ZM40.7812 87.1875C40.4083 87.1875 40.0506 87.0393 39.7869 86.7756C39.5232 86.5119 39.375 86.1542 39.375 85.7812V68.9062C39.375 68.5333 39.5232 68.1756 39.7869 67.9119C40.0506 67.6482 40.4083 67.5 40.7812 67.5C41.1542 67.5 41.5119 67.6482 41.7756 67.9119C42.0393 68.1756 42.1875 68.5333 42.1875 68.9062V85.7812C42.1875 86.1542 42.0393 86.5119 41.7756 86.7756C41.5119 87.0393 41.1542 87.1875 40.7812 87.1875ZM57.6562 87.1875C57.2833 87.1875 56.9256 87.0393 56.6619 86.7756C56.3982 86.5119 56.25 86.1542 56.25 85.7812V54.8438C56.25 54.4708 56.3982 54.1131 56.6619 53.8494C56.9256 53.5857 57.2833 53.4375 57.6562 53.4375C58.0292 53.4375 58.3869 53.2893 58.6506 53.0256C58.9143 52.7619 59.0625 52.4042 59.0625 52.0312V32.3438C59.0625 29.1797 56.4666 25.3125 53.4375 25.3125H42.1875C39.1584 25.3125 36.3853 29.2106 36.2419 32.4028L35.1562 54.9113C35.1474 55.0957 35.1023 55.2767 35.0235 55.4437C34.9447 55.6108 34.8338 55.7607 34.6971 55.8849C34.5603 56.009 34.4005 56.1051 34.2267 56.1675C34.0528 56.2299 33.8684 56.2575 33.6839 56.2486C33.4994 56.2397 33.3185 56.1946 33.1514 56.1158C32.9844 56.037 32.8345 55.9261 32.7103 55.7894C32.5861 55.6527 32.4901 55.4928 32.4277 55.319C32.3653 55.1452 32.3377 54.9607 32.3466 54.7762L33.435 32.2706C33.6403 27.6609 37.4316 22.5 42.1875 22.5H53.4375C58.1878 22.5 61.875 27.7931 61.875 32.3438V52.0312C61.875 53.865 60.6994 55.4287 59.0625 56.0081V85.7812C59.0625 86.1542 58.9143 86.5119 58.6506 86.7756C58.3869 87.0393 58.0292 87.1875 57.6562 87.1875Z" fill="#FACB01"/>
<path d="M49.2188 87.1875C48.8458 87.1875 48.4881 87.0393 48.2244 86.7756C47.9607 86.5119 47.8125 86.1542 47.8125 85.7812V60.4688C47.8125 60.0958 47.9607 59.7381 48.2244 59.4744C48.4881 59.2107 48.8458 59.0625 49.2188 59.0625C49.5917 59.0625 49.9494 59.2107 50.2131 59.4744C50.4768 59.7381 50.625 60.0958 50.625 60.4688V85.7812C50.625 86.1542 50.4768 86.5119 50.2131 86.7756C49.9494 87.0393 49.5917 87.1875 49.2188 87.1875ZM39.375 64.6875H30.9375C29.3878 64.6875 28.125 63.4275 28.125 61.875V56.25C28.125 54.6975 29.3878 53.4375 30.9375 53.4375H39.375C40.9247 53.4375 42.1875 54.6975 42.1875 56.25V61.875C42.1875 63.4275 40.9247 64.6875 39.375 64.6875ZM30.9375 56.25V61.875H39.3722L39.375 56.25H30.9375Z" fill="#FACB01"/>
</svg>
