<svg width="100" height="100" viewBox="0 0 100 100" fill="none" xmlns="http://www.w3.org/2000/svg">
<path d="M50 93.7503C35 93.7503 15.625 60.4065 15.625 25.0003C15.6238 24.4146 15.7873 23.8404 16.0967 23.3431C16.4061 22.8458 16.8491 22.4455 17.375 22.1878L48.8438 6.56279C49.2759 6.34807 49.7519 6.23633 50.2344 6.23633C50.7169 6.23633 51.1929 6.34807 51.625 6.56279L82.6563 22.1878C83.1764 22.4499 83.6129 22.8521 83.9166 23.349C84.2203 23.846 84.3791 24.4179 84.375 25.0003C84.375 60.4065 65 93.7503 50 93.7503ZM21.875 26.9378C22.5625 60.2503 40.625 87.5003 50 87.5003C59.375 87.5003 77.4375 60.2503 78.125 26.9065L50.2188 12.8753L21.875 26.9378ZM52.1875 55.344L64.6875 42.844L60.25 38.4065L49.5625 49.094L42.3125 44.2815L38.875 49.469L48.25 55.719C48.7673 56.0667 49.3768 56.2517 50 56.2503C50.4113 56.2527 50.819 56.1738 51.1997 56.0183C51.5805 55.8628 51.9268 55.6337 52.2188 55.344H52.1875Z" fill="url(#paint0_linear_1196_456)"/>
<defs>
<linearGradient id="paint0_linear_1196_456" x1="50" y1="6.23633" x2="50" y2="93.7503" gradientUnits="userSpaceOnUse">
<stop stop-color="#FACB01"/>
<stop offset="1" stop-color="#929200"/>
</linearGradient>
</defs>
</svg>
