<svg xmlns="http://www.w3.org/2000/svg" viewBox="0 0 28 28" id="location-pin">
  <path fill="#0c0c0c" d="M13.987 28C6.274 28 0 21.714 0 13.987 0 6.275 6.274 0 13.987 0 21.714 0 28 6.275 28 13.987 28 21.714 21.714 28 13.987 28zm0-27C6.826 1 1 6.826 1 13.987 1 21.163 6.826 27 13.987 27 21.162 27 27 21.163 27 13.987 27 6.826 21.162 1 13.987 1z"></path>
  <path fill="#0c0c0c" d="M18.161 8.619a5.89 5.89 0 0 0-8.322 0 5.892 5.892 0 0 0 0 8.322L14 21.102l4.161-4.161a5.892 5.892 0 0 0 0-8.322zm-.707 7.615L14 19.688l-3.454-3.454a4.891 4.891 0 0 1 0-6.908 4.891 4.891 0 0 1 6.908 0 4.891 4.891 0 0 1 0 6.908z"></path>
  <path fill="#0c0c0c" d="M14 9.895c-1.654 0-3 1.346-3 3s1.346 3 3 3 3-1.346 3-3-1.346-3-3-3zm0 5c-1.103 0-2-.897-2-2s.897-2 2-2 2 .897 2 2-.897 2-2 2z"></path>
</svg>
