<?xml version="1.0" encoding="UTF-8"?>
<svg id="Layer_1" data-name="Layer 1" xmlns="http://www.w3.org/2000/svg" viewBox="0 0 500.67 162">
  <defs>
    <style>
      .cls-1 {
        fill: #fff;
      }

      .cls-2 {
        font-family: CooperBlack, 'Cooper Black';
        font-size: 31.14px;
      }

      .cls-2, .cls-3, .cls-4 {
        fill: #facb00;
      }

      .cls-5 {
        letter-spacing: .01em;
      }

      .cls-6 {
        letter-spacing: 0em;
      }

      .cls-7 {
        letter-spacing: -.02em;
      }

      .cls-8 {
        letter-spacing: .03em;
      }

      .cls-3 {
        font-family: BellMT, 'Bell MT';
        font-size: 13.84px;
      }

      .cls-9 {
        fill: none;
      }

      .cls-10 {
        letter-spacing: .04em;
      }

      .cls-11 {
        letter-spacing: -.07em;
      }

      .cls-12 {
        letter-spacing: .05em;
      }

      .cls-13 {
        letter-spacing: -.1em;
      }

      .cls-14 {
        letter-spacing: .05em;
      }

      .cls-15 {
        letter-spacing: -.03em;
      }

      .cls-16 {
        letter-spacing: -.09em;
      }
    </style>
  </defs>
  <rect class="cls-9" x="-534.46" y="-354.34" width="549.02" height="438.63"/>
  <rect class="cls-9" x="-14.46" y="-354.34" width="549.02" height="438.63"/>
  <g>
    <path class="cls-1" d="M138.12,100.68c.15-.09,.26-.25,.38-.38,.08-.09,.23-.2,.23-.27l-.72,.72s.07-.04,.11-.06Z"/>
    <g>
      <path class="cls-4" d="M129.28,87.05c.07,.03,.17-.03,.26-.04,.03-.05,.06-.1,.09-.14-.13-.08-.3-.14-.4-.26-.14-.16-.28-.32-.42-.49l-.84,.84c.43-.11,.86-.09,1.3,.09Z"/>
      <path class="cls-4" d="M128.29,56.16c-.12-.61-.11-1.24-.19-1.86l-46.45,46.45s.03,.01,.04,.02c.38,.18,.79,.33,1.14,.58,.08,.05,.15,.09,.22,.12l45.26-45.26s-.01-.03-.01-.05Z"/>
      <path class="cls-4" d="M139.33,89.51c-.25,0-.49,.12-.74,.19,0,.06,0,.12,0,.17,.14,.07,.29,.13,.41,.23,.02,.02,.05,.05,.07,.08l.68-.68c-.14,0-.27,0-.41,0Z"/>
      <path class="cls-4" d="M129.47,58.57c-.1-.13-.22-.3-.21-.44,.03-.3-.08-.51-.22-.71l-42.86,42.86c.37-.11,.73-.25,1.05-.53,.38-.33,.95-.44,1.44-.65,.39-.17,.78-.36,1.21-.4l39.86-39.86c-.09-.08-.18-.17-.26-.27Z"/>
      <path class="cls-4" d="M129.25,67.43c.04-.41,.16-.82,.16-1.23,0-.34,0-.67,0-1.01l-31.76,31.76s.1-.05,.15-.09c.02-.01,.05,0,.08,0,.38,.02,.76,.09,1.13,.04,.28-.04,.54-.03,.79,.01l29.45-29.45s0-.02,0-.03Z"/>
      <path class="cls-4" d="M123.98,76.29c-.03-.41-.09-.94,.12-1.23,.28-.38,.61-.71,.7-1.2l-23.73,23.73c.36,.31,.75,.55,.97,1.01,.01,.03,.03,.05,.06,.07l21.98-21.98c-.05-.13-.09-.27-.1-.4Z"/>
      <path class="cls-4" d="M129.71,61.5c.06-.3,.13-.62,.23-.91l-36.9,36.9s.09-.02,.13-.03c.74-.19,1.55-.12,2.3-.29l34.01-34.01c.05-.56,.12-1.11,.23-1.66Z"/>
      <path class="cls-4" d="M139.91,99.47c.48,.11,1-.03,1.44,.37,.04,.04,.09,.07,.14,.11l9.86-9.86c-.23,0-.46-.01-.68,.02-.76,.1-.24-.52-.44-.76-.04-.05-.07-.1-.09-.15l-10.27,10.27s.03,0,.04,0Z"/>
      <path class="cls-4" d="M125.5,53.57c-.12-.12-.25-.24-.38-.36l-46.98,46.98c.72,.49,1.39,.61,2.11,0l47.41-47.41,.16,.16c-.02-.08-.04-.15-.05-.23-.62,.17-1.1,.43-1.5,.83-.26,.26-.47,.31-.76,.03Z"/>
      <path class="cls-4" d="M152.39,99.67c.06-.02,.1-.1,.14-.16,.34-.48,.44-.48,.84-.06,.11,.12,.29,.22,.45,.23,.05,0,.11,0,.16-.01l3.69-3.69c-.03-.12,0-.26,.09-.44,.04-.08-.08-.27-.17-.37-.09-.1-.28-.11-.36-.22-.09-.12-.18-.24-.28-.35l-5.31,5.31c.25-.08,.51-.15,.76-.24Z"/>
      <path class="cls-4" d="M154.85,92.62l-8.86,8.86c.09-.01,.17-.02,.25,0,.37,.07,.73,.2,1.08,.31,.2,.06,.36,.06,.47,0l.08-.08c.05-.07,.08-.17,.08-.31,0-.77,.64-.97,.96-1.32,.16,.06,.3,.11,.43,.16l6.38-6.38s-.07-.03-.1-.03c-.31-.02-.45-.14-.45-.44,0-.04-.04-.07-.06-.1-.13-.03-.25-.07-.42-.11,.06-.2,.09-.38,.16-.54,0,0,0,0,0,0Z"/>
      <path class="cls-4" d="M142.65,100.79c.11,.56,.23,.59,.8,.44,.22-.06,.49,.03,.72,.1l9.67-9.67c-.04-.07-.14-.13-.21-.14-.37-.06-.74-.09-1.1-.14-.16-.02-.28-.07-.37-.14l-9.52,9.52s0,.02,0,.03Z"/>
      <path class="cls-4" d="M136.2,107.95c-.02-.25-.05-.54,.06-.74,.03-.05,.06-.11,.09-.16l-17.22,17.22c.06,.1,.11,.21,.18,.32,.32,.17,.68,.36,.88,.72l15.94-15.94c.09-.46,.12-.93,.07-1.42Z"/>
      <path class="cls-4" d="M137.58,103.22c.2-.29,.17-.56,.03-.88-.07-.16-.1-.33-.12-.49l-20.39,20.39s.03,.03,.04,.05c.13,.22,.11,.48,.46,.48,.08,0,.17,.1,.24,.17,.11,.11,.23,.22,.35,.33l19.35-19.35c-.11-.27-.1-.47,.05-.69Z"/>
      <path class="cls-4" d="M150.49,86.62c-.26-.35-.54-.69-.81-1.04l-34.57,34.57c.14,.01,.29,0,.43,.02,.07,.01,.13,.11,.19,.16-.08,.03-.17,.09-.25,.09-.15-.01-.3-.06-.45-.1-.03,.06-.05,.11-.08,.17,.39,.25,.79,.48,1.16,.76l34.42-34.42c0-.08-.01-.15-.05-.21Z"/>
      <path class="cls-4" d="M147.02,84.72c-.19-.07-.4-.3-.54,.1-.03,.1-.18,.18-.32,.22l-.32,.32s.03,.07,.05,.1c.12,.25,.17,.58-.13,.67-.33,.1-.64,.1-.61,.56,0,.05-.14,.14-.23,.17-.66,.21-.98,.77-1.24,1.32-.13,.27-.29,.43-.5,.44-.41,0-.57,.18-.58,.59-.2,0-.4-.03-.58-.04l-28.54,28.54c.2-.08,.4-.15,.6-.22,.25,.43,.23,.45-.24,.52-.13,.02-.23,.15-.35,.24,.09,.11,.16,.23,.26,.32,.04,.04,.12,.02,.23,.04-.12,.11-.21,.18-.29,.25,.03,.05,.04,.1,.06,.1,.21,0,.36,.05,.46,.14l34.54-34.54c-.46-.56-1.39-.51-1.73,.16Z"/>
      <path class="cls-4" d="M158.59,97.22c-.05,0-.11-.02-.16-.05l-1.69,1.69c.13,0,.28-.02,.43-.05,.24-.05,.65-.08,.73,.04,.18,.26,.4,.3,.64,.31l1.4-1.4c-.07-.04-.15-.08-.24-.1-.39-.09-.64-.48-1.11-.44Z"/>
      <path class="cls-4" d="M135.5,113.92c-.09-.17-.05-.46,.02-.66,.16-.46,.38-.91,.53-1.27-.04-.17-.08-.31-.12-.46l-13.76,13.76s.09-.06,.14-.09c.24-.17,.45-.37,.63-.52,.4,.31,.75,.59,1.09,.86l11.5-11.5s-.03-.07-.05-.11Z"/>
      <path class="cls-4" d="M129.24,124.4l2.38-2.38s0-.09,0-.13c0-.51-.02-1.02-.03-1.53,0-.14,.03-.29,0-.42l-4.57,4.57s.1-.02,.15-.03c.22,.17,.32,.44,.1,.84-.17,.31,.05,.59,.32,.7,0,0,.02,0,.03,0l1.56-1.56s.04-.04,.06-.06Z"/>
      <path class="cls-4" d="M114.85,106.25s0,0,0,0l14.21-14.21c-.02-.08-.04-.16-.07-.24-.15-.44-.41-.78-.71-1.08l-13.7,13.7c.05,.08,.1,.17,.15,.25,.31,.46,.78,.9,.14,1.45-.03,.02-.02,.08-.03,.12Z"/>
      <path class="cls-4" d="M111.33,101.64l16.92-16.92c-.01-.08-.03-.16-.04-.24-.12-.56-.29-1.12,.14-1.61-.02-.12,0-.23,0-.34l-19.23,19.23c.14,0,.29-.03,.49-.11,.26-.1,.55-.13,.91-.2-.02-.15-.05-.42-.09-.74,.4,.17,.7,.3,.94,.4-.01,.21-.02,.38-.03,.54Z"/>
      <path class="cls-4" d="M127.81,80.97c-.03-.43-.11-.83-.62-1.01-.07-.03-.15-.08-.21-.14l-22.51,22.51s0,0,.01,0c.33,.18,.56,.15,.68-.23,.51,.36,.65,.32,1.12-.26,.14,.06,.3,.2,.4,.17,.16-.06,.3-.14,.45-.23l20.69-20.69s0-.07,0-.12Z"/>
      <path class="cls-4" d="M126.16,88.81s-.01,0-.02,0l-13.75,13.75c.03,.07,.06,.14,.1,.19,.24,.31,.74,.41,1.11,.6,.22-.14,.36-.46,.58-.48l13.01-13.01c-.43-.26-.86-.52-1.03-1.05Z"/>
      <path class="cls-4" d="M132.14,92.78v.16c-.25,.15-.51,.31-.78,.46-.09,.05-.2,.07-.3,.1-.28,.1-.55,.26-.83,.28-.27,.03-.56-.04-.86-.09l-14.63,14.63s0,0,0,.01c-.07,.23-.1,.47-.2,.68-.25,.47-.54,.93-.86,1.47,.27,.08,.53,.16,.78,.24l17.82-17.82s-.09-.08-.13-.13Z"/>
      <path class="cls-4" d="M125.74,78.99c-.41-.25-.61-.7-.88-1.11l-21.63,21.63c.06,.05,.12,.1,.18,.15l-.17,.06c-.08,.22-.26,.45-.24,.66,.04,.42,.19,.77,.4,1.06l22.45-22.45s-.08,0-.11,0Z"/>
      <path class="cls-4" d="M136.92,92.13c-.33,.06-.65,.18-.98,.24-.28,.05-.57,0-.84,.05-.22,.04-.42,.13-.61,.24l-20.12,20.12c.17,.07,.34,.14,.5,.21,.13,.06,.25,.12,.38,.18-.46,.1-.92,.27-1.31,.04l-.44,.44c.03,.34,.06,.68,.09,1.02,0,.08,0,.19-.05,.25-.24,.28-.49,.55-.76,.84-.13-.08-.34-.22-.55-.35-.04,.03-.08,.06-.12,.08,.09,.17,.17,.36,.27,.52,.11,.17,.31,.3,.35,.48,0,0,0,.02,0,.02l24.36-24.36c-.06-.02-.12-.03-.18-.02Z"/>
    </g>
    <path class="cls-1" d="M160.45,98.64s.03,.02,.04,.03c0-.02,0-.04-.01-.06l-.03,.03Z"/>
    <g>
      <path d="M123.37,51.49c-.31-.1-.63-.16-.95-.23l-49.07,49.07c.05,0,.11-.01,.16,0,.46,.1,.81,.03,1.13-.31,.18-.19,.35-.19,.59,0,.1,.07,.29,.1,.46,.08l48.32-48.32c-.21-.11-.43-.21-.65-.28Z"/>
      <path d="M120.54,50.91c-.57-.09-1.03,.13-1.52,.43-.59,.36-1.19,.71-1.8,1.06l-49.48,49.48c.06,.03,.13,.05,.18,.09,.51,.39,.94,.41,1.49,.08,.14-.09,.3-.14,.46-.2l50.9-50.9c-.08-.01-.16-.03-.23-.04Z"/>
      <path d="M110.03,56.69c-.76,.49-1.49,1.02-2.2,1.58-1,.79-1.97,1.61-2.95,2.42-.07,.06-.14,.12-.21,.18l-39.8,39.8c.23,.09,.45,.19,.63,.34,.23,.18,.46,.32,.71,.43l46.29-46.29c-.83,.5-1.65,1.01-2.47,1.53Z"/>
      <path d="M46.76,78.13s.07-.04,.09-.07c0-.02,.02-.03,.03-.04l-.11,.11Z"/>
      <path d="M47.19,77.69c.3-.16,.69-.13,.99-.27,.12-.06,.38,.14,.57,.23,.12,.06,.21,.16,.33,.22,0,0,.02,0,.02,.01l28.52-28.52c-.43-.27-.87-.54-1.3-.81l-29.14,29.14Z"/>
      <path d="M44.87,81.1c-.27-.09-.54-.18-.81-.27l-.44,.44c.02,.05,.04,.11,.08,.13,.21,.15,1.02-.07,1.17-.3Z"/>
      <path d="M44.77,81.58c-.15,.05-.3,.13-.45,.2,.07,.14,.14,.28,.21,.43,.23-.15,.39-.26,.56-.36,0,0,.02,.02,.03,.03l.44-.44c-.26,0-.53,.06-.79,.14Z"/>
      <path d="M51.8,81.22l-.31,.31c.24-.08,.31-.15,.31-.31Z"/>
      <path d="M78.84,50.11l-28.12,28.12c.12-.05,.25-.09,.37-.1,.28-.03,.71,.59,.53,.7-.38,.24-.86,.55-1.24,.49-.2-.03-.4-.08-.6-.15l-1.28,1.28s.08,0,.12,0c.66-.02,1.34,.12,1.98-.18,.05-.02,.12,0,.17,0,0,0,0,0,0,0l29.37-29.37c-.43-.27-.87-.53-1.3-.8Z"/>
      <path d="M45.59,80.83c.16-.09,.31-.12,.41-.07,.06,.03,.11,.05,.16,.07l2.19-2.19s-.07-.03-.11-.04c-.1-.03-.29-.02-.32,.04-.19,.37-.52,.35-.85,.35-.35,0-.69,0-.85,.42-.03,.08-.23,.14-.36,.14-.18,0-.35,0-.53,0l-1.15,1.15c.3,.07,.61,.11,.87,.26,.32,.18,.58,.29,.78,.2l.07-.07c-.1-.09-.21-.18-.31-.27Z"/>
      <path d="M57.44,45.15c-.31,0-.62,0-.93,0-.43,0-.58,.15-.53,.55,.03,.27,.07,.54,.1,.81l1.36-1.36Z"/>
      <path d="M46.37,83.06c.11,0,.28,0,.33-.07,.44-.59,1.06-.36,1.64-.42,0,.04,.02,.09,.03,.13l1.86-1.86c-.52-.01-1.04-.07-1.56-.08-.16,0-.33,0-.49,.03l-2.25,2.25s-.01,.02-.02,.03c.16,0,.32,0,.47,0Z"/>
      <path d="M44.25,77.25s.06,.03,.09,.05c-.06,.19-.11,.39-.2,.68,.24,.03,.49,.05,.73,.08l30.25-30.25c-.43-.27-.87-.54-1.3-.81l-30.2,30.2c.07,.14,.14,.28,.21,.43,.2-.18,.31-.28,.42-.37Z"/>
      <path d="M44.81,57.78c-.5,0-1,0-1.49,.02-.19,0-.38,.05-.58,.07,.26,.42,.5,.82,.75,1.24l1.33-1.33Z"/>
      <path d="M81.36,51.66l-29.36,29.36s.02,.03,.02,.05c.02,.18,0,.44-.1,.54-.25,.24-.33,.34-.04,.66,.38,.42-.01,1.13-.59,1.17-.07,0-.14,0-.21,0-.47-.06-.9,.03-1.31,.27,.18-.47,.5-.68,1.01-.52,.03,0,.06,0,.09,0,.3-.01,.65,.05,.78-.3,.14-.37-.13-.57-.43-.73-.06-.03-.13-.12-.16-.19l-1.77,1.77c.11-.02,.25-.02,.46,0-.07,.06-.14,.11-.21,.17-.12,.09-.29,.14-.36,.25-.15,.25-.26,.54-.36,.77,.13,.3,.25,.57,.38,.83,.02,.04,.05,.07,.08,.1l33.39-33.39c-.43-.27-.87-.53-1.3-.8Z"/>
      <path d="M48.34,85.21c.18-.34,.33-.59,.45-.87,.03-.07,.06-.14,.08-.19l-.79,.79c.1,.08,.19,.16,.26,.27Z"/>
      <path d="M47.17,83.12c.08,.06,.21,.18,.23,.17,.17-.12,.3-.11,.42-.05l.33-.33c-.27-.02-.53-.04-.78-.04-.07,0-.13,.16-.2,.25Z"/>
      <path d="M52.39,57.7c-.49,0-.99,.01-1.48,.02l-6.01,6.01c.11,.2,.21,.41,.21,.61,0,.23,0,.38,.14,.55,.06,.07,.15,.16,.16,.24,0,.06,0,.12,.01,.18l7.62-7.62c-.22,0-.43,0-.65,0Z"/>
      <path d="M89.79,56.84c-.29-.18-.58-.36-.87-.54l-35.04,35.04s.1-.02,.16-.04c.14-.04,.29-.05,.43-.07q-1.01,.66-.83,1.11c.49-.16,.62-.06,.62,.47,0,.07,0,.14,0,.22,0,.02,0,.03,0,.04l35.97-35.97c-.15-.08-.29-.17-.44-.26Z"/>
      <path d="M86.4,54.76l-34.06,34.06c.16,.29,.41,.48,.67,.7,.13,.11,.24,.24,.36,.38l34.34-34.34c-.43-.27-.87-.53-1.3-.8Z"/>
      <path d="M71.3,45.45l-27.31,27.31s-.04,.08-.06,.11c-.4,.59-.67,1.24-1.22,1.74-.24,.21-.41,.41-.75,.37-.07,0-.13,0-.18,0l-.21,.21c0,.08,.02,.19,.06,.3,.15-.06,.29-.14,.42-.14,.17,0,.49,.08,.49,.13,0,.33,.2,.43,.37,.47l29.7-29.7c-.43-.27-.87-.53-1.31-.8Z"/>
      <path d="M83.88,53.21l-33.73,33.73c.12,.1,.23,.21,.31,.34,.21,.34,.39,.39,.56,.27,.14,.09,.27,.16,.39,.24l33.78-33.78c-.43-.27-.87-.53-1.3-.8Z"/>
      <path d="M96.58,62.17c.08-.06,.14-.24,.13-.35-.03-.28-.1-.56-.18-.93l-36.46,36.46c.07,.18,.21,.31,.57,.27,.23-.03,.51,.11,.71,.24,.06,.04,.12,.09,.18,.13l35.02-35.02c-.23-.22-.35-.52,.02-.8Z"/>
      <path d="M94.53,60.39c-.1-.02-.19-.18-.26-.28-.13-.2-.25-.41-.37-.62-.11,.22-.25,.32-.39,.36l-35.66,35.66c.35,.14,.78,.19,.78,.73,0,.05,.09,.11,.16,.14,.06,.03,.13,.07,.2,.1l35.99-35.99c-.15-.03-.3-.06-.44-.09Z"/>
      <path d="M91.32,58.67c-.13-.04-.33-.29-.3-.4,0,0,0,0,0-.01l-35.5,35.5c.04,.22,.07,.43,.1,.64,.05,.3,.21,.46,.53,.43,.14-.01,.27-.01,.41,0l35.72-35.72c-.26-.25-.6-.34-.95-.45Z"/>
      <path d="M53.32,53.34l.54-.54c-.28,.14-.44,.32-.54,.54Z"/>
      <path d="M70.09,44.7c-.44-.27-.87-.53-1.31-.8l-23.33,23.33c-.08,.84-.34,1.62-.85,2.35-.13,.19-.23,.44-.26,.67,0,.07-.01,.14-.01,.21l25.77-25.77Z"/>
      <path d="M64.94,45.16c-.28,0-.49,0-.7,0-.26,0-.52,0-.78,0l-10.22,10.22c-.01,.13-.03,.25-.06,.37-.11,.47-.02,.84,.16,1.23,.04,.09,.09,.18,.13,.27l14.09-14.09c-.35-.21-.7-.43-1.04-.64-.09-.05-.18-.1-.27-.16l-1.4,1.4c.03,.46,.06,.92,.09,1.39Z"/>
      <path d="M64.71,41.59c0,.11,.01,.22,.02,.33l.29-.29c-.06-.04-.12-.07-.18-.11-.04,.02-.08,.04-.13,.06Z"/>
      <path d="M56.12,50.54l5.38-5.38c-.7,0-1.4,0-2.1,0l-3.27,3.27c0,.7,0,1.4,0,2.1Z"/>
      <path d="M100.73,62.41c-.7,.14-1.4,.29-2.09,.44l-36,36s.02,.02,.03,.03c.35,.33,.66,.71,.98,1.06l37.64-37.64c-.19,.04-.37,.07-.56,.11Z"/>
      <path d="M48.92,57.74c-.71,0-1.42,.01-2.13,.02l-2.21,2.21s.05,.1,.07,.15c.09,.22,.1,.48,.2,.69,.13,.27-.35,.64,.16,.83,0,0,0,0,0,0l3.9-3.9Z"/>
    </g>
    <path class="cls-4" d="M101.03,28.02c-12.34,0-23.75,4.05-32.98,10.91,.08,.03,.16,.07,.22,.1l1.31,.79c.09,.05,.18,.12,.27,.2,8.79-6.33,19.55-10.05,31.17-10.05,29.51,0,53.52,24,53.52,53.51,0,1.22-.04,2.45-.13,3.64,.01,0,.01,.01,.01,.01,.7,.14,1.35,.48,1.89,.94,.12-1.51,.18-3.05,.18-4.59,0-30.57-24.89-55.46-55.47-55.46Z"/>
    <path d="M151.62,103.22c-.14,0-.29-.04-.43-.05-.04,.05-.07,.1-.09,.14-.14,.21-.3,.39-.47,.56-.07,.07-.13,.13-.21,.21-4.14,9.89-11.18,18.29-20.04,24.12,0,0,0,.01-.01,.01-.44,.3-.89,.57-1.34,.86-8.15,5.02-17.74,7.93-28,7.93-27.19,0-49.69-20.38-53.06-46.66-.21-.17-.4-.39-.59-.64-.27-.27-.49-.59-.66-.94-.01,0-.01-.01-.03-.01-.34-.16-.65-.36-.92-.6,2.38,28.41,26.25,50.8,55.26,50.8,23.71,0,44.01-14.97,51.92-35.95l-.18,.05c-.38,.12-.75,.17-1.15,.17Z"/>
  </g>
  <text class="cls-2" transform="translate(175.49 82.32)"><tspan class="cls-8" x="0" y="0">S</tspan><tspan class="cls-14" x="21.13" y="0">AHEL POLITI</tspan><tspan class="cls-10" x="250.82" y="0">C</tspan><tspan class="cls-12" x="274.44" y="0">A</tspan></text>
  <text class="cls-3" transform="translate(192.05 104.93)"><tspan class="cls-15" x="0" y="0">N</tspan><tspan class="cls-13" x="9.9" y="0">A</tspan><tspan class="cls-6" x="18.08" y="0">VIG</tspan><tspan class="cls-11" x="43.74" y="0">A</tspan><tspan class="cls-5" x="52.31" y="0">TING RISK, ENSURING IM</tspan><tspan class="cls-16" x="226.94" y="0">P</tspan><tspan class="cls-7" x="234.16" y="0">A</tspan><tspan class="cls-5" x="243.46" y="0">CT</tspan></text>
</svg>