<?xml version="1.0" encoding="UTF-8"?>
<svg id="Layer_1" data-name="Layer 1" xmlns="http://www.w3.org/2000/svg" viewBox="0 0 500.67 162">
  <defs>
    <style>
      .cls-1 {
        letter-spacing: 0em;
      }

      .cls-2 {
        font-family: BellMT, 'Bell MT';
        font-size: 15.06px;
      }

      .cls-2, .cls-3, .cls-4 {
        fill: #facb00;
      }

      .cls-5 {
        fill: #fff;
      }

      .cls-6 {
        letter-spacing: .05em;
      }

      .cls-7 {
        letter-spacing: -.07em;
      }

      .cls-8 {
        letter-spacing: .05em;
      }

      .cls-9 {
        letter-spacing: .03em;
      }

      .cls-10 {
        letter-spacing: -.1em;
      }

      .cls-11 {
        fill: none;
      }

      .cls-12 {
        letter-spacing: -.09em;
      }

      .cls-3 {
        font-family: CooperBlack, 'Cooper Black';
        font-size: 33.87px;
      }

      .cls-13 {
        letter-spacing: -.03em;
      }

      .cls-14 {
        letter-spacing: .04em;
      }

      .cls-15 {
        letter-spacing: -.02em;
      }
    </style>
  </defs>
  <g>
    <circle class="cls-4" cx="67" cy="81" r="65"/>
    <g>
      <path class="cls-5" d="M104.77,98.96c.15-.1,.26-.26,.38-.39,.08-.09,.23-.2,.23-.28l-.73,.73s.08-.04,.11-.06Z"/>
      <g>
        <path class="cls-5" d="M95.76,85.08c.07,.03,.18-.03,.27-.04,.03-.05,.06-.1,.1-.15-.14-.09-.3-.15-.4-.26-.14-.16-.29-.33-.42-.5l-.86,.86c.44-.12,.88-.1,1.32,.09Z"/>
        <path class="cls-5" d="M94.75,53.62c-.12-.62-.11-1.26-.19-1.89l-47.3,47.3s.03,.01,.04,.02c.39,.19,.81,.34,1.16,.59,.08,.06,.15,.09,.22,.12l46.09-46.09s-.01-.03-.01-.05Z"/>
        <path class="cls-5" d="M105.99,87.58c-.25,0-.5,.12-.75,.19,0,.06,0,.12,0,.18,.14,.08,.29,.14,.41,.23,.02,.02,.05,.05,.07,.08l.69-.69c-.14,0-.28,0-.42,0Z"/>
        <path class="cls-5" d="M95.96,56.08c-.1-.13-.22-.3-.21-.45,.03-.3-.08-.52-.23-.72l-43.64,43.64c.37-.12,.74-.26,1.07-.54,.39-.34,.97-.45,1.46-.67,.4-.18,.8-.36,1.23-.41l40.59-40.59c-.09-.09-.19-.17-.26-.27Z"/>
        <path class="cls-5" d="M95.73,65.1c.04-.42,.17-.83,.16-1.25,0-.34,0-.68,0-1.02l-32.34,32.34c.05-.03,.1-.06,.15-.1,.02-.01,.06,0,.08,0,.38,.02,.78,.09,1.15,.04,.29-.04,.55-.04,.81,.01l29.99-29.99s0-.02,0-.03Z"/>
        <path class="cls-5" d="M90.37,74.12c-.03-.42-.09-.96,.12-1.25,.29-.39,.62-.73,.71-1.22l-24.17,24.17c.37,.31,.77,.56,.99,1.02,.01,.03,.04,.05,.06,.07l22.38-22.38c-.05-.14-.09-.27-.1-.41Z"/>
        <path class="cls-5" d="M96.2,59.07c.07-.31,.13-.63,.24-.93l-37.58,37.58s.09-.02,.13-.03c.75-.2,1.58-.12,2.34-.29l34.63-34.63c.05-.57,.12-1.13,.24-1.69Z"/>
        <path class="cls-5" d="M106.59,97.73c.49,.12,1.02-.03,1.46,.38,.04,.04,.09,.07,.14,.11l10.04-10.04c-.23,0-.47-.01-.7,.02-.77,.1-.24-.53-.44-.78-.04-.05-.07-.1-.09-.15l-10.46,10.46s.03,0,.04,0Z"/>
        <path class="cls-5" d="M91.92,50.99c-.13-.13-.26-.25-.39-.37l-47.84,47.84c.73,.5,1.42,.62,2.15,0l48.28-48.28,.17,.17c-.02-.08-.04-.16-.06-.24-.63,.17-1.12,.43-1.53,.85-.26,.27-.48,.32-.77,.03Z"/>
        <path class="cls-5" d="M119.3,97.93c.06-.02,.1-.1,.14-.16,.34-.49,.45-.49,.85-.06,.11,.12,.3,.22,.46,.23,.05,0,.11,0,.16-.01l3.75-3.75c-.03-.12,0-.27,.09-.45,.04-.08-.08-.28-.17-.38-.09-.1-.29-.12-.36-.22-.09-.13-.19-.25-.29-.36l-5.41,5.41c.26-.08,.52-.16,.77-.24Z"/>
        <path class="cls-5" d="M121.8,90.75l-9.03,9.03c.09-.02,.17-.02,.26,0,.38,.07,.74,.2,1.1,.32,.2,.06,.37,.07,.48,0l.08-.08c.05-.07,.08-.17,.08-.31,0-.79,.65-.99,.97-1.34,.16,.06,.3,.11,.44,.17l6.49-6.49s-.07-.03-.1-.03c-.32-.02-.46-.15-.46-.45,0-.04-.04-.07-.06-.11-.13-.03-.25-.07-.42-.11,.06-.2,.09-.38,.16-.55,0,0,0,0,0,0Z"/>
        <path class="cls-5" d="M109.38,99.07c.12,.57,.23,.6,.82,.45,.22-.06,.5,.03,.74,.1l9.85-9.85c-.04-.07-.14-.13-.22-.15-.37-.06-.75-.09-1.12-.15-.16-.02-.28-.07-.37-.14l-9.7,9.7s0,.02,0,.03Z"/>
        <path class="cls-5" d="M102.81,106.36c-.03-.25-.05-.55,.06-.76,.03-.06,.06-.11,.09-.16l-17.53,17.53c.06,.1,.11,.21,.19,.33,.33,.18,.69,.37,.89,.73l16.23-16.23c.09-.47,.12-.95,.07-1.45Z"/>
        <path class="cls-5" d="M104.22,101.54c.2-.3,.18-.57,.03-.9-.07-.16-.1-.33-.13-.5l-20.76,20.76s.03,.03,.04,.05c.13,.23,.11,.49,.47,.49,.08,0,.17,.1,.24,.17,.12,.11,.23,.22,.35,.33l19.7-19.7c-.11-.27-.1-.48,.05-.71Z"/>
        <path class="cls-5" d="M117.36,84.65c-.27-.36-.55-.71-.83-1.06l-35.2,35.2c.14,.01,.3,0,.44,.02,.07,.01,.13,.11,.19,.17-.08,.03-.17,.1-.25,.09-.15-.01-.3-.07-.45-.1-.03,.06-.06,.11-.08,.17,.4,.26,.81,.49,1.18,.78l35.05-35.05c0-.08-.01-.16-.05-.21Z"/>
        <path class="cls-5" d="M113.83,82.7c-.2-.07-.41-.3-.55,.1-.03,.1-.19,.19-.33,.23l-.33,.33s.03,.07,.05,.11c.13,.26,.17,.59-.13,.68-.33,.1-.65,.1-.62,.57,0,.05-.15,.14-.24,.17-.67,.21-.99,.79-1.26,1.35-.13,.27-.3,.44-.51,.44-.42,0-.58,.18-.59,.6-.2,0-.4-.03-.59-.04l-29.06,29.06c.2-.08,.41-.15,.61-.23,.26,.44,.24,.46-.24,.53-.13,.02-.24,.16-.36,.24,.09,.11,.17,.23,.27,.33,.04,.04,.13,.02,.23,.04-.12,.11-.21,.18-.3,.26,.03,.06,.04,.1,.06,.1,.21,0,.36,.05,.47,.14l35.17-35.17c-.47-.57-1.42-.51-1.76,.16Z"/>
        <path class="cls-5" d="M125.61,95.44c-.05,0-.11-.02-.16-.06l-1.72,1.72c.14,0,.28-.02,.44-.05,.25-.05,.66-.08,.75,.05,.18,.26,.41,.31,.65,.32l1.43-1.43c-.07-.04-.15-.08-.25-.1-.39-.09-.65-.49-1.13-.45Z"/>
        <path class="cls-5" d="M102.09,112.44c-.09-.17-.05-.46,.03-.67,.16-.47,.38-.92,.54-1.3-.04-.17-.08-.32-.12-.46l-14.01,14.01s.1-.06,.14-.09c.24-.17,.46-.38,.64-.53,.4,.32,.76,.6,1.11,.87l11.72-11.72s-.03-.07-.05-.11Z"/>
        <path class="cls-5" d="M95.72,123.11l2.43-2.43s0-.09,0-.13c0-.52-.02-1.04-.03-1.56,0-.14,.03-.3,0-.43l-4.65,4.65c.05-.01,.1-.02,.15-.03,.23,.17,.33,.45,.11,.86-.17,.31,.06,.6,.33,.71,0,0,.02,0,.03,0l1.58-1.58s.04-.04,.06-.06Z"/>
        <path class="cls-5" d="M81.07,104.63s0,0,0,0l14.47-14.47c-.02-.08-.04-.17-.07-.24-.15-.45-.42-.79-.73-1.1l-13.95,13.95c.05,.09,.1,.17,.16,.25,.31,.47,.79,.91,.15,1.48-.03,.02-.02,.08-.03,.13Z"/>
        <path class="cls-5" d="M77.49,99.94l17.23-17.23c-.01-.08-.03-.17-.05-.25-.12-.57-.29-1.14,.14-1.64-.02-.12,0-.24,0-.35l-19.58,19.58c.14,0,.3-.03,.49-.11,.26-.11,.56-.13,.92-.21-.02-.15-.05-.43-.09-.75,.41,.17,.71,.31,.96,.41-.01,.22-.02,.38-.03,.55Z"/>
        <path class="cls-5" d="M94.26,78.89c-.03-.44-.11-.85-.63-1.03-.08-.03-.15-.08-.22-.14l-22.92,22.92s0,0,.01,0c.34,.19,.57,.15,.69-.24,.52,.37,.66,.33,1.14-.27,.14,.06,.31,.21,.4,.17,.16-.06,.31-.14,.46-.23l21.07-21.07s0-.08,0-.12Z"/>
        <path class="cls-5" d="M92.58,86.87s-.01,0-.02,0l-14.01,14.01c.03,.07,.06,.14,.11,.2,.25,.31,.75,.42,1.13,.61,.22-.14,.37-.47,.59-.49l13.25-13.25c-.44-.26-.88-.53-1.05-1.07Z"/>
        <path class="cls-5" d="M98.67,90.91v.16c-.25,.16-.52,.32-.79,.47-.09,.05-.2,.07-.3,.1-.28,.1-.56,.26-.84,.29-.28,.03-.57-.04-.88-.09l-14.9,14.9s0,0,0,.01c-.07,.23-.1,.48-.21,.69-.26,.48-.55,.94-.88,1.49,.27,.08,.54,.16,.79,.24l18.15-18.15s-.09-.09-.13-.13Z"/>
        <path class="cls-5" d="M92.16,76.87c-.41-.25-.62-.71-.9-1.13l-22.03,22.03c.06,.05,.12,.1,.18,.15l-.17,.06c-.08,.22-.26,.46-.24,.67,.04,.43,.19,.78,.41,1.08l22.86-22.86s-.08,0-.12,0Z"/>
        <path class="cls-5" d="M103.54,90.25c-.34,.07-.66,.19-1,.24-.28,.05-.58,0-.86,.05-.23,.04-.43,.13-.62,.24l-20.49,20.49c.17,.07,.34,.14,.51,.21,.13,.06,.26,.12,.39,.18-.47,.1-.93,.27-1.34,.04l-.45,.45c.03,.35,.06,.69,.09,1.04,0,.08,0,.19-.05,.25-.24,.29-.5,.56-.77,.86-.13-.08-.35-.22-.56-.35-.04,.03-.08,.06-.12,.08,.09,.18,.17,.36,.28,.53,.11,.17,.32,.31,.36,.49,0,0,0,.02,0,.02l24.81-24.81c-.06-.02-.12-.03-.18-.02Z"/>
      </g>
      <path class="cls-5" d="M127.5,96.88s.03,.02,.04,.03c0-.02,0-.04-.01-.06l-.03,.03Z"/>
      <g>
        <path d="M89.74,48.87c-.31-.11-.64-.17-.96-.23l-49.97,49.97c.06,0,.11-.01,.16,0,.47,.1,.83,.03,1.15-.32,.18-.19,.36-.19,.61,0,.1,.08,.3,.1,.47,.08l49.21-49.21c-.21-.11-.43-.21-.66-.29Z"/>
        <path d="M86.86,48.28c-.58-.09-1.05,.13-1.54,.43-.6,.37-1.22,.72-1.83,1.08l-50.39,50.39c.07,.03,.13,.06,.19,.1,.52,.4,.96,.42,1.51,.08,.14-.09,.31-.15,.47-.2l51.83-51.83c-.08-.01-.16-.03-.24-.04Z"/>
        <path d="M76.16,54.17c-.77,.5-1.52,1.04-2.24,1.61-1.02,.8-2,1.64-3,2.47-.07,.06-.14,.12-.22,.19L30.18,98.96c.23,.1,.45,.2,.64,.35,.23,.18,.47,.32,.72,.43l47.13-47.13c-.84,.51-1.68,1.03-2.51,1.56Z"/>
        <path d="M11.73,76s.07-.04,.09-.07c0-.02,.02-.03,.03-.04l-.11,.11Z"/>
        <path d="M12.18,75.55c.31-.16,.7-.13,1.01-.28,.13-.06,.39,.14,.58,.24,.12,.06,.22,.17,.34,.22,0,0,.02,0,.02,.01l29.05-29.05c-.44-.27-.88-.55-1.32-.82l-29.67,29.67Z"/>
        <path d="M9.81,79.02c-.27-.09-.55-.18-.82-.28l-.45,.45c.02,.05,.04,.11,.08,.13,.22,.15,1.04-.07,1.19-.3Z"/>
        <path d="M9.71,79.51c-.16,.05-.3,.13-.45,.2,.07,.14,.14,.28,.22,.44,.23-.15,.4-.26,.57-.37,0,0,.02,.02,.03,.03l.44-.44c-.27,0-.53,.06-.8,.15Z"/>
        <path d="M16.87,79.14l-.32,.32c.24-.09,.32-.15,.32-.32Z"/>
        <path d="M44.4,47.46l-28.63,28.63c.12-.05,.25-.09,.38-.1,.29-.03,.73,.6,.54,.71-.39,.24-.87,.56-1.26,.5-.21-.03-.41-.09-.61-.15l-1.3,1.3s.08,0,.12,0c.68-.02,1.37,.12,2.02-.18,.05-.02,.12,0,.17,0,0,0,0,0,0,0l29.9-29.9c-.44-.27-.89-.54-1.33-.82Z"/>
        <path d="M10.54,78.74c.16-.09,.31-.12,.42-.07,.06,.03,.11,.05,.16,.07l2.23-2.23s-.07-.03-.11-.04c-.1-.03-.3-.02-.33,.04-.2,.38-.53,.36-.87,.35-.36,0-.7,0-.87,.43-.03,.08-.24,.14-.37,.14-.18,0-.36,0-.54,0l-1.17,1.17c.3,.08,.63,.12,.88,.27,.32,.19,.59,.29,.79,.2l.08-.08c-.11-.09-.21-.18-.32-.27Z"/>
        <path d="M22.61,42.42c-.32,0-.63,0-.95,0-.44,0-.59,.15-.54,.56,.03,.28,.07,.55,.1,.83l1.39-1.39Z"/>
        <path d="M11.34,81.01c.11,0,.28,0,.33-.07,.44-.6,1.08-.37,1.67-.43,.01,.04,.02,.09,.03,.13l1.89-1.89c-.53-.01-1.06-.07-1.59-.08-.17,0-.34,0-.5,.03l-2.3,2.3s-.01,.02-.02,.03c.16,0,.32,0,.48,0Z"/>
        <path d="M9.18,75.1s.06,.03,.09,.05c-.06,.2-.11,.39-.2,.69,.25,.03,.5,.05,.74,.08l30.81-30.8c-.44-.27-.88-.55-1.32-.82l-30.75,30.75c.07,.14,.14,.29,.21,.43,.2-.18,.31-.28,.42-.38Z"/>
        <path d="M9.75,55.28c-.51,0-1.01,.01-1.52,.02-.19,0-.38,.05-.59,.08,.26,.43,.51,.84,.76,1.26l1.35-1.35Z"/>
        <path d="M46.97,49.04l-29.9,29.9s.02,.03,.03,.05c.02,.18,0,.44-.1,.55-.25,.24-.34,.34-.04,.67,.39,.43-.01,1.15-.6,1.2-.07,0-.15,0-.22,0-.48-.06-.92,.04-1.33,.27,.18-.47,.5-.69,1.03-.53,.03,0,.06,0,.09,0,.3-.01,.66,.05,.79-.3,.14-.38-.13-.58-.44-.74-.06-.03-.13-.12-.17-.19l-1.8,1.8c.11-.02,.26-.02,.47,0-.07,.06-.14,.12-.22,.17-.12,.09-.29,.14-.36,.26-.15,.26-.26,.54-.37,.78,.14,.3,.25,.58,.39,.85,.02,.04,.05,.07,.08,.11L48.29,49.86c-.44-.27-.88-.54-1.33-.82Z"/>
        <path d="M13.34,83.21c.18-.34,.34-.6,.45-.88,.03-.07,.06-.14,.08-.2l-.8,.8c.1,.08,.2,.16,.27,.28Z"/>
        <path d="M12.15,81.08c.08,.06,.21,.19,.24,.17,.18-.13,.31-.11,.42-.05l.34-.34c-.27-.02-.54-.04-.8-.04-.07,0-.13,.17-.2,.26Z"/>
        <path d="M17.46,55.19c-.5,0-1.01,.01-1.51,.02l-6.12,6.12c.12,.2,.21,.41,.21,.62,0,.23,0,.39,.14,.56,.07,.07,.15,.16,.16,.25,0,.06,0,.13,.01,.19l7.76-7.76c-.22,0-.44,0-.66,0Z"/>
        <path d="M55.55,54.32c-.3-.18-.59-.37-.89-.55L18.98,89.46s.1-.02,.16-.04c.14-.05,.29-.05,.44-.08q-1.03,.67-.85,1.13c.5-.16,.63-.07,.63,.48,0,.07,0,.15,0,.22,0,.02,0,.03,0,.04L56,54.58c-.15-.09-.3-.17-.45-.26Z"/>
        <path d="M52.1,52.2L17.41,86.88c.16,.3,.42,.49,.68,.71,.13,.11,.25,.24,.37,.38L53.42,53.01c-.44-.27-.88-.54-1.33-.82Z"/>
        <path d="M36.73,42.72l-27.81,27.81s-.04,.08-.06,.12c-.41,.6-.68,1.27-1.25,1.77-.24,.21-.41,.42-.76,.37-.07,0-.13,0-.18,0l-.21,.21c0,.08,.02,.19,.06,.31,.16-.06,.29-.15,.43-.14,.18,0,.5,.09,.5,.13,0,.34,.21,.44,.37,.48l30.24-30.24c-.44-.27-.89-.54-1.33-.81Z"/>
        <path d="M49.53,50.62L15.18,84.97c.12,.1,.24,.21,.32,.34,.22,.35,.39,.4,.57,.28,.15,.09,.28,.17,.4,.24L50.86,51.44c-.44-.27-.88-.54-1.33-.82Z"/>
        <path d="M62.46,59.75c.09-.06,.14-.24,.13-.35-.03-.28-.1-.57-.18-.95L25.29,95.57c.07,.18,.21,.32,.58,.27,.23-.03,.52,.11,.73,.25,.06,.04,.12,.09,.19,.13L62.44,60.56c-.23-.22-.36-.53,.03-.82Z"/>
        <path d="M60.38,57.93c-.11-.02-.19-.18-.26-.29-.14-.2-.26-.42-.38-.63-.11,.23-.25,.33-.39,.36L23.02,93.69c.35,.15,.79,.19,.8,.74,0,.05,.1,.11,.16,.14,.07,.03,.13,.07,.2,.1L60.83,58.03c-.15-.03-.3-.06-.45-.1Z"/>
        <path d="M57.11,56.19c-.14-.04-.33-.3-.31-.41,0,0,0,0,0-.01L20.65,91.92c.04,.23,.07,.44,.1,.65,.05,.31,.21,.47,.54,.44,.14-.01,.28-.01,.41,0L58.08,56.64c-.27-.25-.61-.35-.97-.46Z"/>
        <path d="M18.41,50.75l.55-.55c-.28,.14-.45,.32-.55,.55Z"/>
        <path d="M35.49,41.96c-.44-.27-.89-.54-1.33-.81l-23.76,23.76c-.08,.85-.35,1.65-.86,2.39-.14,.2-.24,.45-.27,.69,0,.07-.01,.14-.01,.21l26.24-26.24Z"/>
        <path d="M30.25,42.42c-.28,0-.5,0-.72,0-.27,0-.53,0-.8,0l-10.41,10.41c-.01,.13-.03,.26-.06,.38-.11,.48-.02,.85,.16,1.26,.04,.09,.09,.18,.13,.27l14.35-14.35c-.35-.22-.71-.43-1.06-.65-.09-.05-.18-.11-.27-.16l-1.42,1.42c.03,.47,.06,.94,.09,1.42Z"/>
        <path d="M30.01,38.79c0,.11,.01,.23,.02,.34l.29-.29c-.06-.04-.12-.07-.18-.11-.04,.02-.09,.04-.13,.06Z"/>
        <path d="M21.27,47.9l5.47-5.47c-.71,0-1.43,0-2.14,0l-3.33,3.33c0,.71,0,1.43,0,2.14Z"/>
        <path d="M66.69,59.98c-.71,.14-1.42,.3-2.13,.45L27.9,97.1s.02,.02,.03,.03c.36,.33,.67,.72,1,1.08l38.33-38.33c-.19,.04-.38,.07-.57,.11Z"/>
        <path d="M13.93,55.23c-.72,0-1.44,.02-2.17,.02l-2.25,2.25c.02,.05,.05,.1,.07,.15,.09,.22,.1,.49,.21,.7,.13,.28-.35,.65,.17,.85,0,0,0,0,0,0l3.98-3.98Z"/>
      </g>
      <path class="cls-5" d="M67,24.97c-12.56,0-24.19,4.12-33.59,11.11,.08,.03,.16,.07,.23,.11l1.34,.81c.09,.05,.19,.12,.28,.2,8.95-6.44,19.91-10.23,31.74-10.23,30.05,0,54.5,24.44,54.5,54.49,0,1.25-.04,2.49-.13,3.71,.01,0,.01,.01,.01,.01,.72,.15,1.38,.49,1.92,.95,.12-1.54,.19-3.1,.19-4.68,0-31.13-25.34-56.47-56.49-56.47Z"/>
      <path d="M118.52,101.55c-.15,0-.29-.04-.44-.05-.04,.05-.07,.11-.09,.15-.15,.21-.3,.4-.48,.57-.07,.07-.13,.13-.21,.21-4.21,10.07-11.38,18.62-20.41,24.56,0,0,0,.01-.01,.01-.45,.3-.9,.58-1.37,.87-8.3,5.12-18.06,8.07-28.51,8.07-27.69,0-50.6-20.76-54.04-47.51-.21-.17-.41-.4-.6-.65-.28-.28-.5-.6-.68-.95-.01,0-.01-.01-.03-.01-.34-.16-.66-.37-.94-.61,2.43,28.93,26.73,51.73,56.28,51.73,24.15,0,44.81-15.24,52.87-36.61l-.19,.05c-.38,.12-.77,.17-1.17,.17Z"/>
    </g>
  </g>
  <rect class="cls-11" x="-511.74" y="-354.34" width="549.02" height="438.63"/>
  <rect class="cls-11" x="-511.57" y="-354.34" width="549.02" height="438.63"/>
  <text class="cls-3" transform="translate(153.38 79.08)"><tspan class="cls-9" x="0" y="0">S</tspan><tspan class="cls-6" x="22.98" y="0">AHEL POLITI</tspan><tspan class="cls-14" x="272.81" y="0">C</tspan><tspan class="cls-8" x="298.51" y="0">A</tspan></text>
  <text class="cls-2" transform="translate(168.07 103.67)"><tspan class="cls-13" x="0" y="0">N</tspan><tspan class="cls-10" x="10.76" y="0">A</tspan><tspan class="cls-1" x="19.67" y="0">VIG</tspan><tspan class="cls-7" x="47.57" y="0">A</tspan><tspan class="cls-1" x="56.9" y="0">TING RISK, ENSURING IM</tspan><tspan class="cls-12" x="246.85" y="0">P</tspan><tspan class="cls-15" x="254.7" y="0">A</tspan><tspan class="cls-1" x="264.81" y="0">CT</tspan></text>
</svg>