<?xml version="1.0" encoding="UTF-8"?>
<svg id="Layer_1" data-name="Layer 1" xmlns="http://www.w3.org/2000/svg" viewBox="0 0 500.67 162">
  <defs>
    <style>
      .cls-1 {
        letter-spacing: 0em;
      }

      .cls-2 {
        font-family: BellMT, 'Bell MT';
        font-size: 15.06px;
      }

      .cls-2, .cls-3, .cls-4 {
        fill: #facb00;
      }

      .cls-5 {
        fill: #fff;
      }

      .cls-6 {
        letter-spacing: .05em;
      }

      .cls-7 {
        letter-spacing: -.07em;
      }

      .cls-8 {
        letter-spacing: .05em;
      }

      .cls-9 {
        letter-spacing: .03em;
      }

      .cls-10 {
        letter-spacing: -.1em;
      }

      .cls-11 {
        fill: none;
      }

      .cls-12 {
        letter-spacing: -.09em;
      }

      .cls-3 {
        font-family: CooperBlack, 'Cooper Black';
        font-size: 33.87px;
      }

      .cls-13 {
        letter-spacing: -.03em;
      }

      .cls-14 {
        letter-spacing: .04em;
      }

      .cls-15 {
        letter-spacing: -.02em;
      }
    </style>
  </defs>
  <rect class="cls-11" x="-534.46" y="-354.34" width="549.02" height="438.63"/>
  <rect class="cls-11" x="-534.3" y="-354.34" width="549.02" height="438.63"/>
  <g>
    <path class="cls-5" d="M107.35,107.05c.16-.1,.28-.27,.41-.42,.09-.1,.25-.21,.25-.3l-.78,.78s.08-.04,.12-.06Z"/>
    <g>
      <path class="cls-4" d="M97.73,92.22c.07,.03,.19-.03,.28-.05,.03-.05,.07-.11,.1-.16-.15-.09-.32-.16-.43-.28-.15-.18-.31-.35-.45-.53l-.92,.92c.47-.12,.94-.1,1.41,.1Z"/>
      <path class="cls-4" d="M96.65,58.63c-.13-.66-.12-1.35-.2-2.02l-50.53,50.53s.03,.01,.04,.02c.42,.2,.86,.36,1.23,.63,.08,.06,.16,.1,.24,.13l49.23-49.23s-.01-.03-.02-.05Z"/>
      <path class="cls-4" d="M108.66,94.9c-.27,0-.53,.13-.8,.21,0,.06,0,.13-.01,.19,.15,.08,.31,.14,.44,.25,.03,.02,.05,.05,.08,.09l.74-.74c-.15,0-.3,0-.44,0Z"/>
      <path class="cls-4" d="M97.95,61.25c-.11-.14-.24-.32-.23-.48,.03-.32-.08-.55-.24-.77l-46.62,46.62c.4-.12,.79-.27,1.14-.58,.42-.36,1.04-.48,1.56-.71,.43-.19,.85-.39,1.31-.44l43.35-43.35c-.1-.09-.2-.19-.28-.29Z"/>
      <path class="cls-4" d="M97.7,70.89c.04-.45,.18-.89,.17-1.33,0-.36,0-.73,0-1.09l-34.54,34.54c.05-.03,.11-.06,.16-.1,.02-.02,.06,0,.09,0,.41,.02,.83,.1,1.23,.04,.31-.04,.59-.04,.86,.01l32.03-32.03s0-.02,0-.03Z"/>
      <path class="cls-4" d="M91.98,80.52c-.03-.45-.1-1.02,.13-1.33,.31-.42,.66-.77,.76-1.3l-25.81,25.81c.39,.33,.82,.6,1.05,1.09,.01,.03,.04,.05,.07,.07l23.91-23.91c-.05-.14-.09-.29-.1-.44Z"/>
      <path class="cls-4" d="M98.2,64.44c.07-.33,.14-.67,.25-.99l-40.14,40.14s.09-.02,.14-.04c.81-.21,1.69-.13,2.5-.31l36.99-36.99c.05-.6,.13-1.21,.25-1.81Z"/>
      <path class="cls-4" d="M109.3,105.74c.52,.12,1.09-.03,1.56,.41,.05,.04,.1,.08,.15,.12l10.73-10.73c-.25,0-.5-.01-.74,.02-.82,.11-.26-.57-.48-.83-.04-.05-.07-.11-.1-.16l-11.17,11.17s.03,0,.04,0Z"/>
      <path class="cls-4" d="M93.63,55.81c-.14-.13-.28-.26-.42-.39l-51.1,51.1c.78,.53,1.51,.66,2.29,0l51.57-51.57,.18,.18c-.02-.08-.04-.17-.06-.25-.67,.18-1.2,.46-1.63,.9-.28,.29-.51,.34-.83,.03Z"/>
      <path class="cls-4" d="M122.87,105.95c.06-.02,.11-.11,.15-.17,.37-.53,.48-.53,.91-.06,.12,.13,.32,.24,.49,.25,.06,0,.12,0,.17-.01l4.01-4.01c-.03-.13,0-.29,.1-.48,.04-.08-.08-.3-.18-.41-.1-.11-.31-.12-.39-.24-.1-.13-.2-.26-.31-.38l-5.78,5.78c.28-.08,.55-.17,.83-.26Z"/>
      <path class="cls-4" d="M125.55,98.28l-9.64,9.64c.09-.02,.19-.02,.27,0,.4,.07,.79,.22,1.18,.34,.22,.07,.39,.07,.51,0l.09-.09c.05-.08,.08-.19,.08-.34,0-.84,.69-1.06,1.04-1.43,.17,.06,.32,.12,.47,.18l6.93-6.93s-.07-.03-.11-.04c-.34-.02-.49-.16-.49-.48,0-.04-.04-.08-.06-.11-.14-.04-.27-.07-.45-.12,.06-.22,.1-.41,.17-.59,0,0,0,0,0-.01Z"/>
      <path class="cls-4" d="M112.27,107.17c.12,.61,.25,.65,.87,.48,.24-.06,.53,.03,.79,.11l10.52-10.52c-.05-.07-.15-.14-.23-.16-.4-.07-.8-.1-1.2-.16-.17-.02-.3-.08-.4-.15l-10.36,10.36s0,.02,0,.03Z"/>
      <path class="cls-4" d="M105.27,114.96c-.03-.27-.05-.59,.06-.81,.03-.06,.07-.12,.1-.17l-18.73,18.73c.06,.11,.12,.22,.2,.35,.35,.19,.74,.39,.95,.78l17.33-17.33c.1-.5,.13-1.02,.08-1.55Z"/>
      <path class="cls-4" d="M106.76,109.81c.21-.32,.19-.61,.03-.96-.08-.17-.11-.36-.13-.53l-22.18,22.18s.03,.04,.04,.06c.14,.24,.12,.53,.5,.52,.09,0,.18,.11,.26,.18,.13,.12,.25,.24,.38,.35l21.04-21.04c-.12-.29-.11-.51,.06-.76Z"/>
      <path class="cls-4" d="M120.81,91.76c-.29-.38-.59-.75-.88-1.13l-37.6,37.6c.15,.02,.32,0,.47,.02,.08,.01,.14,.12,.21,.18-.09,.03-.18,.1-.27,.09-.16-.01-.32-.07-.49-.11-.03,.06-.06,.12-.09,.18,.42,.27,.86,.53,1.26,.83l37.44-37.44c0-.08-.01-.17-.05-.22Z"/>
      <path class="cls-4" d="M117.03,89.69c-.21-.07-.43-.32-.58,.11-.04,.1-.2,.2-.35,.24l-.35,.35s.03,.07,.05,.11c.13,.27,.18,.63-.14,.73-.36,.11-.7,.11-.66,.61,0,.06-.16,.15-.26,.19-.72,.23-1.06,.84-1.34,1.44-.14,.29-.32,.47-.54,.47-.45,0-.62,.2-.63,.65-.21,0-.43-.03-.64-.04l-31.04,31.04c.22-.08,.43-.16,.65-.24,.28,.47,.25,.49-.26,.56-.14,.02-.25,.17-.38,.26,.09,.12,.18,.25,.28,.35,.04,.04,.13,.02,.25,.04-.13,.11-.23,.2-.32,.27,.03,.06,.05,.11,.06,.11,.23,0,.39,.05,.51,.15l37.57-37.57c-.5-.61-1.51-.55-1.88,.17Z"/>
      <path class="cls-4" d="M129.62,103.29c-.06,0-.11-.02-.17-.06l-1.84,1.84c.15,0,.3-.02,.47-.05,.26-.05,.7-.09,.8,.05,.19,.28,.44,.33,.69,.34l1.53-1.53c-.07-.04-.16-.08-.26-.11-.42-.1-.7-.52-1.21-.48Z"/>
      <path class="cls-4" d="M104.5,121.45c-.1-.19-.05-.5,.03-.72,.18-.5,.41-.99,.58-1.39-.04-.18-.09-.34-.13-.5l-14.97,14.97s.1-.06,.15-.1c.26-.18,.49-.41,.68-.57,.43,.34,.81,.64,1.19,.93l12.51-12.51s-.03-.08-.05-.12Z"/>
      <path class="cls-4" d="M97.69,132.85l2.59-2.59s0-.09,0-.14c0-.56-.02-1.11-.03-1.67,0-.15,.03-.32,0-.45l-4.97,4.97c.05-.01,.1-.02,.16-.04,.24,.19,.35,.48,.11,.92-.18,.33,.06,.64,.35,.76,0,0,.02,0,.03,0l1.69-1.69s.04-.04,.06-.06Z"/>
      <path class="cls-4" d="M82.04,113.1s0,0,0,0l15.45-15.45c-.02-.09-.05-.18-.07-.26-.16-.48-.45-.85-.78-1.18l-14.9,14.9c.06,.09,.11,.18,.17,.27,.34,.51,.84,.98,.16,1.58-.03,.02-.03,.09-.03,.13Z"/>
      <path class="cls-4" d="M78.21,108.1l18.41-18.41c-.01-.09-.03-.18-.05-.27-.13-.6-.31-1.21,.15-1.75-.02-.13,0-.25,0-.38l-20.92,20.92c.15,0,.32-.03,.53-.11,.28-.11,.6-.14,.99-.22-.02-.16-.05-.46-.1-.81,.43,.19,.76,.33,1.02,.44-.01,.23-.02,.41-.03,.58Z"/>
      <path class="cls-4" d="M96.13,85.62c-.04-.47-.11-.91-.67-1.1-.08-.03-.16-.08-.23-.15l-24.48,24.48s.01,0,.02,0c.36,.2,.61,.16,.74-.25,.55,.39,.7,.35,1.21-.28,.15,.07,.33,.22,.43,.18,.17-.06,.33-.15,.49-.25l22.51-22.51s0-.08,0-.13Z"/>
      <path class="cls-4" d="M94.34,94.14s-.01,0-.02-.01l-14.96,14.96c.03,.07,.06,.15,.11,.21,.26,.33,.81,.45,1.2,.65,.24-.15,.4-.5,.63-.52l14.15-14.15c-.47-.28-.94-.56-1.12-1.14Z"/>
      <path class="cls-4" d="M100.84,98.46v.17c-.27,.17-.56,.34-.85,.5-.1,.05-.22,.07-.33,.11-.3,.11-.59,.28-.9,.31-.3,.03-.6-.04-.94-.09l-15.92,15.92s0,0,0,.01c-.08,.25-.1,.52-.22,.74-.27,.51-.59,1.01-.94,1.6,.29,.09,.57,.17,.85,.26l19.38-19.38s-.09-.09-.14-.14Z"/>
      <path class="cls-4" d="M93.88,83.46c-.44-.27-.67-.76-.96-1.21l-23.53,23.53c.07,.05,.13,.11,.2,.16l-.18,.06c-.09,.24-.28,.49-.26,.72,.04,.46,.2,.83,.44,1.15l24.42-24.42s-.08,0-.12,0Z"/>
      <path class="cls-4" d="M106.04,97.75c-.36,.07-.71,.2-1.07,.26-.3,.05-.62,0-.92,.05-.24,.04-.46,.14-.67,.26l-21.89,21.89c.18,.08,.37,.15,.55,.23,.14,.06,.28,.13,.42,.19-.5,.11-1,.29-1.43,.05l-.48,.48c.03,.37,.07,.74,.09,1.11,0,.09,0,.21-.05,.27-.26,.31-.54,.6-.83,.92-.14-.09-.37-.23-.6-.38-.04,.03-.08,.06-.13,.09,.1,.19,.18,.39,.3,.57,.12,.18,.34,.33,.38,.52,0,0,0,.02,0,.03l26.5-26.5c-.07-.02-.13-.03-.19-.02Z"/>
    </g>
    <path class="cls-5" d="M131.64,104.83s.03,.02,.05,.03c0-.02,0-.04-.01-.06l-.03,.03Z"/>
    <g>
      <path class="cls-5" d="M91.3,53.55c-.33-.11-.68-.18-1.03-.25l-53.37,53.37c.06,0,.12-.01,.17,0,.5,.11,.88,.03,1.23-.34,.2-.21,.38-.2,.65,0,.11,.08,.32,.11,.5,.09l52.56-52.56c-.23-.12-.46-.23-.71-.31Z"/>
      <path class="cls-5" d="M88.23,52.92c-.62-.1-1.12,.14-1.65,.46-.65,.39-1.3,.77-1.95,1.15L30.8,108.35c.07,.03,.14,.06,.2,.1,.56,.42,1.03,.45,1.62,.08,.15-.1,.33-.16,.5-.22l55.36-55.36c-.09-.01-.17-.03-.26-.05Z"/>
      <path class="cls-5" d="M76.8,59.21c-.83,.53-1.62,1.11-2.39,1.72-1.09,.85-2.14,1.75-3.2,2.64-.08,.07-.15,.13-.23,.2L27.68,107.05c.25,.1,.48,.21,.68,.37,.25,.2,.5,.34,.77,.46l50.34-50.34c-.9,.55-1.8,1.1-2.68,1.67Z"/>
      <path class="cls-5" d="M7.98,82.52s.08-.05,.09-.08c0-.02,.02-.03,.03-.05l-.12,.12Z"/>
      <path class="cls-5" d="M8.45,82.05c.33-.17,.75-.14,1.08-.3,.13-.06,.41,.15,.61,.26,.13,.06,.23,.18,.36,.24,0,0,.02,0,.03,.01l31.02-31.02c-.47-.29-.94-.58-1.41-.88l-31.69,31.69Z"/>
      <path class="cls-5" d="M5.92,85.75c-.29-.1-.58-.2-.88-.29l-.48,.48c.02,.06,.04,.11,.08,.14,.23,.16,1.11-.07,1.27-.33Z"/>
      <path class="cls-5" d="M5.82,86.27c-.17,.05-.32,.14-.48,.22,.07,.15,.15,.3,.23,.47,.25-.16,.43-.28,.61-.39,0,0,.02,.02,.03,.03l.48-.48c-.29,0-.57,.07-.86,.16Z"/>
      <path class="cls-5" d="M13.47,85.88l-.34,.34c.26-.09,.34-.16,.34-.34Z"/>
      <path class="cls-5" d="M42.87,52.05l-30.59,30.59c.13-.05,.27-.09,.4-.11,.31-.03,.78,.64,.57,.76-.41,.26-.93,.6-1.35,.53-.22-.03-.44-.09-.65-.16l-1.39,1.39s.09,0,.13,0c.72-.02,1.46,.13,2.16-.19,.05-.02,.13,0,.19,0,0,0,0,0,0,0l31.94-31.94c-.47-.29-.95-.58-1.42-.87Z"/>
      <path class="cls-5" d="M6.7,85.46c.18-.1,.33-.13,.45-.07,.06,.03,.12,.06,.17,.08l2.38-2.38s-.08-.03-.12-.04c-.1-.04-.32-.02-.35,.05-.21,.41-.56,.38-.93,.38-.38,0-.75,0-.93,.46-.04,.09-.25,.15-.39,.15-.19,0-.38,0-.58,0l-1.25,1.25c.32,.08,.67,.12,.94,.29,.34,.2,.63,.31,.84,.22l.08-.08c-.11-.1-.23-.2-.34-.29Z"/>
      <path class="cls-5" d="M19.59,46.65c-.34,0-.67,0-1.01,0-.47,0-.63,.16-.58,.6,.03,.29,.08,.59,.11,.88l1.48-1.48Z"/>
      <path class="cls-5" d="M7.56,87.88c.12,0,.3,0,.35-.07,.48-.64,1.15-.4,1.79-.46,.01,.05,.02,.09,.03,.14l2.02-2.02c-.56-.01-1.13-.07-1.7-.09-.18,0-.36,0-.54,.03l-2.45,2.45s-.01,.02-.02,.03c.17,0,.34,0,.51,0Z"/>
      <path class="cls-5" d="M5.25,81.57s.06,.03,.1,.05c-.06,.21-.12,.42-.21,.74,.27,.03,.53,.06,.79,.09L38.83,49.54c-.47-.29-.94-.58-1.41-.88L4.57,81.51c.08,.15,.15,.31,.23,.46,.21-.19,.33-.3,.45-.41Z"/>
      <path class="cls-5" d="M5.86,60.39c-.54,0-1.08,.01-1.63,.02-.21,0-.41,.05-.63,.08,.28,.46,.54,.9,.82,1.34l1.44-1.44Z"/>
      <path class="cls-5" d="M45.61,53.73l-31.94,31.94s.03,.04,.03,.05c.02,.2,.01,.47-.11,.59-.27,.26-.36,.36-.04,.71,.42,.45-.01,1.23-.64,1.28-.08,0-.16,.01-.23,0-.51-.07-.98,.04-1.43,.29,.2-.51,.54-.74,1.1-.57,.03,0,.06,0,.09,0,.32-.01,.71,.06,.85-.33,.15-.41-.14-.62-.47-.79-.07-.04-.14-.13-.18-.21l-1.92,1.92c.12-.02,.28-.02,.5,0-.08,.06-.15,.12-.23,.18-.13,.09-.31,.15-.39,.28-.17,.28-.28,.58-.39,.83,.15,.32,.27,.62,.42,.91,.02,.04,.05,.08,.08,.11L47.03,54.6c-.47-.29-.95-.58-1.42-.87Z"/>
      <path class="cls-5" d="M9.7,90.23c.19-.37,.36-.65,.49-.94,.03-.08,.06-.15,.09-.21l-.86,.86c.11,.08,.21,.17,.28,.29Z"/>
      <path class="cls-5" d="M8.43,87.95c.09,.06,.23,.2,.25,.18,.19-.14,.33-.12,.45-.05l.36-.36c-.29-.02-.57-.05-.85-.04-.07,0-.14,.18-.21,.27Z"/>
      <path class="cls-5" d="M14.1,60.3c-.54,0-1.08,.01-1.61,.02l-6.54,6.54c.12,.22,.23,.44,.23,.66,0,.25,0,.42,.15,.6,.07,.08,.16,.17,.17,.27,0,.07,0,.13,.01,.2l8.29-8.29c-.23,0-.47,0-.7,.01Z"/>
      <path class="cls-5" d="M54.78,59.37c-.32-.19-.63-.39-.95-.59L15.72,96.9c.05-.01,.11-.02,.17-.05,.15-.05,.31-.06,.47-.08q-1.1,.72-.9,1.21c.54-.17,.67-.07,.67,.51,0,.08,0,.16,0,.23,0,.02,0,.03,0,.05L55.26,59.65c-.16-.09-.32-.18-.48-.28Z"/>
      <path class="cls-5" d="M51.09,57.1L14.04,94.15c.17,.32,.45,.53,.73,.76,.14,.12,.27,.26,.39,.41L52.51,57.97c-.47-.29-.95-.58-1.42-.87Z"/>
      <path class="cls-5" d="M34.68,46.98L4.97,76.68s-.04,.08-.07,.12c-.43,.64-.73,1.35-1.33,1.89-.26,.23-.44,.45-.81,.4-.08-.01-.14,0-.19,0l-.22,.22c0,.09,.02,.2,.07,.33,.17-.06,.31-.16,.46-.15,.19,0,.53,.09,.53,.14,0,.36,.22,.47,.4,.52L36.1,47.84c-.47-.29-.95-.58-1.42-.87Z"/>
      <path class="cls-5" d="M48.35,55.42L11.66,92.11c.13,.11,.25,.23,.34,.37,.23,.37,.42,.42,.61,.3,.16,.1,.29,.18,.43,.26L49.77,56.29c-.47-.29-.95-.58-1.42-.87Z"/>
      <path class="cls-5" d="M62.16,65.17c.09-.07,.15-.26,.14-.38-.03-.3-.11-.61-.2-1.01L22.45,103.43c.07,.19,.22,.34,.62,.29,.25-.03,.55,.12,.78,.27,.07,.05,.13,.09,.2,.14l38.09-38.09c-.25-.24-.39-.56,.03-.87Z"/>
      <path class="cls-5" d="M59.94,63.23c-.11-.03-.2-.19-.28-.31-.14-.22-.27-.45-.41-.67-.12,.24-.27,.35-.42,.39L20.04,101.43c.38,.16,.85,.2,.85,.8,0,.05,.1,.12,.17,.15,.07,.04,.14,.07,.21,.11L60.42,63.33c-.16-.03-.32-.06-.48-.1Z"/>
      <path class="cls-5" d="M56.45,61.36c-.15-.04-.36-.32-.33-.43,0,0,0,0,0-.01L17.5,99.53c.04,.24,.07,.47,.11,.69,.05,.33,.23,.5,.58,.47,.15-.01,.3-.01,.44,0L57.48,61.85c-.29-.27-.65-.37-1.03-.49Z"/>
      <path class="cls-5" d="M15.11,55.56l.58-.58c-.3,.15-.48,.35-.58,.58Z"/>
      <path class="cls-5" d="M33.35,46.17c-.47-.29-.95-.58-1.42-.87L6.55,70.68c-.09,.91-.37,1.76-.92,2.56-.15,.21-.26,.48-.29,.73,0,.07-.01,.15-.02,.23l28.03-28.03Z"/>
      <path class="cls-5" d="M27.76,46.66c-.3,0-.53,0-.76,0-.28,0-.57,0-.85,0l-11.11,11.11c-.01,.14-.03,.27-.06,.41-.11,.51-.02,.91,.17,1.34,.04,.1,.1,.19,.14,.29l15.32-15.32c-.38-.23-.76-.46-1.13-.69-.1-.06-.19-.11-.29-.17l-1.52,1.52c.03,.5,.07,1,.1,1.51Z"/>
      <path class="cls-5" d="M27.5,42.78c0,.12,.02,.24,.02,.36l.31-.31c-.07-.04-.13-.08-.2-.12-.05,.02-.09,.04-.14,.06Z"/>
      <path class="cls-5" d="M18.16,52.51l5.85-5.85c-.76,0-1.53,0-2.29,0l-3.56,3.56c0,.76,0,1.53,0,2.29Z"/>
      <path class="cls-5" d="M66.68,65.42c-.76,.15-1.52,.32-2.28,.48L25.25,105.06s.03,.02,.04,.03c.38,.35,.71,.77,1.07,1.15l40.94-40.94c-.2,.04-.41,.08-.61,.12Z"/>
      <path class="cls-5" d="M10.33,60.34c-.77,0-1.54,.02-2.31,.02l-2.4,2.4c.03,.05,.05,.11,.07,.16,.1,.24,.11,.52,.22,.75,.14,.3-.38,.7,.18,.9,0,0,0,0,0,0l4.25-4.25Z"/>
    </g>
    <path class="cls-4" d="M67.01,28.02c-13.42,0-25.84,4.4-35.87,11.86,.08,.03,.17,.07,.24,.11l1.43,.86c.1,.06,.2,.13,.3,.21,9.56-6.88,21.26-10.93,33.91-10.93,32.09,0,58.21,26.11,58.21,58.2,0,1.33-.04,2.66-.14,3.96,.01,0,.01,.01,.01,.01,.76,.16,1.47,.52,2.05,1.02,.13-1.64,.2-3.31,.2-5,0-33.25-27.07-60.32-60.34-60.32Z"/>
    <path class="cls-5" d="M122.04,109.82c-.16,0-.31-.04-.47-.06-.04,.06-.07,.11-.1,.16-.16,.23-.33,.42-.51,.61-.07,.07-.14,.14-.23,.23-4.5,10.76-12.16,19.89-21.8,26.23,0,0,0,.01-.01,.01-.48,.33-.96,.62-1.46,.93-8.86,5.46-19.3,8.62-30.45,8.62-29.57,0-54.05-22.17-57.72-50.75-.23-.18-.44-.42-.64-.69-.3-.3-.54-.64-.72-1.02-.01,0-.01-.01-.03-.01-.37-.17-.71-.4-1.01-.65,2.59,30.9,28.55,55.25,60.11,55.25,25.79,0,47.86-16.28,56.47-39.1l-.2,.06c-.41,.13-.82,.18-1.25,.18Z"/>
  </g>
  <text class="cls-3" transform="translate(147.99 87.08)"><tspan class="cls-9" x="0" y="0">S</tspan><tspan class="cls-6" x="22.98" y="0">AHEL POLITI</tspan><tspan class="cls-14" x="272.81" y="0">C</tspan><tspan class="cls-8" x="298.51" y="0">A</tspan></text>
  <text class="cls-2" transform="translate(166 111.67)"><tspan class="cls-13" x="0" y="0">N</tspan><tspan class="cls-10" x="10.76" y="0">A</tspan><tspan class="cls-1" x="19.67" y="0">VIG</tspan><tspan class="cls-7" x="47.57" y="0">A</tspan><tspan class="cls-1" x="56.9" y="0">TING RISK, ENSURING IM</tspan><tspan class="cls-12" x="246.85" y="0">P</tspan><tspan class="cls-15" x="254.7" y="0">A</tspan><tspan class="cls-1" x="264.81" y="0">CT</tspan></text>
</svg>