<svg xmlns="http://www.w3.org/2000/svg" viewBox="0 0 28 28" id="map">
  <path fill="#0c0c0c" d="M14.013 28C6.286 28 0 21.714 0 13.987 0 6.275 6.286 0 14.013 0 21.725 0 28 6.275 28 13.987 28 21.714 21.725 28 14.013 28zm0-27C6.837 1 1 6.826 1 13.987 1 21.163 6.837 27 14.013 27 21.174 27 27 21.163 27 13.987 27 6.826 21.174 1 14.013 1z"></path>
  <path fill="#0c0c0c" d="M21 20.912V10.794l-4-2-.44-.254a2.932 2.932 0 0 0-.44-.576 3.004 3.004 0 0 0-4.242 0A2.983 2.983 0 0 0 11 10.086c0 .074.016.146.021.219L7 8.294v10.118l4 2 .477.238.523-.209 4.477-1.791L21 20.912zm-1-9.5v7.882l-3-1.5V9.912l3 1.5zm-7.414-2.741a2.003 2.003 0 0 1 2.828 0c.184.184.325.397.424.629l.02.05c.007.017.01.035.016.052.037.102.07.205.09.31a1.986 1.986 0 0 1-.55 1.788L14 12.914 12.586 11.5a2.036 2.036 0 0 1-.252-.307c-.013-.019-.021-.041-.033-.061a1.92 1.92 0 0 1-.152-.287 1.994 1.994 0 0 1-.149-.759c0-.535.208-1.037.586-1.415zM8 17.794V9.912l3 1.5v7.882l-3-1.5zm4-5.466l2 2 2-2v5.437l-4 1.6v-7.037z"></path>
  <circle cx="14" cy="9.907" r=".625" fill="#0c0c0c"></circle>
</svg>
