<svg width="35" height="34" viewBox="0 0 35 34" fill="none" xmlns="http://www.w3.org/2000/svg">
<path d="M26.3112 12.5C26.3112 18.7699 20.7301 24 13.6556 24C6.58103 24 1 18.7699 1 12.5C1 6.23012 6.58103 1 13.6556 1C20.7301 1 26.3112 6.23012 26.3112 12.5Z" stroke="white" stroke-width="2"/>
<path d="M22.5853 21.3248L21.8477 20.6496L20.3724 22L21.11 22.6752L22.5853 21.3248ZM32.6972 33.2818C33.1046 33.6547 33.7651 33.6547 34.1724 33.2818C34.5798 32.9089 34.5798 32.3043 34.1724 31.9314L32.6972 33.2818ZM21.11 22.6752L32.6972 33.2818L34.1724 31.9314L22.5853 21.3248L21.11 22.6752Z" fill="white"/>
</svg>
