<svg xmlns="http://www.w3.org/2000/svg" width="48" height="48" id="partnership">
  <path d="M24 0C10.751 0 0 10.751 0 24s10.751 24 24 24 24-10.751 24-24S37.249 0 24 0zm0 1c12.708 0 23 10.291 23 23S36.708 47 24 47 1 36.709 1 24 11.292 1 24 1zm-9.795 15a.501.5 75 0 0-.408.25l-4.73 8.225a.501.5 75 0 0 .183.685l3.072 1.781a.501.5 75 0 0 .682-.183l1.135-1.975.845.49.926.536a4.45 4.45 0 0 0 1.295 3.13 1.541 1.541 0 0 0 .02 1.483c.3.523.869.687 1.437.648-.017.29-.044.587.11.854.398.693 1.266.915 1.976.58.02.213-.033.429.08.625.42.73 1.37.987 2.098.564l1.078-.625 1.068.62a1.54 1.54 0 0 0 2.098-.565c.113-.196.06-.412.08-.625.71.335 1.578.113 1.977-.58.153-.267.126-.564.109-.854.568.04 1.137-.124 1.437-.648.302-.524.16-1.1-.16-1.574.259-.13.528-.255.682-.522a.5.5 0 0 0 .002 0c.021-.037.033-.077.05-.115a.5.5 0 0 0 .16-.166c.395-.68.6-1.455.6-2.242l.395-.229.512-.297.511-.294.336-.196 1.133 1.973a.5.5 0 0 0 .686.183l3.07-1.777a.5.5 0 0 0 .184-.681l-4.729-8.227a.5.5 0 0 0-.459-.25.5.5 0 0 0-.226.064l-3.07 1.782a.5.5 0 0 0-.182.681l.138.242-.338.196-.511.295-.512.297-.408.236a4.446 4.446 0 0 0-2.746-.566 4.382 4.382 0 0 0-1.674.562.5.5 0 0 0-.002 0l-.21.121-.234-.127a4.622 4.622 0 0 0-1.68-.535c-.949-.11-1.901.09-2.724.553l-.926-.535-.85-.493.141-.244a.501.5 75 0 0-.183-.683l-3.07-1.782a.501.5 75 0 0-.274-.066zm.207 1.186 2.207 1.279-4.23 7.357-2.207-1.279 4.23-7.357zm19.176 0 4.23 7.359-2.207 1.277-4.23-7.357 2.207-1.28zm-2.684 2.45 2.457 4.278-.336.195-.511.297a.5.5 0 0 0-.002 0l-.512.3-.023.013a4.514 4.514 0 0 0-.434-1.094.5.5 0 0 0-.035-.07l-1.213-2.11a4.48 4.48 0 0 0-.783-.996l.035-.021.512-.297.511-.297.334-.193v-.004zm-13.81.01.845.489.545.316a4.43 4.43 0 0 0-.779.992l-1.213 2.112a4.445 4.445 0 0 0-.451 1.18l-.555-.323-.85-.492 2.458-4.274zm9.59.557a3.43 3.43 0 0 1 2.334 1.166c.151.173.29.364.41.572l1.213 2.11a.5.5 0 0 0 .004.012 3.47 3.47 0 0 1 .394 2.404 1.488 1.488 0 0 0-.305-.242l-4.091-2.373a1.66 1.66 0 0 0-.174-.885.5.5 0 0 0-.033-.078.5.5 0 0 0-.006-.014.5.5 0 0 0-.006-.012 1.603 1.603 0 0 0-.45-.502h-.001a1.75 1.75 0 0 0-1.903-.088.5.5 0 0 0-.02.012l-.027.02-2.234 1.293a.5.5 0 0 0-.072.052l-.055.032c-.503.291-1.099.096-1.572-.33l1.332-.776 1.385-.803a.5.5 0 0 0 .013-.01h.004l1.45-.841a.5.5 0 0 0 .001 0l.444-.26h.002a3.415 3.415 0 0 1 1.963-.457v-.002zm-5.375.016v.004a3.595 3.595 0 0 1 1.654.302l-.64.371-1.403.813a.5.5 0 0 0-.002 0L19 22.822a.5.5 0 0 0-.182.682c.694 1.207 2.187 1.708 3.344 1.037l2.24-1.299a.5.5 0 0 0 .02-.013l.117-.075.033-.017c.357-.207.75-.11.95.183a.5.5 0 0 0-.184.928l.45.26a.5.5 0 0 0 .1.058l4.344 2.52c.265.153.35.472.198.738a.52.52 0 0 1-.729.196L24.838 25.2l-.512-.297a.5.5 0 1 0-.502.866l.512.296 4.863 2.819.512.297a.53.53 0 0 1 .195.738.518.518 0 0 1-.728.195l-.512-.297-4.863-2.82-.512-.297a.5.5 0 1 0-.502.865l.512.297.297.172 4.566 2.649a.53.53 0 0 1 .197.736.5.5 0 0 0-.002 0 .519.519 0 0 1-.728.197l-1.024-.594-4.35-2.523-1.025-.594a.5.5 0 0 0-.5.865l5.373 3.118c.265.153.35.47.198.736a.519.519 0 0 1-.729.197l-5.064-2.935a.5.5 0 0 0-.006 0l-.305-.178a.5.5 0 0 0-.008 0l-1.582-.918c-.105-.061-.192-.14-.289-.209a.5.5 0 0 0-.289-.213 3.46 3.46 0 0 1-.674-4.318l1.215-2.112a3.399 3.399 0 0 1 2.737-1.72zm-9.432 3.267a.591.594 0 0 0-.467.297.591.594 0 0 0 .217.81.591.594 0 0 0 .807-.216.591.594 0 0 0-.217-.81.591.594 0 0 0-.281-.08.591.594 0 0 0-.059 0zm24.187 0a.591.594 0 0 0-.283.08.591.594 0 0 0-.215.811.591.594 0 0 0 .807.217.591.594 0 0 0 .217-.81.591.594 0 0 0-.526-.298zm-18.039 6.116c.03.018.053.04.082.056l.764.442a.5.5 0 0 0-.05.027.518.518 0 0 1-.73-.197.536.536 0 0 1-.066-.328zm1.844 1.074.133.078h.002l.937.543-.576.334a.52.52 0 0 1-.728-.197.53.53 0 0 1 .197-.737.5.5 0 0 0 .035-.021zm2.067 1.197 1.07.623-.582.338a.52.52 0 0 1-.729-.197.528.528 0 0 1 .196-.737.5.5 0 0 0 .045-.027z" color="#000" font-family="sans-serif" font-weight="400" overflow="visible" style="line-height:normal;text-indent:0;text-align:start;text-decoration-line:none;text-decoration-style:solid;text-decoration-color:#000;text-transform:none;block-progression:tb;isolation:auto;mix-blend-mode:normal"></path>
</svg>
