<svg xmlns="http://www.w3.org/2000/svg" viewBox="0 0 64 64" id="partnerships"><path d="m61,43.02h-6.79l-4.93-2.13c-1.37-.59-2.83-.89-4.33-.89h-.95v-13.08c2.83-.48,5-2.95,5-5.92s-2.17-5.44-5-5.92v-5.08c0-.55-.45-1-1-1h-3.52l-2.83-3.49c-1.37-1.64-3.37-2.69-5.5-2.86l-7.37-.62c-1.27-.11-2.56.1-3.75.59l-10.24,4.38H3c-.55,0-1,.45-1,1v11.98c0,.56.45,1,1,1h6.79l4.93,2.13c1.38.59,2.83.89,4.33.89h.95v13.08c-2.83.48-5,2.95-5,5.92s2.17,5.44,5,5.92v5.08c0,.55.45,1,1,1h3.52l2.83,3.49c1.37,1.64,3.37,2.69,5.5,2.86l7.37.62c.22.02.44.03.66.03,1.05,0,2.11-.21,3.09-.62l10.24-4.38h6.79c.55,0,1-.45,1-1v-11.98c0-.56-.45-1-1-1ZM19.05,22c-1.22,0-2.41-.25-3.54-.73l-5.11-2.2c-.13-.06-.26-.09-.4-.09h-6v-9.98h6c.14,0,.27-.03.39-.08l10.42-4.46c.88-.37,1.85-.52,2.81-.44l7.37.62c1.59.13,3.09.92,4.11,2.14l1.8,2.22h-9.9c-.22,0-.43.07-.61.21l-4.44,3.4c-1.03.8-1.41,2.11-.99,3.34.43,1.22,1.54,2.02,2.84,2.02h6.09c.55,0,1.07.22,1.45.61.38.4.58.92.57,1.46-.04,1.1-.92,1.96-2.02,1.96h-10.84Zm2.95,31v-5c0-.55-.45-1-1-1-2.21,0-4-1.79-4-4s1.79-4,4-4c.55,0,1-.45,1-1v-5h4.08c.48,2.83,2.95,5,5.92,5s5.44-2.17,5.92-5h4.08v7h-7.89c-2.19,0-3.95,1.71-4.02,3.89-.03,1.1.37,2.14,1.14,2.92.76.79,1.78,1.22,2.88,1.22h6.09c.66,0,.89.52.95.68.05.15.19.7-.32,1.1l-4.17,3.19h-14.66Z"></path></svg>