<svg xmlns="http://www.w3.org/2000/svg" viewBox="0 0 48 48" id="Puzzle">
  <path fill="#000000" d="M24 0C10.767 0 0 10.767 0 24s10.767 24 24 24 24-10.767 24-24S37.233 0 24 0zm0 47C11.318 47 1 36.682 1 24S11.318 1 24 1s23 10.318 23 23-10.318 23-23 23z" class="color0c0c0c svgShape"></path>
  <path fill="#000000" d="M38.5 12.5h-4.213c.139-.313.213-.653.213-1 0-1.378-1.122-2.5-2.5-2.5s-2.5 1.122-2.5 2.5c0 .347.074.687.213 1H26.5v-3A.5.5 0 0 0 26 9h-5.19a.5.5 0 0 0-.329.876c.334.293.519.692.519 1.124 0 .827-.673 1.5-1.5 1.5S18 11.827 18 11c0-.432.185-.831.519-1.124A.5.5 0 0 0 18.19 9H13a.5.5 0 0 0-.5.5v4.213a2.463 2.463 0 0 0-1-.213C10.122 13.5 9 14.622 9 16s1.122 2.5 2.5 2.5c.347 0 .687-.074 1-.213V21.5h-3a.5.5 0 0 0-.5.5v5.189a.5.5 0 0 0 .876.329A1.483 1.483 0 0 1 11 27c.827 0 1.5.673 1.5 1.5S11.827 30 11 30c-.432 0-.831-.185-1.124-.519a.504.504 0 0 0-.552-.139.502.502 0 0 0-.324.469V35a.5.5 0 0 0 .5.5h4.213a2.46 2.46 0 0 0-.213 1c0 1.379 1.122 2.5 2.5 2.5s2.5-1.121 2.5-2.5c0-.348-.074-.688-.213-1H21.5v3a.5.5 0 0 0 .5.5h5.19a.5.5 0 0 0 .328-.877A1.495 1.495 0 0 1 27 37c0-.827.673-1.5 1.5-1.5s1.5.673 1.5 1.5c0 .426-.189.836-.519 1.123a.5.5 0 1 0 .329.877H35a.5.5 0 0 0 .5-.5v-4.213c.313.139.653.213 1 .213 1.378 0 2.5-1.121 2.5-2.5s-1.122-2.5-2.5-2.5c-.347 0-.687.074-1 .213V26.5h3a.5.5 0 0 0 .5-.5v-5.19a.5.5 0 0 0-.876-.329A1.481 1.481 0 0 1 37 21c-.827 0-1.5-.673-1.5-1.5S36.173 18 37 18c.432 0 .831.185 1.124.519A.5.5 0 0 0 39 18.19V13a.5.5 0 0 0-.5-.5zM25 25h-2v-2h2v2zm-11.824-8.158a.5.5 0 0 0-.552.139 1.481 1.481 0 0 1-1.124.519c-.827 0-1.5-.673-1.5-1.5s.673-1.5 1.5-1.5c.432 0 .831.185 1.124.519a.5.5 0 0 0 .876-.329V10h3.713A2.463 2.463 0 0 0 17 11c0 1.378 1.122 2.5 2.5 2.5S22 12.378 22 11c0-.347-.074-.687-.213-1H25.5v12H23a.5.5 0 0 0-.5-.5h-9v-4.19a.5.5 0 0 0-.324-.468zM17.31 34.5a.5.5 0 0 0-.328.877c.33.287.519.697.519 1.123 0 .827-.673 1.5-1.5 1.5s-1.5-.673-1.5-1.5c0-.426.189-.836.519-1.123a.501.501 0 0 0-.33-.877H10v-3.713c.313.139.653.213 1 .213 1.378 0 2.5-1.121 2.5-2.5S12.378 26 11 26c-.347 0-.687.074-1 .213V22.5h12v12h-4.69zm17.514-3.343a.5.5 0 0 0 .552-.139 1.48 1.48 0 0 1 1.124-.519c.827 0 1.5.673 1.5 1.5s-.673 1.5-1.5 1.5c-.432 0-.831-.185-1.124-.519a.502.502 0 0 0-.876.329V38h-3.713c.139-.312.213-.652.213-1 0-1.379-1.122-2.5-2.5-2.5S26 35.621 26 37c0 .348.074.688.213 1H22.5v-2.5a.5.5 0 0 0 .5-.5v-9h2a.5.5 0 0 0 .5.5h9v4.189a.5.5 0 0 0 .324.468zM38 17.213A2.463 2.463 0 0 0 37 17c-1.378 0-2.5 1.122-2.5 2.5S35.622 22 37 22c.347 0 .687-.074 1-.213V25.5H26V23a.5.5 0 0 0 .5-.5v-9h4.19a.5.5 0 0 0 .329-.876A1.481 1.481 0 0 1 30.5 11.5c0-.827.673-1.5 1.5-1.5s1.5.673 1.5 1.5c0 .432-.185.831-.519 1.124a.5.5 0 0 0 .329.876H38v3.713z" class="color0c0c0c svgShape"></path>
</svg>
