<svg xmlns="http://www.w3.org/2000/svg" width="96" height="96" fill="none" viewBox="0 0 96 96" id="puzzle-business"><path fill="url(#paint0_linear_561_12872)" fill-rule="evenodd" d="M48.5 46C48.5 46.5226 48.239 47.1271 47.6354 47.6575C47.0255 48.1934 46.2267 48.5 45.5 48.5H40H37.5V51C37.5 53.4853 35.4853 55.5 33 55.5C30.5147 55.5 28.5 53.4853 28.5 51V48.5H26L22 48.5H21.9975C21.0898 48.4995 20.0833 48.1997 19.3635 47.7137C18.6532 47.234 18.5 46.7936 18.5 46.5V40.5V38H16C13.5147 38 11.5 35.9853 11.5 33.5C11.5 31.0147 13.5147 29 16 29H18.5V26.5L18.5 22C18.5 21.9997 18.5 21.9994 18.5 21.9991C18.5002 21.2242 18.7185 20.3769 19.0848 19.6976C19.1636 19.5818 19.2496 19.4703 19.3425 19.3646C19.8729 18.761 20.4774 18.5 21 18.5L26.5 18.5H29V16C29 13.5147 31.0147 11.5 33.5 11.5C35.9853 11.5 38 13.5147 38 16V18.5L40.5 18.5L45.5 18.5C46.2267 18.5 47.0255 18.8066 47.6354 19.3425C48.239 19.8729 48.5 20.4774 48.5 21L48.5164 21C48.5055 21.1653 48.5 21.332 48.5 21.5V24.3324C44.4662 25.4298 41.5 29.1185 41.5 33.5C41.5 37.8815 44.4662 41.5702 48.5 42.6676V46ZM50.8697 15.5291C52.2112 14.2707 54.0156 13.5 56 13.5H81C85.1421 13.5 88.5 16.8579 88.5 21V21.5V46C88.5 47.9209 87.7779 49.6731 86.5903 51C87.7779 52.3269 88.5 54.0791 88.5 56V81C88.5 85.1421 85.1421 88.5 81 88.5H56C54.0791 88.5 52.3269 87.7779 51 86.5903C49.6731 87.7779 47.9209 88.5 46 88.5H41H38.5V86C38.5 83.5147 36.4853 81.5 34 81.5C31.5147 81.5 29.5 83.5147 29.5 86V88.5H27H21C16.8579 88.5 13.5 85.1421 13.5 81V56C13.5 55.7411 13.5131 55.4853 13.5387 55.2332C13.7054 53.592 14.4012 52.1073 15.4528 50.9523C14.3455 49.8686 13.5 48.3741 13.5 46.5V42.6676C9.46616 41.5702 6.5 37.8815 6.5 33.5C6.5 29.1185 9.46616 25.4298 13.5 24.3324V22V21.5C13.5 19.9223 13.9886 18.3949 14.8018 17.1125C14.9091 16.9256 15.0227 16.743 15.1426 16.5654C16.2226 14.9661 18.0322 13.5 20.5 13.5L21 13.5L24.3324 13.5C25.4298 9.46616 29.1185 6.5 33.5 6.5C37.8815 6.5 41.5702 9.46616 42.6676 13.5H45.5C47.5041 13.5 49.4271 14.2883 50.8697 15.5291ZM45.5 53.5H42.1676C41.0702 57.5338 37.3815 60.5 33 60.5C28.6185 60.5 24.9298 57.5338 23.8324 53.5L22 53.5H21.9951H21C19.6193 53.5 18.5 54.6193 18.5 56V81C18.5 82.3807 19.6193 83.5 21 83.5H24.8324C25.9298 79.4662 29.6185 76.5 34 76.5C38.3815 76.5 42.0702 79.4662 43.1676 83.5H46C47.3807 83.5 48.5 82.3807 48.5 81V56C48.5 54.6193 47.3807 53.5 46 53.5H45.5ZM83.5 21.5C83.5 20.1193 82.3807 19 81 19L56 19C54.6193 19 53.5 20.1193 53.5 21.5V26.5V29H51C48.5147 29 46.5 31.0147 46.5 33.5C46.5 35.9853 48.5147 38 51 38H53.5V40.5V46C53.5 46.4711 53.6303 46.9118 53.8569 47.288C53.9814 47.4242 54.1465 47.5671 54.3635 47.7137C55.0839 48.2001 56.0917 48.5 57 48.5H59.8324C60.9298 44.4662 64.6185 41.5 69 41.5C73.3815 41.5 77.0702 44.4662 78.1676 48.5H81C82.3807 48.5 83.5 47.3807 83.5 46V21.5ZM56 83.5C54.6193 83.5 53.5 82.3807 53.5 81V56C53.5 54.6193 54.6193 53.5 56 53.5H57H62H64.5V51C64.5 48.5147 66.5147 46.5 69 46.5C71.4853 46.5 73.5 48.5147 73.5 51V53.5H76H81C82.3807 53.5 83.5 54.6193 83.5 56V81C83.5 82.3807 82.3807 83.5 81 83.5H56Z" clip-rule="evenodd"></path><defs><linearGradient id="paint0_linear_561_12872" x1="47.5" x2="47.5" y1="6.5" y2="88.5" gradientUnits="userSpaceOnUse"><stop stop-color="#00A3FF"></stop><stop offset="1" stop-color="#4100AB"></stop></linearGradient></defs></svg>