<svg width="71" height="71" viewBox="0 0 71 71" fill="none" xmlns="http://www.w3.org/2000/svg">
<path d="M60 35.1674C60 41.5771 56.2506 46.2192 51.0729 46.2192H45.7166C45.2431 46.2192 44.789 46.0311 44.4541 45.6962C44.1193 45.3614 43.9312 44.9073 43.9312 44.4337C43.9312 43.9602 44.1193 43.5061 44.4541 43.1712C44.789 42.8364 45.2431 42.6483 45.7166 42.6483H51.0729C54.7509 42.6483 56.4292 38.7739 56.4292 35.1674C56.4292 31.0431 53.626 27.6865 50.1802 27.6865C49.4435 27.6916 48.7151 27.8434 48.0377 28.1328C47.8748 28.2422 47.6933 28.3209 47.502 28.3649C47.2833 28.4009 47.0602 28.4009 46.8414 28.3649C46.6062 28.2971 46.3874 28.1816 46.1987 28.0257C46.0079 27.8722 45.8551 27.6767 45.7523 27.4544C45.6497 27.2533 45.5833 27.0357 45.5559 26.8116C45.5208 26.6168 45.5208 26.4172 45.5559 26.2224C45.6674 25.7546 45.7214 25.275 45.7166 24.7941C45.7166 23.3735 45.1523 22.0111 44.1478 21.0066C43.1433 20.0021 41.7809 19.4378 40.3603 19.4378C38.9398 19.4378 37.5774 20.0021 36.5729 21.0066C35.5684 22.0111 35.0041 23.3735 35.0041 24.7941C34.9966 25.1905 35.0385 25.5864 35.1291 25.9725C35.2423 26.4318 35.1687 26.9172 34.9243 27.3223C34.68 27.7273 34.2848 28.0189 33.8257 28.1328C33.5837 28.1771 33.3357 28.1771 33.0937 28.1328C32.6644 28.0586 32.277 27.83 32.0046 27.4901C31.3104 26.6428 30.3733 26.0288 29.3194 25.7306C28.2655 25.4324 27.1456 25.4645 26.1105 25.8225C25.0754 26.1805 24.1749 26.8472 23.5304 27.7328C22.886 28.6184 22.5285 29.6802 22.5061 30.7752C22.5308 30.929 22.5308 31.0857 22.5061 31.2395C22.3635 31.6808 22.0653 32.0552 21.667 32.2929C21.4412 32.4162 21.1915 32.4892 20.9349 32.5071C20.7221 32.5424 20.505 32.5424 20.2922 32.5071L19.8815 32.3286C19.3391 32.0139 18.7233 31.8476 18.0961 31.8465C16.7783 31.9777 15.5653 32.6228 14.7198 33.6421C13.8743 34.6614 13.4645 35.9727 13.579 37.292C13.4835 38.5893 13.8956 39.873 14.7283 40.8722C15.561 41.8715 16.7493 42.5083 18.0425 42.6483H24.2915C24.7651 42.6483 25.2192 42.8364 25.554 43.1712C25.8888 43.5061 26.077 43.9602 26.077 44.4337C26.077 44.9073 25.8888 45.3614 25.554 45.6962C25.2192 46.0311 24.7651 46.2192 24.2915 46.2192H17.1498C16.8562 46.2224 16.5668 46.1485 16.3107 46.0049C14.456 45.4348 12.8375 44.276 11.7003 42.7039C10.5631 41.1318 9.96908 39.232 10.0081 37.292C9.91029 35.048 10.6974 32.8552 12.2 31.1857C13.7026 29.5161 15.8006 28.5032 18.0425 28.3649C18.4802 28.3613 18.917 28.4032 19.3459 28.4899C19.7331 27.2805 20.3739 26.1675 21.2255 25.2255C22.077 24.2834 23.1198 23.5339 24.2841 23.0269C25.4485 22.5199 26.7075 22.2672 27.9773 22.2856C29.2471 22.304 30.4983 22.5931 31.6475 23.1336C32.0787 21.0312 33.2528 19.1544 34.955 17.8472C36.6571 16.5399 38.7732 15.8896 40.9157 16.0154C43.0583 16.1411 45.0838 17.0346 46.6212 18.532C48.1587 20.0295 49.1052 22.0307 49.2875 24.1692H50.2159C55.59 24.1156 60 29.0791 60 35.1674ZM35.0041 37.292C35.4776 37.292 35.9317 37.1039 36.2666 36.7691C36.6014 36.4343 36.7895 35.9801 36.7895 35.5066V33.7212C36.7895 33.2477 36.6014 32.7935 36.2666 32.4587C35.9317 32.1239 35.4776 31.9358 35.0041 31.9358C34.5306 31.9358 34.0764 32.1239 33.7416 32.4587C33.4068 32.7935 33.2186 33.2477 33.2186 33.7212V35.5066C33.2186 35.9801 33.4068 36.4343 33.7416 36.7691C34.0764 37.1039 34.5306 37.292 35.0041 37.292ZM43.4313 47.0583C43.0967 46.7258 42.6442 46.5391 42.1725 46.5391C41.7009 46.5391 41.2483 46.7258 40.9138 47.0583L36.7895 50.9505V40.8629C36.7895 40.3894 36.6014 39.9352 36.2666 39.6004C35.9317 39.2656 35.4776 39.0775 35.0041 39.0775C34.5306 39.0775 34.0764 39.2656 33.7416 39.6004C33.4068 39.9352 33.2186 40.3894 33.2186 40.8629V50.9505L29.0943 47.0047C28.7468 46.718 28.3036 46.5732 27.8538 46.5995C27.404 46.6258 26.9807 46.8212 26.6689 47.1465C26.3571 47.4718 26.1799 47.903 26.1728 48.3536C26.1656 48.8041 26.3291 49.2407 26.6304 49.5758L33.7721 56.4318C34.1042 56.7483 34.5453 56.9249 35.0041 56.9249C35.4628 56.9249 35.904 56.7483 36.236 56.4318L43.3777 49.5758C43.7175 49.2484 43.9138 48.7998 43.9238 48.3281C43.9339 47.8564 43.7568 47.3999 43.4313 47.0583Z" fill="black"/>
<circle cx="35.5" cy="35.5" r="35" stroke="black"/>
</svg>
