<svg width="71" height="71" viewBox="0 0 71 71" fill="none" xmlns="http://www.w3.org/2000/svg">
<path d="M52 51.292V39.46C52 33.12 48.616 30.17 44.104 30.17C40.463 30.17 38.831 32.173 37.922 33.579V30.655H31.062C31.153 32.592 31.062 51.292 31.062 51.292H37.922V39.767C37.922 39.152 37.966 38.535 38.148 38.095C38.643 36.862 39.772 35.586 41.666 35.586C44.149 35.586 45.141 37.478 45.141 40.252V51.293L52 51.292ZM23.835 27.838C26.226 27.838 27.717 26.252 27.717 24.271C27.673 22.247 26.227 20.707 23.881 20.707C21.535 20.707 20 22.246 20 24.271C20 26.252 21.489 27.838 23.792 27.838H23.835ZM27.265 51.292V30.655H20.406V51.292H27.265Z" fill="black"/>
<circle cx="35.5" cy="35.5" r="35" stroke="black"/>
</svg>
