<svg width="71" height="71" viewBox="0 0 71 71" fill="none" xmlns="http://www.w3.org/2000/svg">
<path d="M45.0625 41.25C43.8825 41.2586 42.7199 41.5345 41.6618 42.0568C40.6037 42.579 39.6776 43.3342 38.9531 44.2656L24.4531 37.0156C24.6396 36.3596 24.7394 35.682 24.75 35C24.7394 34.318 24.6396 33.6404 24.4531 32.9844L38.9531 25.7344C39.6776 26.6658 40.6037 27.421 41.6618 27.9432C42.7199 28.4655 43.8825 28.7414 45.0625 28.75C46.6077 28.75 48.1181 28.2918 49.4029 27.4334C50.6876 26.5749 51.689 25.3548 52.2803 23.9272C52.8716 22.4997 53.0263 20.9288 52.7249 19.4134C52.4234 17.8979 51.6794 16.5058 50.5868 15.4132C49.4942 14.3206 48.1021 13.5766 46.5866 13.2751C45.0712 12.9737 43.5003 13.1284 42.0728 13.7197C40.6452 14.311 39.4251 15.3124 38.5666 16.5971C37.7082 17.8819 37.25 19.3923 37.25 20.9375C37.2605 21.6195 37.3604 22.2971 37.5469 22.9531L23.0469 30.2031C22.3224 29.2717 21.3963 28.5165 20.3382 27.9943C19.2801 27.472 18.1175 27.1961 16.9375 27.1875C14.8655 27.1875 12.8784 28.0106 11.4132 29.4757C9.9481 30.9409 9.125 32.928 9.125 35C9.125 37.072 9.9481 39.0591 11.4132 40.5243C12.8784 41.9894 14.8655 42.8125 16.9375 42.8125C18.1175 42.8039 19.2801 42.528 20.3382 42.0057C21.3963 41.4835 22.3224 40.7283 23.0469 39.7969L37.5469 47.0469C37.1255 48.625 37.2093 50.2956 37.7866 51.8237C38.364 53.3517 39.4057 54.6603 40.7654 55.5656C42.1251 56.4708 43.7344 56.9271 45.3668 56.8702C46.9993 56.8133 48.5729 56.2462 49.8663 55.2486C51.1598 54.251 52.108 52.873 52.5776 51.3085C53.0472 49.744 53.0146 48.0716 52.4844 46.5266C51.9542 44.9816 50.9531 43.6416 49.6217 42.6951C48.2904 41.7486 46.6959 41.2432 45.0625 41.25ZM45.0625 16.25C45.9896 16.25 46.8959 16.5249 47.6667 17.04C48.4376 17.5551 49.0384 18.2871 49.3932 19.1437C49.748 20.0002 49.8408 20.9427 49.6599 21.852C49.4791 22.7613 49.0326 23.5965 48.3771 24.2521C47.7215 24.9076 46.8863 25.3541 45.977 25.5349C45.0677 25.7158 44.1252 25.623 43.2687 25.2682C42.4121 24.9134 41.68 24.3126 41.165 23.5417C40.6499 22.7709 40.375 21.8646 40.375 20.9375C40.375 19.6943 40.8689 18.502 41.7479 17.6229C42.627 16.7439 43.8193 16.25 45.0625 16.25ZM16.9375 39.6875C16.0104 39.6875 15.1041 39.4126 14.3333 38.8975C13.5624 38.3824 12.9616 37.6504 12.6068 36.7938C12.252 35.9373 12.1592 34.9948 12.3401 34.0855C12.5209 33.1762 12.9674 32.341 13.6229 31.6854C14.2785 31.0299 15.1137 30.5834 16.023 30.4026C16.9323 30.2217 17.8748 30.3145 18.7313 30.6693C19.5879 31.0241 20.3199 31.6249 20.835 32.3958C21.3501 33.1666 21.625 34.0729 21.625 35C21.625 36.2432 21.1311 37.4355 20.2521 38.3146C19.373 39.1936 18.1807 39.6875 16.9375 39.6875ZM45.0625 53.75C44.1354 53.75 43.2291 53.4751 42.4583 52.96C41.6874 52.4449 41.0866 51.7129 40.7318 50.8563C40.377 49.9998 40.2842 49.0573 40.4651 48.148C40.6459 47.2387 41.0924 46.4035 41.7479 45.7479C42.4035 45.0924 43.2387 44.6459 44.148 44.4651C45.0573 44.2842 45.9998 44.377 46.8563 44.7318C47.7129 45.0866 48.4449 45.6874 48.96 46.4583C49.4751 47.2291 49.75 48.1354 49.75 49.0625C49.75 50.3057 49.2561 51.498 48.3771 52.3771C47.498 53.2561 46.3057 53.75 45.0625 53.75Z" fill="black"/>
<circle cx="35.5" cy="35.5" r="35" stroke="black"/>
</svg>
