<svg width="815" height="466" viewBox="0 0 815 466" fill="none" xmlns="http://www.w3.org/2000/svg">
<path fill-rule="evenodd" clip-rule="evenodd" d="M284.394 186.211C284.394 187.868 283.051 189.211 281.394 189.211C279.738 189.211 278.394 187.868 278.394 186.211C278.394 157.611 278.394 136.563 278.394 116.073L278.394 88.1207L277.704 88.0527C277.359 67.9429 271.637 51.9791 256.377 38.7089C241.136 25.4553 215.903 14.4784 175.154 4.84573C173.192 4.38181 171.958 3.10661 172.398 1.99748C172.837 0.888351 174.785 0.365311 176.748 0.829224C218.336 10.6603 245.452 22.1774 262.15 36.6983C278.829 51.2027 284.636 68.294 284.987 88.7701L284.394 88.7118L284.394 116.073C284.394 136.563 284.394 157.611 284.394 186.211Z" fill="#FACB01"/>
<path fill-rule="evenodd" clip-rule="evenodd" d="M535.592 186.551C535.592 188.208 536.935 189.551 538.592 189.551C540.249 189.551 541.592 188.208 541.592 186.551C541.592 157.951 541.592 136.903 541.592 116.413L541.592 88.4606L542.282 88.3926C542.627 68.2827 548.349 52.3189 563.609 39.0488C578.85 25.7951 604.083 14.8183 644.832 5.18558C646.794 4.72165 648.029 3.44646 647.589 2.33733C647.149 1.2282 645.201 0.705154 643.239 1.16907C601.651 11.0001 574.535 22.5173 557.836 37.0381C541.157 51.5425 535.351 68.6338 535 89.11L535.592 89.0516L535.592 116.413C535.592 136.903 535.592 157.951 535.592 186.551Z" fill="#FACB01"/>
<path fill-rule="evenodd" clip-rule="evenodd" d="M284.086 278C284.086 276.343 282.743 275 281.086 275C279.429 275 278.086 276.343 278.086 278C278.086 306.6 278.086 327.648 278.086 348.138L278.086 376.09L277.395 376.158C277.05 396.268 271.328 412.232 256.068 425.502C240.828 438.756 215.595 449.733 174.846 459.365C172.883 459.829 171.649 461.104 172.089 462.213C172.529 463.323 174.476 463.846 176.439 463.382C218.027 453.551 245.143 442.034 261.841 427.513C278.52 413.008 284.327 395.917 284.678 375.441L284.086 375.499L284.086 348.138C284.086 327.648 284.086 306.6 284.086 278Z" fill="#FACB01"/>
<path fill-rule="evenodd" clip-rule="evenodd" d="M535.592 280C535.592 278.343 536.935 277 538.592 277C540.249 277 541.592 278.343 541.592 280C541.592 308.6 541.592 329.648 541.592 350.138L541.592 378.09L542.282 378.158C542.627 398.268 548.349 414.232 563.609 427.502C578.85 440.756 604.083 451.733 644.832 461.365C646.794 461.829 648.029 463.104 647.589 464.213C647.149 465.323 645.201 465.846 643.239 465.382C601.651 455.551 574.535 444.034 557.836 429.513C541.157 415.008 535.351 397.917 535 377.441L535.592 377.499L535.592 350.138C535.592 329.648 535.592 308.6 535.592 280Z" fill="#FACB01"/>
<path d="M3 238H403" stroke="#FACB01" stroke-width="6" stroke-linecap="round"/>
<path d="M412 238H812" stroke="#FACB01" stroke-width="6" stroke-linecap="round"/>
<path d="M284.069 186.346C283.708 184.729 282.104 183.711 280.487 184.072C278.87 184.433 277.852 186.036 278.213 187.654L284.069 186.346ZM278.213 187.654C282.077 204.965 288.154 217.015 297.131 225.409C306.101 233.796 317.633 238.219 331.76 240.934L332.892 235.042C319.306 232.431 309.031 228.322 301.229 221.027C293.436 213.74 287.777 202.96 284.069 186.346L278.213 187.654Z" fill="#FACB01"/>
<path d="M488 238.186C521.267 229.959 533.106 214.161 538.988 187" stroke="#FACB01" stroke-width="6" stroke-linecap="round"/>
<path d="M281.023 276.48C283.949 247.582 296.612 239.334 320.341 238.291" stroke="#FACB01" stroke-width="6" stroke-linecap="round"/>
<path d="M538.564 278.662C534.727 248.879 521.456 240.04 497 238.29" stroke="#FACB01" stroke-width="6" stroke-linecap="round"/>
</svg>
