<svg width="1144" height="265" viewBox="0 0 1144 265" fill="none" xmlns="http://www.w3.org/2000/svg">
<path d="M5 132.979L1139 129" stroke="#FACB01" stroke-width="10" stroke-linecap="round"/>
<path fill-rule="evenodd" clip-rule="evenodd" d="M336.001 3.00002C336.001 1.34317 334.658 1.26362e-05 333.001 0C331.344 -1.26362e-05 330.001 1.34312 330.001 2.99998C330.001 22.6693 330.001 37.2016 330.001 51.3027V51.7673L330.001 70.9715L329.983 70.9713C329.85 84.8059 327.651 95.6508 321.873 104.635C316.102 113.609 306.511 121.109 290.833 127.737C289.307 128.382 288.592 130.142 289.237 131.668C289.883 133.194 291.643 133.908 293.169 133.263C309.506 126.357 320.272 118.218 326.92 107.88C333.256 98.0274 335.625 86.5269 335.95 73H336.001L336.001 51.7672V51.3026C336.001 37.2015 336.001 22.6694 336.001 3.00002Z" fill="#FACB01"/>
<path fill-rule="evenodd" clip-rule="evenodd" d="M407.001 261.501C407.001 263.158 405.658 264.501 404.001 264.501C402.344 264.501 401.001 263.158 401.001 261.501C401.001 241.832 401.001 227.299 401.001 213.198V212.734L401.001 193.53L400.983 193.53C400.85 179.695 398.651 168.85 392.873 159.866C387.102 150.892 377.511 143.392 361.833 136.764C360.307 136.119 359.592 134.359 360.237 132.833C360.883 131.307 362.643 130.593 364.169 131.238C380.506 138.144 391.272 146.283 397.92 156.621C404.256 166.474 406.625 177.974 406.95 191.501H407.001L407.001 212.734V213.198C407.001 227.299 407.001 241.832 407.001 261.501Z" fill="#FACB01"/>
<path fill-rule="evenodd" clip-rule="evenodd" d="M752.001 3.00002C752.001 1.34317 750.658 1.26363e-05 749.001 0C747.344 -1.26361e-05 746.001 1.34312 746.001 2.99998C746.001 22.6693 746.001 37.2016 746.001 51.3027V51.7673L746.001 70.9715L745.983 70.9713C745.85 84.8059 743.651 95.6508 737.873 104.635C732.102 113.609 722.511 121.109 706.833 127.737C705.307 128.382 704.592 130.142 705.237 131.668C705.883 133.194 707.643 133.908 709.169 133.263C725.506 126.357 736.272 118.218 742.92 107.88C749.256 98.0274 751.625 86.5269 751.95 73H752.001L752.001 51.7672V51.3026C752.001 37.2015 752.001 22.6694 752.001 3.00002Z" fill="#FACB01"/>
<path fill-rule="evenodd" clip-rule="evenodd" d="M838.001 261.501C838.001 263.158 836.658 264.501 835.001 264.501C833.344 264.501 832.001 263.158 832.001 261.501C832.001 241.832 832.001 227.299 832.001 213.198V212.734L832.001 193.53L831.983 193.53C831.85 179.695 829.651 168.85 823.873 159.866C818.102 150.892 808.511 143.392 792.833 136.764C791.307 136.119 790.592 134.359 791.237 132.833C791.883 131.307 793.643 130.593 795.169 131.238C811.506 138.144 822.272 146.283 828.92 156.621C835.256 166.474 837.625 177.974 837.95 191.501H838.001L838.001 212.734V213.198C838.001 227.299 838.001 241.832 838.001 261.501Z" fill="#FACB01"/>
</svg>
