<svg xmlns="http://www.w3.org/2000/svg" width="24" height="24" fill="none" viewBox="0 0 24 24" id="streets-map-point">
  <path fill="#111" fill-rule="evenodd" d="M4.75 8.75722C4.75 6.49419 6.70446 4.7499 9 4.7499 11.2955 4.7499 13.25 6.49419 13.25 8.75722 13.25 10.7835 12.0042 13.175 9.93476 14.0593 9.34021 14.3134 8.65979 14.3134 8.06524 14.0593 5.99581 13.175 4.75 10.7835 4.75 8.75722zM9 6.2499C7.42955 6.2499 6.25 7.42231 6.25 8.75722 6.25 10.3007 7.23835 12.0747 8.65469 12.68 8.87274 12.7732 9.12726 12.7732 9.34531 12.68 10.7617 12.0747 11.75 10.3007 11.75 8.75722 11.75 7.42231 10.5705 6.2499 9 6.2499zM22.1375 5.86274C22.4304 6.15563 22.4304 6.6305 22.1375 6.9234L19.5303 9.5306C19.2374 9.8235 18.7626 9.8235 18.4697 9.5306 18.1768 9.23771 18.1768 8.76284 18.4697 8.46994L21.0769 5.86274C21.3698 5.56984 21.8446 5.56984 22.1375 5.86274zM16.5303 11.4699C16.8232 11.7628 16.8232 12.2377 16.5303 12.5306L15.0611 13.9998 21.0308 19.9695C21.3237 20.2624 21.3237 20.7373 21.0308 21.0302 20.7379 21.323 20.263 21.323 19.9701 21.0302L14.0004 15.0605 6.92486 22.1361C6.63197 22.429 6.15709 22.429 5.8642 22.1361 5.57131 21.8432 5.57131 21.3683 5.8642 21.0754L15.4697 11.4699C15.7626 11.177 16.2374 11.177 16.5303 11.4699z" clip-rule="evenodd"></path>
  <path fill="#111" d="M10 9C10 9.55229 9.55229 10 9 10C8.44772 10 8 9.55229 8 9C8 8.44772 8.44772 8 9 8C9.55229 8 10 8.44772 10 9Z"></path>
  <path fill="#111" fill-rule="evenodd" d="M11.9426 1.25H12.0574C14.3658 1.24999 16.1748 1.24998 17.5863 1.43975C19.031 1.63399 20.1711 2.03933 21.0659 2.93414C21.9607 3.82895 22.366 4.96897 22.5603 6.41371C22.75 7.82519 22.75 9.63423 22.75 11.9426V12.0574C22.75 14.3658 22.75 16.1748 22.5603 17.5863C22.366 19.031 21.9607 20.1711 21.0659 21.0659C20.1711 21.9607 19.031 22.366 17.5863 22.5603C16.1748 22.75 14.3658 22.75 12.0574 22.75H11.9426C9.63423 22.75 7.82519 22.75 6.41371 22.5603C4.96897 22.366 3.82895 21.9607 2.93414 21.0659C2.03933 20.1711 1.63399 19.031 1.43975 17.5863C1.24998 16.1748 1.24999 14.3658 1.25 12.0574L1.25 12C1.25 11.5858 1.58579 11.25 2 11.25C2.41421 11.25 2.75 11.5858 2.75 12C2.75 14.3782 2.75159 16.0864 2.92637 17.3864C3.09825 18.6648 3.42514 19.4355 3.9948 20.0052C4.56445 20.5749 5.33517 20.9018 6.61358 21.0736C7.91356 21.2484 9.62177 21.25 12 21.25C14.3782 21.25 16.0864 21.2484 17.3864 21.0736C18.6648 20.9018 19.4355 20.5749 20.0052 20.0052C20.5749 19.4355 20.9018 18.6648 21.0736 17.3864C21.2484 16.0864 21.25 14.3782 21.25 12C21.25 9.62178 21.2484 7.91356 21.0736 6.61358C20.9018 5.33517 20.5749 4.56445 20.0052 3.9948C19.4355 3.42514 18.6648 3.09825 17.3864 2.92637C16.0864 2.75159 14.3782 2.75 12 2.75C9.62177 2.75 7.91356 2.75159 6.61358 2.92637C5.33517 3.09825 4.56445 3.42514 3.9948 3.9948C3.23505 4.75455 2.91245 5.86509 2.80417 8.03734C2.78355 8.45104 2.43146 8.76969 2.01776 8.74907C1.60406 8.72845 1.28541 8.37636 1.30603 7.96266C1.41642 5.74802 1.74641 4.12187 2.93414 2.93414C3.82895 2.03933 4.96897 1.63399 6.41371 1.43975C7.82519 1.24998 9.63423 1.24999 11.9426 1.25Z" clip-rule="evenodd"></path>
</svg>
