<svg xmlns="http://www.w3.org/2000/svg" xml:space="preserve" viewBox="0 0 512 512" id="team-management">
  <path d="M255.999 188.856h.002a16.488 16.488 0 0 0 16.533-15.947l2.16-59.813c.164-4.596-1.437-8.773-4.627-12.079-3.191-3.31-7.31-5.059-11.907-5.059h-4.32c-4.599 0-8.717 1.75-11.907 5.059-3.191 3.308-4.791 7.485-4.627 12.082l2.16 59.811a16.486 16.486 0 0 0 16.533 15.946zm-2.692-76.556c.002-.003.032-.063.143-.178.108-.112.167-.145.166-.145.004-.001.068-.021.225-.021h4.32c.153 0 .219.019.22.019a.831.831 0 0 1 .173.149c.107.111.139.17.139.17.001.004.019.07.013.226l-2.16 59.81a.548.548 0 0 1-.544.525h-.001a.548.548 0 0 1-.543-.524l-2.16-59.808c-.008-.157.01-.223.009-.223zM256 192.396c-10.447 0-18.946 8.499-18.946 18.946s8.499 18.946 18.946 18.946 18.946-8.499 18.946-18.946-8.499-18.946-18.946-18.946zm0 21.892c-1.625 0-2.946-1.321-2.946-2.946s1.321-2.946 2.946-2.946 2.946 1.321 2.946 2.946-1.321 2.946-2.946 2.946zm243.884 241.573c-6.15-34.95-30.702-62.567-62.679-73.705 12.599-9.572 20.754-24.705 20.754-41.713 0-28.875-23.491-52.366-52.366-52.366-28.874 0-52.365 23.491-52.365 52.366 0 17.007 8.154 32.14 20.753 41.712a95.234 95.234 0 0 0-27.761 15.297 119.813 119.813 0 0 0-10.425-10.69 118.757 118.757 0 0 0-44.46-25.364c17.335-11.492 28.795-31.169 28.795-53.48a63.739 63.739 0 0 0-6.571-28.251c2.467-1.221 4.9-2.514 7.284-3.889l25.327 18.338a7.977 7.977 0 0 0 4.689 1.52 7.99 7.99 0 0 0 5.659-2.343l29.653-29.653a8 8 0 0 0 .822-10.348l-18.336-25.326a128.88 128.88 0 0 0 12.863-31.036l30.865-4.94a7.999 7.999 0 0 0 6.735-7.899v-41.937a7.999 7.999 0 0 0-6.735-7.899l-30.865-4.94a128.81 128.81 0 0 0-12.863-31.036l18.336-25.326a8 8 0 0 0-.822-10.348l-29.653-29.653a8.002 8.002 0 0 0-10.349-.823l-25.325 18.336a128.853 128.853 0 0 0-31.036-12.863l-4.941-30.866A8 8 0 0 0 276.968 0h-41.936a7.999 7.999 0 0 0-7.899 6.735L222.192 37.6a128.844 128.844 0 0 0-31.036 12.863L165.83 32.128a8.001 8.001 0 0 0-10.349.823l-29.653 29.653a8 8 0 0 0-.822 10.349l18.336 25.325a128.923 128.923 0 0 0-12.864 31.036l-30.864 4.94a7.999 7.999 0 0 0-6.735 7.899v41.937a7.999 7.999 0 0 0 6.735 7.899l30.865 4.94a128.81 128.81 0 0 0 12.863 31.036l-18.336 25.326a8 8 0 0 0 .822 10.348l29.653 29.653a8.002 8.002 0 0 0 10.349.823l25.327-18.338a130.043 130.043 0 0 0 7.287 3.89 63.735 63.735 0 0 0-6.572 28.25c0 22.311 11.459 41.988 28.794 53.48a118.74 118.74 0 0 0-44.461 25.364 119.813 119.813 0 0 0-10.425 10.69 95.229 95.229 0 0 0-27.76-15.297c12.599-9.572 20.754-24.705 20.754-41.713 0-28.875-23.491-52.366-52.365-52.366-28.875 0-52.366 23.491-52.366 52.366 0 17.007 8.154 32.14 20.753 41.712-31.977 11.138-56.53 38.756-62.68 73.709-.676 3.847.335 7.614 2.848 10.608 2.513 2.994 6.049 4.642 9.957 4.642h112.707v3.219c0 20.77 16.897 37.667 37.667 37.667h161.41c20.771 0 37.668-16.897 37.668-37.667v-3.219h112.706c3.909 0 7.445-1.649 9.957-4.643 2.513-2.99 3.525-6.758 2.848-10.608zM369.228 340.443c0-20.052 16.313-36.366 36.365-36.366 20.053 0 36.366 16.313 36.366 36.366 0 20.049-16.308 36.36-36.356 36.365H405.583c-20.048-.005-36.355-16.316-36.355-36.365zm-174.185-81.008a8 8 0 0 0-8.976.276l-24.096 17.446-20.006-20.007 17.445-24.096a7.997 7.997 0 0 0 .275-8.977 113.058 113.058 0 0 1-14.902-35.956 8 8 0 0 0-6.542-6.152l-29.364-4.7v-28.294l29.364-4.7a8.001 8.001 0 0 0 6.542-6.152 113.051 113.051 0 0 1 14.903-35.957 7.999 7.999 0 0 0-.276-8.977l-17.445-24.095 20.007-20.007 24.095 17.446a8.002 8.002 0 0 0 8.977.275 113.03 113.03 0 0 1 35.957-14.902 7.999 7.999 0 0 0 6.151-6.542L241.854 16h28.293l4.701 29.365a8.001 8.001 0 0 0 6.151 6.542 113.067 113.067 0 0 1 35.957 14.903 8.002 8.002 0 0 0 8.977-.276l24.095-17.446 20.007 20.007-17.446 24.095a7.997 7.997 0 0 0-.275 8.977 113.048 113.048 0 0 1 14.902 35.956 8 8 0 0 0 6.542 6.152l29.364 4.7v28.294l-29.364 4.7a8.001 8.001 0 0 0-6.542 6.152 113.051 113.051 0 0 1-14.903 35.957 7.997 7.997 0 0 0 .276 8.976l17.445 24.096-20.006 20.007-24.096-17.446a7.999 7.999 0 0 0-8.977-.275 113.847 113.847 0 0 1-12.31 6.759 64.644 64.644 0 0 0-14.45-12.504c36.559-13.85 62.625-49.216 62.625-90.568 0-53.387-43.434-96.821-96.82-96.821s-96.82 43.434-96.82 96.821c0 41.354 26.068 76.721 62.629 90.57a64.612 64.612 0 0 0-14.454 12.503 114.159 114.159 0 0 1-12.312-6.761zM256 243.943c-44.564 0-80.82-36.256-80.82-80.82 0-44.565 36.256-80.821 80.82-80.821s80.82 36.256 80.82 80.821c0 44.564-36.256 80.82-80.82 80.82zm-48.128 63.976c0-26.538 21.591-48.128 48.129-48.128s48.129 21.59 48.129 48.128c0 26.53-21.577 48.114-48.103 48.128h-.053c-26.526-.015-48.102-21.599-48.102-48.128zM70.043 340.443c0-20.052 16.313-36.366 36.366-36.366 20.052 0 36.365 16.313 36.365 36.366 0 20.049-16.309 36.36-36.356 36.365h-.02c-20.047-.005-36.355-16.316-36.355-36.365zm68.624 114.671H28.575c8.064-36.312 40.237-62.302 77.824-62.306H106.419c18.238.002 35.655 6.163 49.751 17.451a118.468 118.468 0 0 0-17.503 44.855zm219.706 19.219c0 11.947-9.72 21.667-21.668 21.667h-161.41c-11.947 0-21.667-9.72-21.667-21.667v-10.784c5.792-52.188 49.716-91.489 102.346-91.502l.027.001.026-.001c52.629.014 96.552 39.314 102.346 91.502v10.784zm14.961-19.219a118.492 118.492 0 0 0-17.504-44.854c14.096-11.288 31.513-17.449 49.752-17.451h.02c37.586.005 69.759 25.996 77.823 62.305H373.334z"></path>
</svg>
